<svg width="24" height="24" viewBox="0 0 24 24" fill="none" xmlns="http://www.w3.org/2000/svg">
<path fill-rule="evenodd" clip-rule="evenodd" d="M5.37863 3.75024C5.17971 3.75024 4.98895 3.82926 4.8483 3.96991L3.65901 5.1592C2.78033 6.03788 2.78033 7.4625 3.65901 8.34118C3.80236 8.48454 3.95933 8.60385 4.12532 8.69979C4.98601 9.19727 6.10557 9.0766 6.84099 8.34118C6.87469 8.30748 6.90704 8.27305 6.93805 8.23795C7.08046 8.07679 7.2852 7.98451 7.50027 7.98456C7.71534 7.98462 7.92004 8.077 8.06237 8.23824C8.47574 8.70656 9.07812 9.0001 9.75 9.0001C10.4219 9.0001 11.0243 8.70653 11.4377 8.23817C11.5801 8.07687 11.7849 7.98447 12 7.98447C12.2151 7.98447 12.4199 8.07687 12.5623 8.23817C12.9757 8.70653 13.5781 9.0001 14.25 9.0001C14.9218 9.0001 15.5242 8.70659 15.9376 8.23833C16.0799 8.07711 16.2846 7.98474 16.4996 7.98468C16.7147 7.98462 16.9194 8.07687 17.0618 8.23801C17.0928 8.27309 17.1251 8.30747 17.1587 8.34109C17.8942 9.07657 19.0139 9.19721 19.8746 8.69958C20.0405 8.60366 20.1974 8.48439 20.3407 8.34109C21.2194 7.46241 21.2194 6.03779 20.3407 5.15911L19.1515 3.96991C19.0109 3.82926 18.8201 3.75024 18.6212 3.75024H5.37863ZM16.4996 9.7506C15.8732 10.2208 15.0939 10.5001 14.25 10.5001C13.4059 10.5001 12.6265 10.2206 12 9.75026C11.3736 10.2206 10.5941 10.5001 9.75 10.5001C8.90602 10.5001 8.12675 10.2208 7.50036 9.75053C6.62479 10.409 5.5271 10.6334 4.5 10.4246V20.2501H12.75V13.5001C12.75 12.6717 13.4216 12.0001 14.25 12.0001H17.25C18.0784 12.0001 18.75 12.6717 18.75 13.5001V20.2501H19.5V10.4245C18.4729 10.6333 17.3752 10.409 16.4996 9.7506ZM21 9.75037C21.1401 9.64507 21.2743 9.52883 21.4014 9.40175C22.8658 7.93729 22.8658 5.56292 21.4014 4.09845L20.2122 2.90925C19.7902 2.4873 19.2179 2.25024 18.6212 2.25024H5.37863C4.78189 2.25024 4.20959 2.4873 3.78764 2.90925L2.59835 4.09854C1.13388 5.56301 1.13388 7.93738 2.59835 9.40184C2.72551 9.529 2.8598 9.64531 3 9.75067V20.2501H2.36088C1.94667 20.2501 1.61088 20.5859 1.61088 21.0001C1.61088 21.4143 1.94667 21.7501 2.36088 21.7501H21.6391C22.0533 21.7501 22.3891 21.4143 22.3891 21.0001C22.3891 20.5859 22.0533 20.2501 21.6391 20.2501H21V9.75037ZM17.25 20.2501V13.5001H14.25V20.2501H17.25ZM5.25 13.5001C5.25 12.6717 5.92157 12.0001 6.75 12.0001H10.5C11.3284 12.0001 12 12.6717 12 13.5001V17.2501C12 18.0785 11.3284 18.7501 10.5 18.7501H6.75C5.92157 18.7501 5.25 18.0785 5.25 17.2501V13.5001ZM10.5 13.5001H6.75V17.2501L10.5 17.2501V13.5001Z" fill="#CF4500"/>
</svg>
