<svg width="100" height="100" viewBox="0 0 100 100" fill="none" xmlns="http://www.w3.org/2000/svg">
<g id="card">
<g id="row">
<path id="icon - Face ID" fill-rule="evenodd" clip-rule="evenodd" d="M100 84.2291V73.3035C100 71.9393 98.894 70.8333 97.5299 70.8333C96.1657 70.8333 95.0597 71.9393 95.0597 73.3035V84.2291C95.0597 90.201 90.201 95.0597 84.2291 95.0597H73.3035C71.9393 95.0597 70.8333 96.1657 70.8333 97.5299C70.8333 98.894 71.9393 100 73.3035 100H84.2291C92.9251 100 100 92.9251 100 84.2291ZM29.1667 97.5299C29.1667 96.1657 28.0607 95.0597 26.6965 95.0597H15.7709C9.79895 95.0597 4.94028 90.201 4.94028 84.2291V73.3035C4.94028 71.9393 3.83432 70.8333 2.47014 70.8333C1.10596 70.8333 0 71.9393 0 73.3035V84.2291C0 92.9251 7.07486 100 15.7709 100H26.6965C28.0607 100 29.1667 98.894 29.1667 97.5299ZM4.94028 26.6965V15.7709C4.94028 9.79886 9.79895 4.94028 15.7709 4.94028H26.6965C28.0607 4.94028 29.1667 3.83432 29.1667 2.47014C29.1667 1.10596 28.0607 0 26.6965 0H15.7709C7.07486 0 0 7.07477 0 15.7709V26.6965C0 28.0607 1.10596 29.1667 2.47014 29.1667C3.83432 29.1667 4.94028 28.0607 4.94028 26.6965ZM100 26.6965V15.7709C100 7.07477 92.9251 0 84.2291 0H73.3035C71.9393 0 70.8333 1.10596 70.8333 2.47014C70.8333 3.83432 71.9393 4.94028 73.3035 4.94028H84.2291C90.201 4.94028 95.0597 9.79886 95.0597 15.7709V26.6965C95.0597 28.0607 96.1657 29.1667 97.5299 29.1667C98.894 29.1667 100 28.0607 100 26.6965ZM67.8848 72.9198C68.9767 72.0189 69.0442 70.4981 68.0356 69.5228C67.027 68.5475 65.3244 68.4873 64.2326 69.388C60.3475 72.5935 55.2929 74.3589 50 74.3589C44.7071 74.3589 39.6525 72.5935 35.7674 69.388C34.6754 68.4873 32.973 68.5476 31.9644 69.5228C30.9558 70.4981 31.0233 72.0189 32.1152 72.9198C36.9978 76.9481 43.3493 79.1667 50 79.1667C56.6507 79.1667 63.0022 76.9481 67.8848 72.9198ZM56.25 56.0113V37.9557C56.25 36.5534 54.9695 35.4167 53.3898 35.4167C51.8102 35.4167 50.5297 36.5534 50.5297 37.9557V56.0113C50.5297 56.7891 49.8168 57.4219 48.9407 57.4219H46.6102C45.0305 57.4219 43.75 58.5586 43.75 59.9609C43.75 61.3633 45.0305 62.5 46.6102 62.5H48.9407C52.9711 62.5 56.25 59.5892 56.25 56.0113ZM72.9167 45.4264V37.9069C72.9167 36.5316 71.9839 35.4167 70.8333 35.4167C69.6828 35.4167 68.75 36.5316 68.75 37.9069V45.4264C68.75 46.8017 69.6828 47.9167 70.8333 47.9167C71.9839 47.9167 72.9167 46.8017 72.9167 45.4264ZM29.1667 47.9167C28.0161 47.9167 27.0833 46.8017 27.0833 45.4264V37.9069C27.0833 36.5316 28.0161 35.4167 29.1667 35.4167C30.3172 35.4167 31.25 36.5316 31.25 37.9069V45.4264C31.25 46.8017 30.3172 47.9167 29.1667 47.9167Z" fill="#0377FE"/>
</g>
</g>
</svg>
