<svg width="375" height="261" viewBox="0 0 375 261" fill="none" xmlns="http://www.w3.org/2000/svg">
<mask id="mask0_14_7191" style="mask-type:alpha" maskUnits="userSpaceOnUse" x="83" y="22" width="80" height="51">
<path d="M85.9543 22.606H159.812C161.444 22.606 162.767 23.9288 162.767 25.5603V69.8751C162.767 71.5066 161.444 72.8295 159.812 72.8295H85.9543C84.3229 72.8295 83 71.5066 83 69.8751V25.5603C83 23.9288 84.3229 22.606 85.9543 22.606Z" fill="#18A886"/>
</mask>
<g mask="url(#mask0_14_7191)">
<path d="M85.9543 22.606H159.812C161.444 22.606 162.767 23.9288 162.767 25.5603V69.8751C162.767 71.5066 161.444 72.8295 159.812 72.8295H85.9543C84.3229 72.8295 83 71.5066 83 69.8751V25.5603C83 23.9288 84.3229 22.606 85.9543 22.606Z" fill="#282828"/>
</g>
<path d="M97.0409 39.5112H94.6733V37.9356H97.5031V39.0496C97.5027 39.172 97.4539 39.2893 97.3673 39.3758C97.2807 39.4624 97.1633 39.511 97.0409 39.5112ZM93.9452 39.5112H91.8276V37.9356H93.9452V39.5112ZM91.0906 39.5112H88.7024C88.5799 39.511 88.4624 39.4623 88.3758 39.3756C88.2891 39.289 88.2404 39.1715 88.2402 39.049V37.9356H91.0901L91.0906 39.5112ZM97.5031 37.1891H94.6733V35.3168H97.5031V37.1891ZM93.9452 37.1891H91.8276V35.3168H93.9452V37.1891ZM91.0906 37.1891H88.2402V35.3168H91.0901L91.0906 37.1891ZM97.5031 34.5704H94.6733V32.6981H97.5031V34.5704ZM93.9452 34.5704H91.8276V32.6981H93.9452V34.5704ZM91.0906 34.5704H88.2402V32.6981H91.0901L91.0906 34.5704ZM97.5031 31.9516H91.8276V30.269H97.0409C97.1634 30.2692 97.2809 30.3179 97.3675 30.4046C97.4542 30.4912 97.5029 30.6087 97.5031 30.7312V31.9516ZM91.0906 31.9516H88.2402V30.7312C88.2404 30.6087 88.2891 30.4912 88.3758 30.4046C88.4624 30.3179 88.5799 30.2692 88.7024 30.269H91.0901L91.0906 31.9516Z" fill="#F0EFEE"/>
<path d="M160.879 112.62L168.148 132.644" stroke="#54524F" stroke-width="3" stroke-miterlimit="10" stroke-linecap="round"/>
<path d="M130 131.583C134.987 127.13 135.42 119.478 130.967 114.491C126.514 109.504 118.861 109.071 113.874 113.524C108.887 117.976 108.454 125.629 112.907 130.616C117.36 135.603 125.013 136.036 130 131.583Z" fill="#FCCCB2"/>
<path d="M117.841 127.803C119.093 126.686 119.201 124.765 118.084 123.514C116.966 122.262 115.046 122.153 113.794 123.271C112.542 124.389 112.434 126.309 113.551 127.561C114.669 128.812 116.589 128.921 117.841 127.803Z" fill="#FCCCB2"/>
<path d="M115.664 132.834L113.602 142.908L124.239 143.307L126.524 131.275L115.664 132.834Z" fill="#FCCCB2"/>
<path d="M128.598 145.628C126.974 145.465 125.382 145.199 123.923 144.794C117.059 142.884 112.406 147.879 109.851 148.559C110.841 146.268 112.121 144.223 113.713 142.709C120.754 139.279 125.206 143.648 125.206 143.648C125.206 143.648 126.633 144.368 128.598 145.628Z" fill="#FCCCB2"/>
<path d="M177.895 248.153L175.1 257.669H205.562C205.562 257.669 205.237 253.121 200.493 253.121C193.527 253.121 188.4 247.496 188.4 247.496L202.122 216.553L184.914 220.318L179.27 243.11L177.895 248.153Z" fill="#FCCCB2"/>
<path d="M182.021 216.063L178.812 242.193L184.542 243.798L191.189 245.402L200.816 216.063H182.021Z" fill="#555250"/>
<path d="M234.481 246.193L213.194 219.272L201.777 225.663L223.939 248.895L223.392 251.622C222.538 254.398 223.392 257.78 223.392 257.78L252.161 257.211C252.161 257.211 253.266 252.642 246.495 252.205C239.544 251.752 234.481 246.196 234.481 246.196V246.193Z" fill="#FCCCB2"/>
<path d="M125.301 194.446C118.911 207.47 121.125 216.824 132.426 217.805C141.78 218.618 175.768 218.713 187.459 218.796C189.839 218.814 193.903 218.946 194.979 221.071L220.07 248.153L231.531 241.735L204.363 204.714C200.503 199.84 194.628 196.083 188.412 196.083L159.129 193.955L125.301 194.446Z" fill="#676561"/>
<path d="M137.889 154.174C141.841 160.309 156.792 190.372 155.839 193.854C155.221 196.125 145.129 193.246 145.2 198.139C144.313 205.084 142.055 208.535 139.289 211.143C135.809 214.429 130.377 215.662 124.468 215.133C112.247 195.3 107.72 166.619 107.72 166.619C106.838 145.628 113.715 143.173 113.715 142.714C116.267 142.036 117.056 142.886 123.923 144.794C125.38 145.196 126.974 145.464 128.598 145.628C128.598 145.628 135.536 150.522 137.889 154.174Z" fill="url(#paint0_linear_14_7191)"/>
<path d="M124.911 148.853C134.011 150.538 161.555 162.225 161.555 162.225L164.814 137.821L163.408 129.662C162.461 124.62 163.741 123.933 164.663 124.9C165.63 125.907 166.15 130.914 166.15 130.914L167.245 126.656L164.764 122.017C163.961 120.519 163.554 118.842 163.576 117.142C163.589 116.295 164.615 115.886 165.206 116.491L170.816 122.228C172.555 124.007 173.312 126.528 172.841 128.973L171.047 138.27L171.293 166.324C170.709 172.84 164.505 174.199 159.488 172.676L132.385 164.451" fill="#FCCCB2"/>
<path d="M130.224 148.004L158.529 160.957L144.394 178.828L123.508 170.031C109.594 162.688 115.099 144.266 130.226 148.002L130.224 148.004Z" fill="url(#paint1_linear_14_7191)"/>
<path d="M116.821 163.517C118.078 166.008 120.266 168.321 123.506 170.028L144.392 178.825L151.238 170.172" stroke="#059371" stroke-miterlimit="10"/>
<path d="M375 258.072H0V260.072H375V258.072Z" fill="#94918C"/>
<path d="M252.778 258.704H222.632L223.189 248.474H236.538L247.621 250.842C250.677 251.668 252.778 254.269 252.778 257.223V258.708V258.704Z" fill="#141413"/>
<path d="M205.491 258.614H175.05L175.611 248.283H189.092L200.284 250.674C203.369 251.509 205.491 254.135 205.491 257.118V258.617V258.614Z" fill="#141413"/>
<path d="M101.705 183.899L107.46 157.66L118.232 189.68L101.705 183.899Z" fill="#18A886"/>
<path d="M297.723 258.302H316.525" stroke="#282828" stroke-width="0.5" stroke-miterlimit="10"/>
<path d="M307.122 258.302V50.2086C307.122 23.0323 285.09 1 257.914 1C230.738 1 208.705 23.0323 208.705 50.2086" stroke="#282828" stroke-width="0.5" stroke-miterlimit="10"/>
<path d="M203.782 66.1792C203.782 68.8992 205.985 71.1028 208.705 71.1028C211.425 71.1028 213.629 68.8992 213.629 66.1792" fill="white"/>
<path d="M203.782 66.1792C203.782 68.8992 205.985 71.1028 208.705 71.1028C211.425 71.1028 213.629 68.8992 213.629 66.1792" stroke="#282828" stroke-width="0.5" stroke-miterlimit="10"/>
<path d="M210.98 54.2987L211.026 54.4887H211.213C218.072 55.3676 223.816 59.8223 226.509 65.9259H190.916C193.611 59.8179 199.361 55.3641 206.227 54.4867L206.397 54.465L206.438 54.2987L207.431 50.2812H209.987L210.98 54.2987Z" stroke="black" stroke-width="0.5"/>
<path d="M291.468 187.815L287.791 187.27C286.796 187.122 286.045 186.286 286.007 185.28L285.87 181.565C285.667 176.067 289.151 171.105 294.391 169.425L307.568 165.2C309.29 164.649 310.849 166.392 310.112 168.041L304.469 180.673C302.224 185.697 296.912 188.613 291.468 187.811V187.815Z" fill="url(#paint2_linear_14_7191)"/>
<path d="M302.479 171.683C282.809 180.583 283.022 196.294 285.519 204.815" stroke="#88D3BF" stroke-miterlimit="10"/>
<path d="M289.454 176.376L282.585 177.832C281.797 178.001 281.002 177.581 280.695 176.837L278.01 170.351C275.32 163.857 277.283 156.372 282.809 152.03L300.6 138.051C301.736 137.159 303.392 138.03 303.299 139.473L301.843 162.049C301.392 169.063 296.327 174.916 289.454 176.376Z" fill="url(#paint3_linear_14_7191)"/>
<path d="M293.538 152.254C278.116 169.473 278.732 195.998 282.95 212.807" stroke="#88D3BF" stroke-miterlimit="10"/>
<path d="M268.927 191.474L271.66 191.57C272.401 191.598 273.055 191.092 273.217 190.369L273.812 187.697C274.694 183.744 272.834 179.685 269.264 177.77L260.288 172.953C259.117 172.323 257.754 173.38 258.067 174.671L260.467 184.57C261.421 188.506 264.877 191.329 268.927 191.47V191.474Z" fill="url(#paint4_linear_14_7191)"/>
<path d="M265.167 180.924C267.653 184.14 272.415 190.954 272.621 191.274C274.725 194.562 275.365 197.11 275.627 201.022" stroke="#88D3BF" stroke-miterlimit="10"/>
<path d="M263.876 196.295H292.35V227.53C292.35 233.301 287.664 237.987 281.893 237.987H274.329C268.558 237.987 263.872 233.301 263.872 227.53V196.295H263.876Z" fill="url(#paint5_linear_14_7191)"/>
<path d="M263.874 217.226V258.198" stroke="#282828" stroke-width="0.5" stroke-miterlimit="10"/>
<path d="M292.452 217.226H263.874" stroke="#282828" stroke-width="0.5" stroke-miterlimit="10"/>
<path d="M292.452 217.226V258.198" stroke="#282828" stroke-width="0.5" stroke-miterlimit="10"/>
<path d="M154.341 222.556L124.476 258.4" stroke="#282828" stroke-width="0.5" stroke-miterlimit="10"/>
<path d="M123.031 222.556L152.89 258.4" stroke="#282828" stroke-width="0.5" stroke-miterlimit="10"/>
<path d="M105.059 202.256C105.059 200.837 103.91 199.688 102.491 199.688H97.5866C97.5409 198.326 97.6063 196.938 97.8046 195.534L104.616 147.372C104.782 146.199 105.787 145.325 106.973 145.325C106.973 185.529 137.141 218.118 174.354 218.118C174.354 220.516 172.409 222.46 170.011 222.46H121.196C110.085 222.46 100.967 214.851 98.3408 204.822H102.493C103.912 204.822 105.061 203.673 105.061 202.254L105.059 202.256Z" fill="url(#paint6_linear_14_7191)"/>
<path d="M107.365 127.553C108.443 130.184 111.828 134.414 115.105 135.057C117.282 133.059 115.076 129.157 115.06 126.962C114.055 126.676 113.192 125.949 112.766 124.908C112.028 123.107 112.889 121.055 114.689 120.316C116.147 119.721 117.766 120.168 118.721 121.308L121.098 120.336L119.278 116.567C118.74 115.451 119.253 114.109 120.399 113.642L128.697 110.245C128.726 110.231 128.757 110.221 128.784 110.205C130.374 109.503 131.12 107.657 130.457 106.037C130.118 105.209 129.478 104.603 128.718 104.283C127.96 103.961 127.079 103.935 126.251 104.273L115.233 108.786C107.875 111.798 104.353 120.202 107.368 127.559L107.365 127.553Z" fill="#141413"/>
<path fill-rule="evenodd" clip-rule="evenodd" d="M138.039 54.0493C136.934 54.0493 136.039 54.9447 136.039 56.0493V94.6606V95.0662V99.1278L140.371 95.0662H164.091C165.196 95.0662 166.091 94.1708 166.091 93.0662V56.0493C166.091 54.9447 165.196 54.0493 164.091 54.0493H138.039Z" fill="white"/>
<path d="M136.039 99.1278H135.789V99.7049L136.21 99.3102L136.039 99.1278ZM140.371 95.0662V94.8162H140.273L140.2 94.8838L140.371 95.0662ZM136.289 56.0493C136.289 55.0828 137.073 54.2993 138.039 54.2993V53.7993C136.796 53.7993 135.789 54.8067 135.789 56.0493H136.289ZM136.289 94.6606V56.0493H135.789V94.6606H136.289ZM135.789 94.6606V95.0662H136.289V94.6606H135.789ZM135.789 95.0662V99.1278H136.289V95.0662H135.789ZM136.21 99.3102L140.542 95.2486L140.2 94.8838L135.868 98.9454L136.21 99.3102ZM164.091 94.8162H140.371V95.3162H164.091V94.8162ZM165.841 93.0662C165.841 94.0327 165.058 94.8162 164.091 94.8162V95.3162C165.334 95.3162 166.341 94.3088 166.341 93.0662H165.841ZM165.841 56.0493V93.0662H166.341V56.0493H165.841ZM164.091 54.2993C165.058 54.2993 165.841 55.0828 165.841 56.0493H166.341C166.341 54.8067 165.334 53.7993 164.091 53.7993V54.2993ZM138.039 54.2993H164.091V53.7993H138.039V54.2993Z" fill="#282828"/>
<rect x="143" y="85.0723" width="16" height="5" rx="2.5" fill="#282828"/>
<rect width="9" height="1" transform="matrix(1 0 0 -1 139 75.0723)" fill="#282828"/>
<rect width="9" height="1" transform="matrix(1 0 0 -1 139 64.0723)" fill="#282828"/>
<path d="M157.75 44.0723C157.75 47.2294 154.971 49.8223 151.5 49.8223C148.029 49.8223 145.25 47.2294 145.25 44.0723C145.25 40.9151 148.029 38.3223 151.5 38.3223C154.971 38.3223 157.75 40.9151 157.75 44.0723Z" fill="white" stroke="#282828" stroke-width="0.5"/>
<rect x="139.25" y="76.3223" width="23.5" height="5.5" rx="1.75" stroke="#282828" stroke-width="0.5"/>
<rect x="139.25" y="65.3223" width="23.5" height="5.5" rx="1.75" stroke="#282828" stroke-width="0.5"/>
<mask id="mask1_14_7191" style="mask-type:alpha" maskUnits="userSpaceOnUse" x="148" y="41" width="7" height="11">
<circle cx="151.755" cy="48.2752" r="3.18489" fill="#282828"/>
<circle cx="151.578" cy="42.7902" r="1.59245" fill="#282828"/>
</mask>
<g mask="url(#mask1_14_7191)">
<circle cx="151.755" cy="44.3827" r="4.95427" fill="#282828"/>
</g>
<circle cx="141.5" cy="79.0723" r="0.5" fill="#777470"/>
<circle cx="143.5" cy="79.0723" r="0.5" fill="#777470"/>
<circle cx="145.5" cy="79.0723" r="0.5" fill="#777470"/>
<circle cx="147.5" cy="79.0723" r="0.5" fill="#777470"/>
<circle cx="149.5" cy="79.0723" r="0.5" fill="#777470"/>
<defs>
<linearGradient id="paint0_linear_14_7191" x1="102.65" y1="152.594" x2="147.994" y2="203.377" gradientUnits="userSpaceOnUse">
<stop stop-color="#18A886"/>
<stop offset="1" stop-color="#2BAAB9"/>
</linearGradient>
<linearGradient id="paint1_linear_14_7191" x1="123.201" y1="146.365" x2="148.73" y2="174.956" gradientUnits="userSpaceOnUse">
<stop stop-color="#18A886"/>
<stop offset="1" stop-color="#2BAAB9"/>
</linearGradient>
<linearGradient id="paint2_linear_14_7191" x1="298.081" y1="165.096" x2="298.081" y2="187.943" gradientUnits="userSpaceOnUse">
<stop stop-color="#DFF3EE"/>
<stop offset="1" stop-color="#E1F7F8"/>
</linearGradient>
<linearGradient id="paint3_linear_14_7191" x1="290.059" y1="137.69" x2="290.059" y2="177.87" gradientUnits="userSpaceOnUse">
<stop stop-color="#DFF3EE"/>
<stop offset="1" stop-color="#E1F7F8"/>
</linearGradient>
<linearGradient id="paint4_linear_14_7191" x1="266.025" y1="172.766" x2="266.025" y2="191.571" gradientUnits="userSpaceOnUse">
<stop stop-color="#DFF3EE"/>
<stop offset="1" stop-color="#E1F7F8"/>
</linearGradient>
<linearGradient id="paint5_linear_14_7191" x1="278.111" y1="196.295" x2="278.111" y2="237.987" gradientUnits="userSpaceOnUse">
<stop stop-color="#18A886"/>
<stop offset="1" stop-color="#2BAAB9"/>
</linearGradient>
<linearGradient id="paint6_linear_14_7191" x1="135.963" y1="145.325" x2="135.963" y2="222.46" gradientUnits="userSpaceOnUse">
<stop stop-color="#DFF3EE"/>
<stop offset="1" stop-color="#E1F7F8"/>
</linearGradient>
</defs>
</svg>
