<svg width="375" height="275" viewBox="0 0 375 275" fill="none" xmlns="http://www.w3.org/2000/svg">
<path d="M107.683 33.4656H203.303C210.933 33.4656 217.119 39.6512 217.119 47.2815V260.328C217.119 267.959 210.933 274.144 203.303 274.144H107.683C100.053 274.144 93.8672 267.959 93.8672 260.328V47.2815C93.8672 39.6512 100.053 33.4656 107.683 33.4656Z" fill="white" stroke="black" stroke-width="0.5"/>
<path d="M146.292 45.3655C146.292 44.583 145.658 43.9487 144.875 43.9487C144.093 43.9487 143.458 44.583 143.458 45.3655C143.458 46.1479 144.093 46.7822 144.875 46.7822C145.658 46.7822 146.292 46.1479 146.292 45.3655Z" fill="#83807D"/>
<path d="M167.048 44.0344H151.675C150.939 44.0344 150.343 44.6305 150.343 45.3659V45.3699C150.343 46.1053 150.939 46.7014 151.675 46.7014H167.048C167.783 46.7014 168.379 46.1053 168.379 45.3699V45.3659C168.379 44.6305 167.783 44.0344 167.048 44.0344Z" stroke="#83807D" stroke-width="2.37" stroke-miterlimit="10"/>
<path d="M204.63 74.5164H106.352V227.179H204.63V74.5164Z" fill="white"/>
<path d="M308.256 162.284H308.252C296.04 162.284 286.141 172.184 286.141 184.395V184.399C286.141 196.611 296.04 206.51 308.252 206.51H308.256C320.467 206.51 330.367 196.611 330.367 184.399V184.395C330.367 172.184 320.467 162.284 308.256 162.284Z" fill="url(#paint0_linear_17_8190)"/>
<path d="M308.252 180.732V236.451" stroke="#88D3BF" stroke-miterlimit="10"/>
<path d="M289.886 212.801V230.467C289.886 240.609 298.109 248.832 308.252 248.832C318.394 248.832 326.617 240.609 326.617 230.467V212.801H289.882H289.886Z" fill="url(#paint1_linear_17_8190)"/>
<path d="M326.621 230.462V274.425" stroke="#282828" stroke-width="0.5" stroke-miterlimit="10"/>
<path d="M289.886 230.462H326.621" stroke="#282828" stroke-width="0.5" stroke-miterlimit="10"/>
<path d="M289.886 230.462V274.425" stroke="#282828" stroke-width="0.5" stroke-miterlimit="10"/>
<path d="M315.129 184.348C315.129 188.148 312.053 191.225 308.252 191.225" stroke="#88D3BF" stroke-miterlimit="10"/>
<path d="M118.194 105.417H192.782C194.074 105.417 195.122 106.465 195.122 107.757V152.438C195.122 153.73 194.074 154.778 192.782 154.778H118.194C116.902 154.778 115.855 153.73 115.855 152.438V107.757C115.855 106.465 116.902 105.417 118.194 105.417Z" stroke="black" stroke-width="0.5"/>
<path d="M122.999 124.667V21.7205H187.861V124.667H122.999Z" fill="white" stroke="black" stroke-width="0.5"/>
<path d="M187.989 110.097H122.983C121.857 110.097 120.945 111.01 120.945 112.136V143.681C120.945 144.806 121.857 145.719 122.983 145.719H187.989C189.115 145.719 190.028 144.806 190.028 143.681V112.136C190.028 111.01 189.115 110.097 187.989 110.097Z" fill="url(#paint2_linear_17_8190)"/>
<path d="M155.233 128.705V128.955H155.483H155.488H155.738V128.705C155.738 123.34 160.524 118.954 166.479 118.954H190.709V150.657H120.156V118.954H144.492C150.448 118.954 155.233 123.34 155.233 128.705Z" fill="white" stroke="black" stroke-width="0.5"/>
<path d="M131.23 65.5475V65.4509H158.632V65.5475H131.23Z" stroke="black" stroke-width="0.5"/>
<path d="M131.23 71.1896V71.093H158.632V71.1896H131.23Z" stroke="black" stroke-width="0.5"/>
<path d="M131.23 76.8314V76.7349H158.632V76.8314H131.23Z" stroke="black" stroke-width="0.5"/>
<path d="M131.23 82.473V82.3765H158.632V82.473H131.23Z" stroke="black" stroke-width="0.5"/>
<path d="M180.509 90.124H130.98V90.5921H180.509V90.124Z" fill="#282828"/>
<path d="M166.022 65.5475V65.4509H180.259V65.5475H166.022Z" stroke="black" stroke-width="0.5"/>
<path d="M166.022 71.1896V71.093H180.259V71.1896H166.022Z" stroke="black" stroke-width="0.5"/>
<path d="M166.022 76.8314V76.7349H180.259V76.8314H166.022Z" stroke="black" stroke-width="0.5"/>
<path d="M166.022 82.473V82.3765H180.259V82.473H166.022Z" stroke="black" stroke-width="0.5"/>
<path d="M131.386 49.0905V48.9939H152.518V49.0905H131.386Z" stroke="black" stroke-width="0.5"/>
<path d="M131.386 54.2641V54.1675H152.518V54.2641H131.386Z" stroke="black" stroke-width="0.5"/>
<path d="M131.386 97.0538V96.9573H152.518V97.0538H131.386Z" stroke="black" stroke-width="0.5"/>
<path d="M159.127 97.0538V96.9573H180.259V97.0538H159.127Z" stroke="black" stroke-width="0.5"/>
<path d="M131.386 102.695V102.599H152.518V102.695H131.386Z" stroke="black" stroke-width="0.5"/>
<path d="M159.127 102.695V102.599H180.259V102.695H159.127Z" stroke="black" stroke-width="0.5"/>
<path d="M131.386 43.9166V43.8201H152.518V43.9166H131.386Z" stroke="black" stroke-width="0.5"/>
<path d="M131.386 38.7477V38.6511H152.518V38.7477H131.386Z" stroke="black" stroke-width="0.5"/>
<path d="M155.43 46.8614C168.371 46.8614 178.861 36.3711 178.861 23.4307C178.861 10.4903 168.371 0 155.43 0C142.49 0 132 10.4903 132 23.4307C132 36.3711 142.49 46.8614 155.43 46.8614Z" fill="url(#paint3_linear_17_8190)"/>
<path d="M153.255 34.4122L141.313 23.6404L144.151 20.4951L152.855 28.346L166.514 12.2688L169.742 15.0093L153.255 34.4122Z" fill="white"/>
<path d="M375 273H0V275H375V273Z" fill="#94918C"/>
<mask id="mask0_17_8190" style="mask-type:alpha" maskUnits="userSpaceOnUse" x="115" y="177" width="81" height="52">
<path d="M118.559 177.871H192.417C194.049 177.871 195.372 179.193 195.372 180.825V225.14C195.372 226.771 194.049 228.094 192.417 228.094H118.559C116.928 228.094 115.605 226.771 115.605 225.14V180.825C115.605 179.193 116.928 177.871 118.559 177.871Z" fill="#18A886"/>
</mask>
<g mask="url(#mask0_17_8190)">
<path d="M118.559 177.871H192.417C194.049 177.871 195.372 179.193 195.372 180.825V225.14C195.372 226.771 194.049 228.094 192.417 228.094H118.559C116.928 228.094 115.605 226.771 115.605 225.14V180.825C115.605 179.193 116.928 177.871 118.559 177.871Z" fill="#282828"/>
</g>
<path d="M129.646 194.776H127.278V193.2H130.108V194.314C130.108 194.437 130.059 194.554 129.972 194.64C129.886 194.727 129.768 194.776 129.646 194.776ZM126.55 194.776H124.433V193.2H126.55V194.776ZM123.696 194.776H121.307C121.185 194.776 121.067 194.727 120.981 194.64C120.894 194.554 120.845 194.436 120.845 194.314V193.2H123.695L123.696 194.776ZM130.108 192.454H127.278V190.581H130.108V192.454ZM126.55 192.454H124.433V190.581H126.55V192.454ZM123.696 192.454H120.845V190.581H123.695L123.696 192.454ZM130.108 189.835H127.278V187.963H130.108V189.835ZM126.55 189.835H124.433V187.963H126.55V189.835ZM123.696 189.835H120.845V187.963H123.695L123.696 189.835ZM130.108 187.216H124.433V185.534H129.646C129.768 185.534 129.886 185.583 129.972 185.669C130.059 185.756 130.108 185.873 130.108 185.996V187.216ZM123.696 187.216H120.845V185.996C120.845 185.873 120.894 185.756 120.981 185.669C121.067 185.583 121.185 185.534 121.307 185.534H123.695L123.696 187.216Z" fill="#F0EFEE"/>
<path d="M247.885 86.3047H238.595V98.6736H247.885V86.3047Z" fill="#FCCCB2"/>
<path d="M199 174.475L196.299 169.795L211.006 131.273L219.055 137.298L199 174.475Z" fill="#FCCCB2"/>
<path d="M197.432 169.492L196.995 168.523L196.178 169.017L190.152 173.946C180.321 181.015 181.409 182.074 181.409 182.074L195.242 175.62C194.824 177.31 191.876 179.401 191.717 180.74C191.56 182.081 192.675 181.95 192.675 181.95C192.974 181.128 194.653 180.345 194.653 180.345C194.653 180.345 197.278 179.705 198.479 176.22C199.626 172.889 199.283 171.309 197.43 169.493L197.432 169.492Z" fill="#FCCCB2"/>
<path d="M210 133.126C210 133.126 210.5 132.126 215 119.126C219.5 106.126 224 104.626 224 104.626L239.098 98.8223H248.387L263.469 105.18C266.899 106.751 269.435 109.828 270.212 113.521C271.197 118.207 271.195 120.471 271.5 122.975L273.433 139.055C273.433 140.351 267.474 140.43 260.597 139.972L262.43 156C262.647 159.917 260.689 162.475 260.689 162.475H230.55C228.103 162.475 226.633 153.498 226.633 153.498L226.5 130.626C226.5 130.626 223.5 136.626 220.5 142.626L208.5 137.126L210 133.126Z" fill="url(#paint4_linear_17_8190)"/>
<path d="M235.674 111.908H227.463L230.056 119.28H238.266L235.674 111.908Z" fill="#54524F"/>
<path d="M240.06 127.734L233.992 125.367C233.992 125.367 231.199 123.586 230.84 121.109H230.902C230.066 121.109 229.282 120.568 229.108 119.751C229.075 119.598 229.062 119.44 229.081 119.28H238.017L237.13 116.05C237.13 116.05 239.091 115.726 240.063 119.173C241.035 122.619 243.75 124.464 243.75 124.464" fill="#FCCCB2"/>
<path d="M232.509 274.214H223.305C223.305 274.214 223.163 269.119 230.666 269.119L234.629 263.739L245.673 259.915L248.929 267.844L232.506 274.214H232.509Z" fill="#141413"/>
<path d="M236.673 274.214C236.673 274.214 237.098 268.267 242.759 268.267L250.97 266.285H262.436V274.214H236.67H236.673Z" fill="#141413"/>
<path d="M250.022 265.013H262.439L260.211 162.313H229.903L221.578 208.939C221.578 208.939 220.842 219.463 225.742 235.249L233.883 262.293L245.51 258.284L236.673 217.602L243.892 183.958L250.022 265.011V265.013Z" fill="#676561"/>
<path d="M258.599 171.503C254.619 171.503 251.393 168.276 251.393 164.297" stroke="#555250" stroke-miterlimit="10"/>
<path d="M261.916 265.013H250.972V266.288H261.916V265.013Z" fill="#FCCCB2"/>
<path d="M245.676 259.915L245.116 258.42L234.472 262.089L234.967 263.621L245.676 259.915Z" fill="#FCCCB2"/>
<path d="M230.831 77.7183C230.678 78.4023 230.6 79.0933 230.566 79.7773C230.296 85.3906 233.883 90.9586 239.45 92.2075C245.001 93.4524 250.611 89.9688 252.779 84.7997C253.052 84.1504 253.28 83.4843 253.435 82.7918C254.836 76.5521 250.908 70.3609 244.668 68.9599C238.429 67.559 232.233 71.4762 230.833 77.7159L230.831 77.7183Z" fill="#FCCCB2"/>
<path d="M254.281 82.8558C253.682 85.1884 251.332 89.1306 248.658 90.0504C246.599 88.6267 247.997 85.0963 247.756 83.2526C248.566 82.8964 249.206 82.1865 249.442 81.2629C249.853 79.6668 248.891 78.0444 247.295 77.6336C246.003 77.303 244.697 77.8667 244.027 78.9338L241.92 78.3937L243.01 75.02C243.332 74.021 242.746 72.9548 241.73 72.6957L234.373 70.8084C234.347 70.8007 234.32 70.7956 234.295 70.7854C232.879 70.3812 232.039 68.9184 232.408 67.4824C232.596 66.7484 233.063 66.1654 233.664 65.8085C234.262 65.4506 234.999 65.3259 235.733 65.5139L245.501 68.0215C252.025 69.6948 255.955 76.3384 254.279 82.8608L254.281 82.8558Z" fill="#141413"/>
<path d="M260.027 150.917C255.912 148.161 239.455 127.487 239.455 127.487L241.284 121.975C241.284 121.975 259.112 139.432 260.027 139.432C260.941 139.432 271.455 135.757 271.455 135.757C269.169 151.836 264.141 153.674 260.027 150.917Z" fill="#FCCCB2"/>
<path d="M259.699 139.476L258 127.864C258 127.864 269.501 111.532 270.375 114.288C271.25 117.044 274 139.975 274 139.975L259.699 139.476Z" fill="url(#paint5_linear_17_8190)"/>
<path d="M258.5 127.975L260 138.975" stroke="#059371"/>
<defs>
<linearGradient id="paint0_linear_17_8190" x1="308.254" y1="162.284" x2="308.254" y2="206.51" gradientUnits="userSpaceOnUse">
<stop stop-color="#DFF3EE"/>
<stop offset="1" stop-color="#E1F7F8"/>
</linearGradient>
<linearGradient id="paint1_linear_17_8190" x1="308.25" y1="212.801" x2="308.25" y2="248.832" gradientUnits="userSpaceOnUse">
<stop stop-color="#18A886"/>
<stop offset="1" stop-color="#2BAAB9"/>
</linearGradient>
<linearGradient id="paint2_linear_17_8190" x1="155.486" y1="110.097" x2="155.486" y2="145.719" gradientUnits="userSpaceOnUse">
<stop stop-color="#DFF3EE"/>
<stop offset="1" stop-color="#E1F7F8"/>
</linearGradient>
<linearGradient id="paint3_linear_17_8190" x1="155.43" y1="0" x2="155.43" y2="46.8614" gradientUnits="userSpaceOnUse">
<stop stop-color="#18A886"/>
<stop offset="1" stop-color="#2BAAB9"/>
</linearGradient>
<linearGradient id="paint4_linear_17_8190" x1="240.967" y1="98.8223" x2="240.967" y2="162.475" gradientUnits="userSpaceOnUse">
<stop stop-color="#18A886"/>
<stop offset="1" stop-color="#2BAAB9"/>
</linearGradient>
<linearGradient id="paint5_linear_17_8190" x1="266" y1="99.4746" x2="266" y2="162.475" gradientUnits="userSpaceOnUse">
<stop stop-color="#18A886"/>
<stop offset="1" stop-color="#2BAAB9"/>
</linearGradient>
</defs>
</svg>
