<svg width="375" height="184" viewBox="0 0 375 184" fill="none" xmlns="http://www.w3.org/2000/svg">
<path d="M349.582 137.463C349.582 128.371 342.211 121 333.119 121C324.027 121 316.656 128.371 316.656 137.463V147.392C316.656 156.484 324.027 163.855 333.119 163.855C342.211 163.855 349.582 156.484 349.582 147.392V137.463Z" fill="url(#paint0_linear_23_8182)"/>
<path d="M340.312 142.427C340.312 146.415 337.085 149.638 333.101 149.638" stroke="#88D3BF" stroke-miterlimit="10"/>
<path d="M333.115 134.335V182.444" stroke="#88D3BF" stroke-miterlimit="10"/>
<path d="M329.448 156.041C329.448 148.738 323.528 142.817 316.224 142.817C308.921 142.817 303 148.738 303 156.041C303 163.345 308.921 169.265 316.224 169.265C323.528 169.265 329.448 163.345 329.448 156.041Z" fill="url(#paint1_linear_23_8182)"/>
<path d="M316.226 154.403V182.244" stroke="#88D3BF" stroke-miterlimit="10"/>
<path d="M319.293 156.018C319.293 157.714 317.922 159.089 316.222 159.089" stroke="#88D3BF" stroke-miterlimit="10"/>
<path d="M54.2435 172.547C10.8301 172.547 38.6604 95 54.2435 95C69.8265 95 97.67 172.547 54.2435 172.547Z" fill="url(#paint2_linear_23_8182)"/>
<path d="M54.1953 108.974V181.677" stroke="#88D3BF" stroke-miterlimit="10"/>
<path d="M45.6172 119.499C45.6172 124.255 49.4658 128.103 54.2218 128.103" stroke="#88D3BF" stroke-miterlimit="10"/>
<path d="M54.2217 151.704C58.9777 151.704 62.8264 147.855 62.8264 143.099V136.112" stroke="#88D3BF" stroke-miterlimit="10"/>
<path d="M233.937 70.6277V31.0696C233.937 27.6266 233.108 24.2007 231.155 21.3652C217.349 1.32226 189.956 -11.9043 165.609 20.9436C163.316 24.0359 162.241 27.865 162.241 31.7142V70.6277" stroke="#282828" stroke-width="0.5"/>
<path d="M287.709 182.033L280.539 44.0178H144.316V182.033H287.709Z" fill="url(#paint3_linear_23_8182)"/>
<path d="M144.316 182.033V44.0178H131.77L119.223 182.033H144.316Z" fill="#25836D"/>
<path d="M248.276 70.6277V31.0696C248.276 27.6266 247.447 24.2007 245.494 21.3652C231.689 1.32226 204.295 -11.9043 179.948 20.9436C177.656 24.0359 176.58 27.865 176.58 31.7142V70.6277" stroke="#282828" stroke-width="0.5"/>
<path d="M231.255 181.79V148.212H285.271V181.79H231.255Z" fill="white" stroke="black" stroke-width="0.5"/>
<path d="M298.411 148.212H285.271V181.79H298.411V148.212Z" fill="white" stroke="black" stroke-width="0.5"/>
<path d="M258.993 148.212V181.06" stroke="#282828" stroke-width="0.5"/>
<path d="M259.723 148.212H242.705C241.888 148.212 241.053 148.282 240.34 148.681C239.615 149.087 238.808 149.747 238.272 150.719C237.878 151.435 237.824 152.275 237.824 153.093V158.451C237.824 158.924 237.802 159.399 237.675 159.855C237.144 161.752 235.37 164.918 231.255 166.461" stroke="#282828" stroke-width="0.5"/>
<path d="M264.275 135.231C264.691 137.517 264.503 139.897 263.591 142.02C262.745 143.994 261.549 145.866 260.561 147.247C260.068 147.937 259.628 148.503 259.312 148.897C259.185 149.054 259.078 149.184 258.995 149.283C258.96 149.239 258.919 149.188 258.874 149.132C258.677 148.884 258.395 148.521 258.062 148.061C257.393 147.142 256.515 145.836 255.675 144.295C253.743 140.752 253.025 136.527 254.361 132.756C254.875 131.303 255.568 130.113 256.368 129.29C257.168 128.468 258.062 128.023 258.993 128.023C260.166 128.023 261.286 128.733 262.223 130.011C263.159 131.287 263.888 133.102 264.275 135.231Z" stroke="#282828" stroke-width="0.5"/>
<path d="M272.593 142.269C271.34 144.226 269.581 145.84 267.468 146.774C265.504 147.642 263.353 148.198 261.689 148.538C260.858 148.707 260.15 148.822 259.651 148.894C259.45 148.923 259.284 148.945 259.156 148.961C259.16 148.904 259.165 148.84 259.17 148.768C259.194 148.452 259.236 147.995 259.304 147.431C259.442 146.302 259.687 144.749 260.122 143.048C261.12 139.137 263.473 135.555 267.019 133.704C268.385 132.991 269.703 132.591 270.85 132.534C271.995 132.476 272.953 132.76 273.634 133.394C274.493 134.193 274.83 135.475 274.646 137.049C274.462 138.621 273.759 140.446 272.593 142.269Z" stroke="#282828" stroke-width="0.5"/>
<path d="M254.847 134.077C256.55 135.657 257.826 137.675 258.369 139.92C258.875 142.008 259.04 144.223 259.078 145.921C259.097 146.769 259.084 147.486 259.066 147.99C259.059 148.192 259.051 148.36 259.045 148.489C258.989 148.475 258.927 148.459 258.857 148.44C258.55 148.36 258.108 148.238 257.565 148.071C256.479 147.735 254.994 147.217 253.397 146.487C249.726 144.81 246.619 141.858 245.428 138.04C244.968 136.568 244.809 135.2 244.957 134.062C245.104 132.925 245.553 132.032 246.298 131.474C247.237 130.771 248.559 130.667 250.075 131.129C251.589 131.589 253.26 132.605 254.847 134.077Z" stroke="#282828" stroke-width="0.5"/>
<rect x="90.3301" y="105.957" width="117.218" height="76.0891" rx="4" fill="#282828"/>
<path d="M98.5557 116.739C98.5557 116.463 98.7795 116.239 99.0557 116.239H102.125V118.618H98.5557V116.739Z" fill="white"/>
<path d="M98.5557 119.808H102.125V122.187H98.5557V119.808Z" fill="white"/>
<path d="M98.5557 123.377H102.125V125.756H98.5557V123.377Z" fill="white"/>
<path d="M98.5557 126.946H102.125V129.325H99.0557C98.7795 129.325 98.5557 129.102 98.5557 128.825V126.946Z" fill="white"/>
<path d="M103.314 119.808H105.694V122.187H103.314V119.808Z" fill="white"/>
<path d="M103.314 123.377H105.694V125.756H103.314V123.377Z" fill="white"/>
<path d="M103.314 126.946H105.694V129.325H103.314V126.946Z" fill="white"/>
<path d="M106.884 119.808H111.643V122.187H106.884V119.808Z" fill="white"/>
<path d="M106.884 123.377H111.643V125.756H106.884V123.377Z" fill="white"/>
<path d="M106.884 126.946H111.643V128.825C111.643 129.102 111.419 129.325 111.143 129.325H106.884V126.946Z" fill="white"/>
<path d="M103.314 116.239H111.142C111.418 116.239 111.642 116.463 111.642 116.739V118.618H103.314V116.239Z" fill="white"/>
<path d="M80.1489 181.8V177.341H106.949V181.8H80.1489Z" fill="white" stroke="black" stroke-width="0.5"/>
<path d="M80.1489 176.841V172.382H106.949V176.841H80.1489Z" fill="white" stroke="black" stroke-width="0.5"/>
<path d="M77.0181 171.883V167.424H103.819V171.883H77.0181Z" fill="white" stroke="black" stroke-width="0.5"/>
<path d="M81.8237 166.923V162.465H108.624V166.923H81.8237Z" fill="white" stroke="black" stroke-width="0.5"/>
<path d="M80.1489 161.965V157.506H106.949V161.965H80.1489Z" fill="white" stroke="black" stroke-width="0.5"/>
<path d="M375 182H0V184H375V182Z" fill="#94918C"/>
<defs>
<linearGradient id="paint0_linear_23_8182" x1="333.119" y1="121" x2="333.119" y2="163.855" gradientUnits="userSpaceOnUse">
<stop stop-color="#DFF3EE"/>
<stop offset="1" stop-color="#E1F7F8"/>
</linearGradient>
<linearGradient id="paint1_linear_23_8182" x1="316.224" y1="142.817" x2="316.224" y2="169.265" gradientUnits="userSpaceOnUse">
<stop stop-color="#DFF3EE"/>
<stop offset="1" stop-color="#E1F7F8"/>
</linearGradient>
<linearGradient id="paint2_linear_23_8182" x1="54.2463" y1="95" x2="54.2463" y2="172.547" gradientUnits="userSpaceOnUse">
<stop stop-color="#DFF3EE"/>
<stop offset="1" stop-color="#E1F7F8"/>
</linearGradient>
<linearGradient id="paint3_linear_23_8182" x1="216.013" y1="44.0178" x2="216.013" y2="182.033" gradientUnits="userSpaceOnUse">
<stop stop-color="#18A886"/>
<stop offset="1" stop-color="#2BAAB9"/>
</linearGradient>
</defs>
</svg>
