<svg width="375" height="241" viewBox="0 0 375 241" fill="none" xmlns="http://www.w3.org/2000/svg">
<path fill-rule="evenodd" clip-rule="evenodd" d="M201.067 1.46804C109.537 -10.276 101.876 52.107 58.8836 58.634C42.8626 61.067 25.86 44.2412 0 53.0182L0 154.422C24.49 155.591 39.1186 158.672 55.8116 169.701C96.7136 196.723 168.521 266.807 252.967 229.425C302.459 207.517 342.077 176.332 375 147.009V10.5555C361.98 15.4515 355.055 30.784 315.4 30.784C256.768 30.784 270.095 10.325 201.067 1.46804Z" fill="#F0F0F0"/>
<path fill-rule="evenodd" clip-rule="evenodd" d="M215.182 180.66L177.8 180.508C166.608 180.463 157.573 171.354 157.618 160.162L158.126 34.6997C158.171 23.5077 167.281 14.4727 178.472 14.5177L215.855 14.6687C227.046 14.7147 236.082 23.8237 236.037 35.0147L235.529 160.478C235.483 171.67 226.374 180.705 215.182 180.66" fill="#686868"/>
<path fill-rule="evenodd" clip-rule="evenodd" d="M215.593 180.559H165.394C157.741 180.559 151.537 174.356 151.537 166.703V28.4229C151.537 20.7699 157.741 13.7529 165.394 13.7529H215.593C223.245 13.7529 229.449 20.7699 229.449 28.4229V166.703C229.449 174.356 223.245 180.559 215.593 180.559" fill="white"/>
<path fill-rule="evenodd" clip-rule="evenodd" d="M177.129 21.5361C177.249 22.3301 176.703 23.0721 175.909 23.1921C175.115 23.3131 174.373 22.7661 174.253 21.9731C174.132 21.1781 174.679 20.4371 175.473 20.3161C176.267 20.1961 177.008 20.7421 177.129 21.5361ZM202.832 21.6515C202.952 22.4455 202.406 23.1875 201.612 23.3075C200.818 23.4285 200.077 22.8825 199.956 22.0885C199.836 21.2935 200.382 20.5525 201.176 20.4315C201.97 20.3115 202.712 20.8575 202.832 21.6515ZM181.105 22.4351L196.555 22.6501C196.89 22.6551 197.165 22.3871 197.17 22.0531C197.174 21.7181 196.907 21.4431 196.573 21.4381L181.121 21.2231C180.786 21.2191 180.512 21.4861 180.507 21.8211C180.502 22.1561 180.77 22.4311 181.105 22.4351Z" fill="#BCBCBC"/>
<path fill-rule="evenodd" clip-rule="evenodd" d="M152.466 98.1414L152.184 130.118C152.184 130.118 154.908 136.129 155.876 137.671C158.419 141.722 159.549 147.561 152.343 149.39V154.446C152.343 154.446 154.281 157.091 153.222 159.55L152.163 162.01L152.343 165.749C152.343 165.749 146.391 163.027 146.006 162.988C145.622 162.948 145.629 163.024 143.985 163.333C142.34 163.642 140.207 163.617 136.378 158.58C132.55 153.543 127.701 147.386 127.701 147.386C127.701 147.386 125.09 143.145 127.025 140.297C128.959 137.45 131.781 135.126 134.012 135.37L128.796 126.965C128.796 126.965 126.414 121.942 129.807 118.422C133.199 114.902 135.067 113.735 138.133 113.975C138.133 113.975 138.747 111.634 139.83 108.639C140.914 105.644 144.77 96.6024 148.697 94.7054C152.625 92.8084 152.299 96.5684 152.299 96.5684L152.466 98.1414Z" fill="#F9D8C9"/>
<mask id="mask0_862_19665" style="mask-type:luminance" maskUnits="userSpaceOnUse" x="0" y="0" width="375" height="241">
<path fill-rule="evenodd" clip-rule="evenodd" d="M179.301 0C107.956 0.005 98.191 52.667 58.884 58.635C52.068 59.67 43.085 57.431 33.021 55.19C19.426 52.166 14.859 46.9248 0 51.9678L0 154.422C24.491 155.592 39.118 158.672 55.812 169.701C96.714 196.723 168.52 266.807 252.967 229.425C302.458 207.517 342.076 176.332 375 147.009V10.5554C361.98 15.4514 355.055 30.784 315.399 30.784C256.768 30.784 270.095 10.324 201.067 1.468C193.235 0.463 186.012 0.001 179.333 0" fill="white"/>
</mask>
<g mask="url(#mask0_862_19665)">
<path fill-rule="evenodd" clip-rule="evenodd" d="M259.727 226.251L252.153 213.829C252.153 213.829 260.03 162.623 259.727 157.17C259.424 151.716 254.273 104.449 253.667 95.3596C253.061 86.2696 254.273 80.5126 254.273 80.5126C254.273 80.5126 256.394 72.3326 248.213 73.5446C240.033 74.7566 231.852 93.2386 232.458 107.782C233.064 122.326 236.94 135.96 232.426 142.323C227.914 148.686 214.303 163.172 211.879 179.534L160.931 179.814C160.931 179.814 170.714 190.543 173.981 202.012C178.05 216.297 196.828 242.286 196.828 242.286C196.828 242.286 246.092 242.007 259.727 226.251" fill="#F9D8C9"/>
</g>
<path d="M212.5 87.307C212.5 95.8642 210.117 103.589 206.291 109.161C202.463 114.736 197.225 118.114 191.5 118.114C185.775 118.114 180.537 114.736 176.709 109.161C172.883 103.589 170.5 95.8642 170.5 87.307C170.5 78.7498 172.883 71.0247 176.709 65.4527C180.537 59.8784 185.775 56.5 191.5 56.5C197.225 56.5 202.463 59.8784 206.291 65.4527C210.117 71.0247 212.5 78.7498 212.5 87.307Z" fill="white" stroke="#18A886"/>
<path d="M177.544 110.693L187.351 106.544H195.649L205.456 110.693C201.231 117.03 194.14 118.363 191.123 118.237C183.277 117.935 178.801 113.082 177.544 110.693Z" fill="#265954"/>
<path d="M187.351 99.7544H195.649V104.281H187.351V99.7544Z" fill="#F3D6C0"/>
<path d="M187.351 104.281H195.649V106.544H187.351V104.281Z" fill="#265954"/>
<ellipse cx="191.5" cy="89.5702" rx="10.9386" ry="12.4474" fill="#F3D6C0"/>
<path d="M183.462 88.1008C181.652 90.5149 181.19 93.845 181.693 95.228C178.675 89.1929 180.184 82.4034 186.596 78.2543C197.535 73.728 202.815 84.2894 202.438 89.5701C202.136 88.3631 201.065 88.1008 200.436 88.1008C199.229 85.0833 196.413 84.0774 195.155 83.9517C193.646 88.7798 186.731 88.7295 183.462 88.1008Z" fill="black"/>
<path d="M201.307 95.2281C201.91 94.0211 202.061 92.965 202.061 92.5878C201.76 93.493 201.307 94.0965 200.93 94.0965L201.307 95.2281Z" fill="black"/>
</svg>
