<svg width="24" height="24" viewBox="0 0 24 24" fill="none" xmlns="http://www.w3.org/2000/svg">
<path fill-rule="evenodd" clip-rule="evenodd" d="M13.2995 4.75286C12.7223 3.7523 11.2782 3.7523 10.701 4.75286L3.34665 17.5004C2.76973 18.5004 3.49145 19.7499 4.64593 19.7499H19.3546C20.5091 19.7499 21.2308 18.5004 20.6539 17.5004L13.2995 4.75286ZM9.4017 4.00327C10.5562 2.00216 13.4443 2.00216 14.5988 4.00327L21.9531 16.7508C23.107 18.7508 21.6636 21.2499 19.3546 21.2499H4.64593C2.33696 21.2499 0.89353 18.7508 2.04738 16.7508L9.4017 4.00327ZM12.0003 9.24994C12.4145 9.24994 12.7503 9.58573 12.7503 9.99994V13.7499C12.7503 14.1642 12.4145 14.4999 12.0003 14.4999C11.586 14.4999 11.2503 14.1642 11.2503 13.7499V9.99994C11.2503 9.58573 11.586 9.24994 12.0003 9.24994ZM11.2503 16.7499C11.2503 16.3357 11.586 15.9999 12.0003 15.9999H12.0078C12.422 15.9999 12.7578 16.3357 12.7578 16.7499V16.7574C12.7578 17.1717 12.422 17.5074 12.0078 17.5074H12.0003C11.586 17.5074 11.2503 17.1717 11.2503 16.7574V16.7499Z" fill="#017F96"/>
</svg>
