<svg width="24" height="24" viewBox="0 0 24 24" fill="none" xmlns="http://www.w3.org/2000/svg">
<path d="M19.5 10.1667V14.8333M18.3333 13.7374L18.6752 13.9937C19.1306 14.3356 19.8691 14.3356 20.3248 13.9937C20.7806 13.6519 20.7806 13.0981 20.3248 12.7563C20.0973 12.5852 19.7987 12.5 19.5 12.5C19.2181 12.5 18.9361 12.4144 18.7211 12.2437C18.2909 11.9019 18.2909 11.3481 18.7211 11.0063C19.1512 10.6644 19.8488 10.6644 20.2789 11.0063L20.4403 11.1346M23 12.5C23 12.9596 22.9095 13.4148 22.7336 13.8394C22.5577 14.264 22.2999 14.6499 21.9749 14.9749C21.6499 15.2999 21.264 15.5577 20.8394 15.7336C20.4148 15.9095 19.9596 16 19.5 16C19.0404 16 18.5852 15.9095 18.1606 15.7336C17.736 15.5577 17.3501 15.2999 17.0251 14.9749C16.7001 14.6499 16.4423 14.264 16.2664 13.8394C16.0905 13.4148 16 12.9596 16 12.5C16 11.5717 16.3687 10.6815 17.0251 10.0251C17.6815 9.36875 18.5717 9 19.5 9C20.4283 9 21.3185 9.36875 21.9749 10.0251C22.6313 10.6815 23 11.5717 23 12.5Z" stroke="#017F96" stroke-width="0.8" stroke-linecap="round" stroke-linejoin="round"/>
<mask id="mask0_1100_19105" style="mask-type:alpha" maskUnits="userSpaceOnUse" x="1" y="4" width="17" height="17">
<path fill-rule="evenodd" clip-rule="evenodd" d="M17.0739 8.63779C15.6137 9.31043 14.6 10.7868 14.6 12.5C14.6 14.2132 15.6137 15.6896 17.0739 16.3622C15.6673 19.1152 12.8037 21 9.5 21C4.80558 21 1 17.1944 1 12.5C1 7.80558 4.80558 4 9.5 4C12.8037 4 15.6673 5.88481 17.0739 8.63779Z" fill="#D9D9D9"/>
</mask>
<g mask="url(#mask0_1100_19105)">
<path d="M9.50002 20.1501C11.1958 20.15 12.8435 19.5867 14.1844 18.5487C15.5253 17.5107 16.4836 16.0568 16.9086 14.4151M9.50002 20.1501C7.80428 20.15 6.15658 19.5867 4.81565 18.5487C3.47472 17.5107 2.51649 16.0568 2.09142 14.4151M9.50002 20.1501C11.6123 20.1501 13.325 16.7246 13.325 12.5001C13.325 8.2756 11.6123 4.8501 9.50002 4.8501M9.50002 20.1501C7.38777 20.1501 5.67502 16.7246 5.67502 12.5001C5.67502 8.2756 7.38777 4.8501 9.50002 4.8501M16.9086 14.4151C17.0659 13.8031 17.15 13.1614 17.15 12.5001C17.1521 11.1844 16.8133 9.89059 16.1666 8.7448M16.9086 14.4151C14.6418 15.6718 12.0918 16.3292 9.50002 16.3251C6.81232 16.3251 4.28697 15.6323 2.09142 14.4151M2.09142 14.4151C1.93056 13.7895 1.84945 13.1461 1.85002 12.5001C1.85002 11.1358 2.20702 9.85405 2.83347 8.7448M9.50002 4.8501C10.8568 4.84953 12.1894 5.20995 13.3609 5.89438C14.5324 6.5788 15.5008 7.56259 16.1666 8.7448M9.50002 4.8501C8.14322 4.84953 6.81069 5.20995 5.63916 5.89438C4.46763 6.5788 3.49928 7.56259 2.83347 8.7448M16.1666 8.7448C14.3158 10.3478 11.9485 11.2286 9.50002 11.2251C6.95172 11.2251 4.62102 10.2901 2.83347 8.7448" stroke="#017F96" stroke-width="1.2" stroke-linecap="round" stroke-linejoin="round"/>
</g>
</svg>
