<svg width="24" height="24" viewBox="0 0 24 24" fill="none" xmlns="http://www.w3.org/2000/svg">
<g clip-path="url(#clip0_1100_19101)">
<path fill-rule="evenodd" clip-rule="evenodd" d="M10.0077 6.13333C10.0077 5.86333 10.2245 5.64444 10.492 5.64444H11.3869C11.9355 5.64444 12.4156 6.01671 12.557 6.55174L12.7064 7.11715C12.9365 7.11313 13.1671 7.11111 13.3982 7.11111C16.7588 7.11111 20.0215 7.5377 23.1355 8.34039C23.266 8.37403 23.3767 8.46098 23.4411 8.58038C23.5055 8.69978 23.5177 8.84084 23.4748 8.96971C22.9359 10.5894 22.2961 12.1623 21.563 13.6808C21.4819 13.8489 21.3128 13.9556 21.1276 13.9556H13.8826C13.2499 13.9556 12.7117 14.3637 12.5122 14.9333H22.1168C22.3843 14.9333 22.6012 15.1522 22.6012 15.4222C22.6012 15.6922 22.3843 15.9111 22.1168 15.9111H11.9451C11.6776 15.9111 11.4608 15.6922 11.4608 15.4222C11.4608 14.2848 12.2304 13.3288 13.2728 13.0559L11.621 6.80368C11.5927 6.69668 11.4967 6.62222 11.3869 6.62222H10.492C10.2245 6.62222 10.0077 6.40334 10.0077 6.13333ZM12.9637 8.09133L14.2547 12.9778H20.8235C21.409 11.7402 21.9312 10.4662 22.3857 9.16008C19.5037 8.4599 16.4942 8.08889 13.3982 8.08889C13.2532 8.08889 13.1084 8.0897 12.9637 8.09133ZM11.4608 17.3778C11.4608 16.8378 11.8945 16.4 12.4295 16.4C12.9645 16.4 13.3982 16.8378 13.3982 17.3778C13.3982 17.9178 12.9645 18.3556 12.4295 18.3556C11.8945 18.3556 11.4608 17.9178 11.4608 17.3778ZM19.695 17.3778C19.695 16.8378 20.1287 16.4 20.6637 16.4C21.1987 16.4 21.6325 16.8378 21.6325 17.3778C21.6325 17.9178 21.1987 18.3556 20.6637 18.3556C20.1287 18.3556 19.695 17.9178 19.695 17.3778Z" fill="#18a886"/>
<path d="M5.4062 1C4.63543 1 3.89622 1.30905 3.35121 1.85915C2.80619 2.40926 2.5 3.15536 2.5 3.93333V20.0667C2.5 20.8446 2.80619 21.5907 3.35121 22.1408C3.89622 22.691 4.63543 23 5.4062 23H12.6717C13.4425 23 14.1817 22.691 14.7267 22.1408C15.2717 21.5907 15.5779 20.8446 15.5779 20.0667V18.8444H14.1248V20.0667C14.1248 20.4557 13.9717 20.8287 13.6992 21.1038C13.4267 21.3788 13.0571 21.5333 12.6717 21.5333H5.4062C5.02081 21.5333 4.65121 21.3788 4.3787 21.1038C4.10619 20.8287 3.9531 20.4557 3.9531 20.0667V3.93333C3.9531 3.54435 4.10619 3.1713 4.3787 2.89624C4.65121 2.62119 5.02081 2.46667 5.4062 2.46667H6.85929V3.2C6.85929 3.60501 7.18458 3.93333 7.58584 3.93333H10.492C10.8933 3.93333 11.2186 3.60501 11.2186 3.2V2.46667H12.6717C13.0571 2.46667 13.4267 2.62119 13.6992 2.89624C13.9717 3.1713 14.1248 3.54435 14.1248 3.93333V5.15556H15.5779V3.93333C15.5779 3.15536 15.2717 2.40926 14.7267 1.85915C14.1817 1.30905 13.4425 1 12.6717 1H5.4062Z" fill="#18a886"/>
<path d="M7.58584 19.3333C7.18458 19.3333 6.85929 19.6617 6.85929 20.0667C6.85929 20.4717 7.18458 20.8 7.58584 20.8H10.492C10.8933 20.8 11.2186 20.4717 11.2186 20.0667C11.2186 19.6617 10.8933 19.3333 10.492 19.3333H7.58584Z" fill="#18a886"/>
</g>
<defs>
<clipPath id="clip0_1100_19101">
<rect width="24" height="24" fill="white"/>
</clipPath>
</defs>
</svg>
