<svg width="38" height="24" viewBox="0 0 38 24" fill="none" xmlns="http://www.w3.org/2000/svg">
<path d="M15.0557 15.1158L13.3629 14.1193L13.0387 14.2033L13.2308 14.9717L11.502 17.613L12.4504 18.3094L11.574 19.642C14.4794 19.57 16.9527 17.7211 17.9612 15.1518L17.0487 14.5995L15.0677 15.1038L15.0557 15.1158Z" fill="#E60028"/>
<path d="M7.83876 13.7229L7.75473 12.1621L9.07538 11.0095L10.288 11.7539L10.4921 11.7059L10.6962 9.00451L7.62266 6.62732C5.64167 7.87594 4.33301 10.0851 4.33301 12.5943C4.33301 12.9305 4.35702 13.2546 4.40504 13.5788L6.66218 13.1106L7.85078 13.7229H7.83876Z" fill="#E60028"/>
<path d="M14.9346 8.39233L14.8266 10.0492L16.2193 9.86908L17.2758 10.8296L18.1883 10.7695C17.636 8.70449 16.1592 7.01165 14.2383 6.14722L14.3463 7.82805L14.9346 8.38033V8.39233Z" fill="#E60028"/>
<path d="M37.0018 12.6065C37.0018 9.61701 35.8612 6.90365 33.9882 4.87463L32.8837 5.18679C34.8046 7.08374 36.0053 9.71306 36.0053 12.6065C36.0053 16.3764 34.0003 19.666 30.9988 21.5029L31.2989 19.0297L30.3024 18.9097L29.7861 23.2078L34.0483 23.7241L34.1683 22.7276L31.491 22.4034C34.8047 20.3984 37.0258 16.7726 37.0258 12.6185L37.0018 12.6065Z" fill="#E60028"/>
<path d="M19.2816 20.9024C21.4787 18.8134 22.8594 15.8719 22.8594 12.5943C22.8594 9.31666 21.4787 6.37519 19.2816 4.28614C21.0345 2.95348 23.2076 2.16108 25.5728 2.16108C27.5178 2.16108 29.3307 2.70135 30.8794 3.62581L28.3342 4.34618L28.6103 5.31866L32.7764 4.14207L31.6118 0L30.6393 0.276138L31.3237 2.70135C29.6308 1.71686 27.6738 1.14057 25.5728 1.14057C22.8955 1.14057 20.4462 2.06503 18.5013 3.58979C16.5563 2.05302 14.0951 1.14057 11.4297 1.14057C5.11456 1.14057 0 6.25513 0 12.5703C0 18.8854 5.11456 24 11.4297 24C14.1071 24 16.5563 23.0755 18.5013 21.5508C20.4462 23.0875 22.9075 24 25.5728 24C26.6533 24 27.7099 23.8439 28.7064 23.5678L28.8384 22.4752C27.8059 22.8114 26.7134 23.0035 25.5728 23.0035C23.2076 23.0035 21.0345 22.2111 19.2816 20.8784V20.9024ZM11.3817 20.6503C6.92748 20.6503 3.32567 17.0365 3.32567 12.5943C3.32567 8.15207 6.93948 4.53827 11.3817 4.53827C15.8239 4.53827 19.4377 8.15207 19.4377 12.5943C19.4377 17.0365 15.8239 20.6503 11.3817 20.6503Z" fill="#E60028"/>
<path d="M18.3796 11.7661L16.9148 11.8621L15.8823 10.9257L13.7332 11.2018L13.8893 8.78861L13.3611 8.29636L13.193 5.78711C12.6167 5.63104 12.0044 5.547 11.3681 5.547C10.3836 5.547 9.44711 5.75109 8.59468 6.12328L11.7282 8.5485L11.4281 12.5585L10.0834 12.8346L9.15896 12.2704L8.77476 12.6185L8.85881 14.1913L8.0184 14.9837L6.49363 14.1913L4.59668 14.5875C5.36506 17.2168 7.6222 19.2098 10.3836 19.594L11.0559 18.5615L10.1074 17.8651L12.1124 14.7916L11.8003 13.495L13.4811 13.0387L15.186 14.0472L17.179 13.543L18.2355 14.1793C18.3556 13.6751 18.4156 13.1468 18.4156 12.6185C18.4156 12.3424 18.3916 12.0663 18.3676 11.7901L18.3796 11.7661Z" fill="#E60028"/>
</svg>
