<svg width="24" height="24" viewBox="0 0 24 24" fill="none" xmlns="http://www.w3.org/2000/svg">
<path fill-rule="evenodd" clip-rule="evenodd" d="M18.1902 6.08229C19.2189 6.96533 19.9907 8.04833 20.4404 9.2381H22.762L22.2191 14.6667H20.2495C19.7899 15.6664 19.0841 16.5893 18.1902 17.361V21H14.744L13.9496 19.4121C12.7969 19.66 11.7601 19.7053 10.5939 19.5605L9.87457 21H6.42833V18.0532C4.21257 16.5947 2.88618 14.3247 2.82195 11.908C1.78418 11.7027 0.999756 10.787 0.999756 9.69048V6.52381H1.90452V9.69048C1.90452 10.2958 2.30533 10.8033 2.85271 10.978C3.28518 6.96262 7.15666 3.80952 11.8569 3.80952C12.8349 3.80952 13.7985 3.94795 14.7277 4.22119C15.1339 2.92376 16.3472 2 17.7379 2H18.1902V6.08229ZM19.6507 13.7615H21.4024L21.7643 10.1425H19.7946L19.6933 9.83035C19.2988 8.61887 18.5243 7.51687 17.4549 6.64378L17.2884 6.50806V2.95144C16.3719 3.14235 15.6417 3.90144 15.5115 4.86411L15.4373 5.4124L14.9134 5.22963C13.9336 4.88763 12.9067 4.71392 11.8598 4.71392C7.37041 4.71392 3.71699 7.85978 3.71699 11.7258C3.71699 13.9714 4.98999 16.1013 7.12161 17.4204L7.33603 17.5525V20.0949H9.31837L10.0811 18.5694L10.4077 18.6201C11.716 18.8228 12.808 18.7676 14.0901 18.4527L14.4411 18.3659L15.3061 20.0949H17.2884V16.9363L17.4531 16.8006C18.3958 16.0271 19.116 15.0743 19.5358 14.0438L19.6507 13.7615ZM15.4768 9.23842C15.4768 8.73899 15.883 8.33366 16.3815 8.33366C16.88 8.33366 17.2863 8.73899 17.2863 9.23842C17.2863 9.73785 16.88 10.1432 16.3815 10.1432C15.883 10.1432 15.4768 9.73785 15.4768 9.23842ZM16.3821 9.23812H15.9297L16.3821 9.23902V9.23812ZM10.0462 7.72236V6.78231C11.2378 6.44574 12.5044 6.45117 13.6652 6.77869V7.72869C12.5632 7.36227 11.3273 7.32969 10.1783 7.68165L10.0462 7.72236Z" fill="white"/>
<path d="M20.4404 9.2381L20.2065 9.32648L20.2676 9.4881H20.4404V9.2381ZM18.1902 6.08229H17.9402V6.19716L18.0274 6.27198L18.1902 6.08229ZM22.762 9.2381L23.0108 9.26297L23.0382 8.9881H22.762V9.2381ZM22.2191 14.6667V14.9167H22.4454L22.4679 14.6915L22.2191 14.6667ZM20.2495 14.6667V14.4167H20.0892L20.0223 14.5622L20.2495 14.6667ZM18.1902 17.361L18.0269 17.1718L17.9402 17.2466V17.361H18.1902ZM18.1902 21V21.25H18.4402V21H18.1902ZM14.744 21L14.5204 21.1119L14.5895 21.25H14.744V21ZM13.9496 19.4121L14.1732 19.3003L14.0865 19.127L13.897 19.1677L13.9496 19.4121ZM10.5939 19.5605L10.6246 19.3124L10.4492 19.2907L10.3702 19.4488L10.5939 19.5605ZM9.87457 21V21.25H10.0291L10.0982 21.1117L9.87457 21ZM6.42833 21H6.17833V21.25H6.42833V21ZM6.42833 18.0532H6.67833V17.9184L6.56578 17.8444L6.42833 18.0532ZM2.82195 11.908L3.07186 11.9014L3.06655 11.7016L2.87048 11.6628L2.82195 11.908ZM0.999756 6.52381V6.27381H0.749756V6.52381H0.999756ZM1.90452 6.52381H2.15452V6.27381H1.90452V6.52381ZM2.85271 10.978L2.77673 11.2161L3.06848 11.3092L3.10127 11.0047L2.85271 10.978ZM14.7277 4.22119L14.6572 4.46104L14.8929 4.53034L14.9663 4.29589L14.7277 4.22119ZM18.1902 2H18.4402V1.75H18.1902V2ZM21.4024 13.7615V14.0115H21.6286L21.6511 13.7864L21.4024 13.7615ZM19.6507 13.7615V13.5115H19.4826L19.4192 13.6673L19.6507 13.7615ZM21.7643 10.1425L22.013 10.1674L22.0405 9.89249H21.7643V10.1425ZM19.7946 10.1425L19.5568 10.2197L19.6129 10.3925H19.7946V10.1425ZM19.6933 9.83035L19.9311 9.75315L19.931 9.75294L19.6933 9.83035ZM17.4549 6.64378L17.613 6.45012L17.6129 6.45001L17.4549 6.64378ZM17.2884 6.50806H17.0384V6.6268L17.1304 6.70183L17.2884 6.50806ZM17.2884 2.95144H17.5384V2.644L17.2374 2.7067L17.2884 2.95144ZM15.5115 4.86411L15.2637 4.83058L15.2637 4.83059L15.5115 4.86411ZM15.4373 5.4124L15.3549 5.64844L15.644 5.74928L15.685 5.44592L15.4373 5.4124ZM14.9134 5.22963L14.831 5.46567L14.8311 5.46568L14.9134 5.22963ZM7.12161 17.4204L6.99005 17.633L6.99048 17.6333L7.12161 17.4204ZM7.33603 17.5525H7.58603V17.4129L7.46716 17.3396L7.33603 17.5525ZM7.33603 20.0949H7.08603V20.3449H7.33603V20.0949ZM9.31837 20.0949V20.3449H9.47288L9.54197 20.2067L9.31837 20.0949ZM10.0811 18.5694L10.1194 18.3224L9.93908 18.2944L9.85747 18.4576L10.0811 18.5694ZM10.4077 18.6201L10.3694 18.8672L10.3694 18.8672L10.4077 18.6201ZM14.0901 18.4527L14.1497 18.6955L14.1501 18.6954L14.0901 18.4527ZM14.4411 18.3659L14.6647 18.254L14.5752 18.0752L14.3811 18.1232L14.4411 18.3659ZM15.3061 20.0949L15.0825 20.2067L15.1516 20.3449H15.3061V20.0949ZM17.2884 20.0949V20.3449H17.5384V20.0949H17.2884ZM17.2884 16.9363L17.1294 16.7434L17.0384 16.8184V16.9363H17.2884ZM17.4531 16.8006L17.2945 16.6074L17.2941 16.6077L17.4531 16.8006ZM19.5358 14.0438L19.7674 14.1381L19.7674 14.1381L19.5358 14.0438ZM15.9297 9.23812V8.98812L15.9292 9.48812L15.9297 9.23812ZM16.3821 9.23812H16.6321V8.98812H16.3821V9.23812ZM16.3821 9.23902L16.3816 9.48902L16.6321 9.48952V9.23902H16.3821ZM10.0462 6.78231L9.97824 6.54173L9.7962 6.59315V6.78231H10.0462ZM10.0462 7.72236H9.7962V8.06102L10.1198 7.96127L10.0462 7.72236ZM13.6652 6.77869H13.9152V6.58947L13.7331 6.53809L13.6652 6.77869ZM13.6652 7.72869L13.5864 7.96592L13.9152 8.07528V7.72869H13.6652ZM10.1783 7.68165L10.1051 7.44261L10.1047 7.44274L10.1783 7.68165ZM20.6742 9.14971C20.2088 7.91824 19.4115 6.80112 18.3531 5.89259L18.0274 6.27198C19.0264 7.12955 19.7726 8.17842 20.2065 9.32648L20.6742 9.14971ZM22.762 8.9881H20.4404V9.4881H22.762V8.9881ZM22.4679 14.6915L23.0108 9.26297L22.5132 9.21322L21.9704 14.6418L22.4679 14.6915ZM20.2495 14.9167H22.2191V14.4167H20.2495V14.9167ZM18.3536 17.5503C19.2725 16.7569 20.0009 15.8058 20.4766 14.7711L20.0223 14.5622C19.5788 15.5271 18.8958 16.4216 18.0269 17.1718L18.3536 17.5503ZM18.4402 21V17.361H17.9402V21H18.4402ZM14.744 21.25H18.1902V20.75H14.744V21.25ZM13.726 19.524L14.5204 21.1119L14.9676 20.8881L14.1732 19.3003L13.726 19.524ZM10.5631 19.8086C11.757 19.9568 12.8221 19.9104 14.0022 19.6566L13.897 19.1677C12.7718 19.4097 11.7631 19.4537 10.6246 19.3124L10.5631 19.8086ZM10.0982 21.1117L10.8175 19.6723L10.3702 19.4488L9.65093 20.8883L10.0982 21.1117ZM6.42833 21.25H9.87457V20.75H6.42833V21.25ZM6.17833 18.0532V21H6.67833V18.0532H6.17833ZM2.57203 11.9147C2.63867 14.4213 4.01407 16.7634 6.29087 18.262L6.56578 17.8444C4.41107 16.4261 3.1337 14.228 3.07186 11.9014L2.57203 11.9147ZM0.749756 9.69048C0.749756 10.9091 1.6212 11.9253 2.77341 12.1533L2.87048 11.6628C1.94717 11.4801 1.24976 10.665 1.24976 9.69048H0.749756ZM0.749756 6.52381V9.69048H1.24976V6.52381H0.749756ZM1.90452 6.27381H0.999756V6.77381H1.90452V6.27381ZM2.15452 9.69048V6.52381H1.65452V9.69048H2.15452ZM2.92869 10.7398C2.47961 10.5965 2.15452 10.1815 2.15452 9.69048H1.65452C1.65452 10.4101 2.13104 11.0101 2.77673 11.2161L2.92869 10.7398ZM11.8569 3.55952C7.05482 3.55952 3.0529 6.78471 2.60415 10.9512L3.10127 11.0047C3.51747 7.14053 7.2585 4.05952 11.8569 4.05952V3.55952ZM14.7982 3.98135C13.846 3.70132 12.8586 3.55952 11.8569 3.55952V4.05952C12.8112 4.05952 13.7511 4.19458 14.6572 4.46104L14.7982 3.98135ZM17.7379 1.75C16.2353 1.75 14.9272 2.74729 14.4891 4.14649L14.9663 4.29589C15.3407 3.10023 16.4592 2.25 17.7379 2.25V1.75ZM18.1902 1.75H17.7379V2.25H18.1902V1.75ZM18.4402 6.08229V2H17.9402V6.08229H18.4402ZM21.4024 13.5115H19.6507V14.0115H21.4024V13.5115ZM21.5155 10.1176L21.1536 13.7367L21.6511 13.7864L22.013 10.1674L21.5155 10.1176ZM19.7946 10.3925H21.7643V9.89249H19.7946V10.3925ZM19.4555 9.90754L19.5568 10.2197L20.0324 10.0653L19.9311 9.75315L19.4555 9.90754ZM17.2968 6.83743C18.3324 7.68289 19.0772 8.74573 19.4556 9.90775L19.931 9.75294C19.5204 8.49201 18.7163 7.35085 17.613 6.45012L17.2968 6.83743ZM17.1304 6.70183L17.2969 6.83755L17.6129 6.45001L17.4464 6.31429L17.1304 6.70183ZM17.0384 2.95144V6.50806H17.5384V2.95144H17.0384ZM15.7592 4.89764C15.8751 4.04142 16.5251 3.36579 17.3394 3.19619L17.2374 2.7067C16.2187 2.9189 15.4084 3.76146 15.2637 4.83058L15.7592 4.89764ZM15.685 5.44592L15.7592 4.89763L15.2637 4.83059L15.1895 5.37887L15.685 5.44592ZM14.8311 5.46568L15.3549 5.64844L15.5196 5.17635L14.9958 4.99359L14.8311 5.46568ZM11.8598 4.96392C12.8788 4.96392 13.8778 5.13297 14.831 5.46567L14.9958 4.9936C13.9893 4.6423 12.9345 4.46392 11.8598 4.46392V4.96392ZM3.96699 11.7258C3.96699 8.03163 7.47209 4.96392 11.8598 4.96392V4.46392C7.26874 4.46392 3.46699 7.68793 3.46699 11.7258H3.96699ZM7.25316 17.2078C5.18501 15.9279 3.96699 13.8735 3.96699 11.7258H3.46699C3.46699 14.0694 4.79496 16.2746 6.99005 17.633L7.25316 17.2078ZM7.46716 17.3396L7.25273 17.2075L6.99048 17.6333L7.20491 17.7653L7.46716 17.3396ZM7.58603 20.0949V17.5525H7.08603V20.0949H7.58603ZM9.31837 19.8449H7.33603V20.3449H9.31837V19.8449ZM9.85747 18.4576L9.09476 19.9831L9.54197 20.2067L10.3047 18.6812L9.85747 18.4576ZM10.446 18.3731L10.1194 18.3224L10.0428 18.8165L10.3694 18.8672L10.446 18.3731ZM14.0305 18.2099C12.7794 18.5172 11.7207 18.5705 10.446 18.3731L10.3694 18.8672C11.7113 19.075 12.8366 19.018 14.1497 18.6955L14.0305 18.2099ZM14.3811 18.1232L14.03 18.21L14.1501 18.6954L14.5012 18.6086L14.3811 18.1232ZM15.5297 19.983L14.6647 18.254L14.2175 18.4777L15.0825 20.2067L15.5297 19.983ZM17.2884 19.8449H15.3061V20.3449H17.2884V19.8449ZM17.0384 16.9363V20.0949H17.5384V16.9363H17.0384ZM17.2941 16.6077L17.1294 16.7434L17.4474 17.1293L17.6121 16.9936L17.2941 16.6077ZM19.3043 13.9495C18.9017 14.9378 18.2083 15.8576 17.2945 16.6074L17.6117 16.9939C18.5834 16.1966 19.3304 15.2109 19.7674 14.1381L19.3043 13.9495ZM19.4192 13.6673L19.3043 13.9496L19.7674 14.1381L19.8823 13.8558L19.4192 13.6673ZM16.3815 8.08366C15.7451 8.08366 15.2268 8.60076 15.2268 9.23842H15.7268C15.7268 8.87723 16.0209 8.58366 16.3815 8.58366V8.08366ZM17.5363 9.23842C17.5363 8.60076 17.0179 8.08366 16.3815 8.08366V8.58366C16.7421 8.58366 17.0363 8.87723 17.0363 9.23842H17.5363ZM16.3815 10.3932C17.0179 10.3932 17.5363 9.87608 17.5363 9.23842H17.0363C17.0363 9.59962 16.7421 9.89318 16.3815 9.89318V10.3932ZM15.2268 9.23842C15.2268 9.87608 15.7451 10.3932 16.3815 10.3932V9.89318C16.0209 9.89318 15.7268 9.59962 15.7268 9.23842H15.2268ZM15.9297 9.48812H16.3821V8.98812H15.9297V9.48812ZM16.3826 8.98902L15.9302 8.98812L15.9292 9.48812L16.3816 9.48902L16.3826 8.98902ZM16.1321 9.23812V9.23902H16.6321V9.23812H16.1321ZM9.7962 6.78231V7.72236H10.2962V6.78231H9.7962ZM13.7331 6.53809C12.5281 6.19808 11.2144 6.19256 9.97824 6.54173L10.1142 7.0229C11.2611 6.69892 12.4808 6.70426 13.5974 7.0193L13.7331 6.53809ZM13.9152 7.72869V6.77869H13.4152V7.72869H13.9152ZM10.2515 7.92068C11.3493 7.58445 12.532 7.61533 13.5864 7.96592L13.7441 7.49146C12.5945 7.1092 11.3054 7.07494 10.1051 7.44261L10.2515 7.92068ZM10.1198 7.96127L10.2519 7.92056L10.1047 7.44274L9.97256 7.48345L10.1198 7.96127Z" fill="white"/>
</svg>
