<svg width="24" height="21" viewBox="0 0 24 21" fill="none" xmlns="http://www.w3.org/2000/svg">
<path fill-rule="evenodd" clip-rule="evenodd" d="M18.1902 5.08229C19.2189 5.96533 19.9907 7.04833 20.4404 8.2381H22.762L22.2191 13.6667H20.2495C19.7899 14.6664 19.0841 15.5893 18.1902 16.361V20H14.744L13.9496 18.4121C12.7969 18.66 11.7601 18.7053 10.5939 18.5605L9.87457 20H6.42833V17.0532C4.21257 15.5947 2.88618 13.3247 2.82195 10.908C1.78418 10.7027 0.999756 9.78705 0.999756 8.69048V5.52381H1.90452V8.69048C1.90452 9.29576 2.30533 9.80333 2.85271 9.97795C3.28518 5.96262 7.15666 2.80952 11.8569 2.80952C12.8349 2.80952 13.7985 2.94795 14.7277 3.22119C15.1339 1.92376 16.3472 1 17.7379 1H18.1902V5.08229ZM19.6507 12.7615H21.4024L21.7643 9.14249H19.7946L19.6933 8.83035C19.2988 7.61887 18.5243 6.51687 17.4549 5.64378L17.2884 5.50806V1.95144C16.3719 2.14235 15.6417 2.90144 15.5115 3.86411L15.4373 4.4124L14.9134 4.22963C13.9336 3.88763 12.9067 3.71392 11.8598 3.71392C7.37041 3.71392 3.71699 6.85978 3.71699 10.7258C3.71699 12.9714 4.98999 15.1013 7.12161 16.4204L7.33603 16.5525V19.0949H9.31837L10.0811 17.5694L10.4077 17.6201C11.716 17.8228 12.808 17.7676 14.0901 17.4527L14.4411 17.3659L15.3061 19.0949H17.2884V15.9363L17.4531 15.8006C18.3958 15.0271 19.116 14.0743 19.5358 13.0438L19.6507 12.7615ZM15.4768 8.23842C15.4768 7.73899 15.883 7.33366 16.3815 7.33366C16.88 7.33366 17.2863 7.73899 17.2863 8.23842C17.2863 8.73785 16.88 9.14318 16.3815 9.14318C15.883 9.14318 15.4768 8.73785 15.4768 8.23842ZM16.3821 8.23812H15.9297L16.3821 8.23902V8.23812ZM10.0462 6.72236V5.78231C11.2378 5.44574 12.5044 5.45117 13.6652 5.77869V6.72869C12.5632 6.36227 11.3273 6.32969 10.1783 6.68165L10.0462 6.72236Z" fill="white"/>
<path d="M20.4404 8.2381L20.2065 8.32648L20.2676 8.4881H20.4404V8.2381ZM18.1902 5.08229H17.9402V5.19716L18.0274 5.27198L18.1902 5.08229ZM22.762 8.2381L23.0108 8.26297L23.0382 7.9881H22.762V8.2381ZM22.2191 13.6667V13.9167H22.4454L22.4679 13.6915L22.2191 13.6667ZM20.2495 13.6667V13.4167H20.0892L20.0223 13.5622L20.2495 13.6667ZM18.1902 16.361L18.0269 16.1718L17.9402 16.2466V16.361H18.1902ZM18.1902 20V20.25H18.4402V20H18.1902ZM14.744 20L14.5204 20.1119L14.5895 20.25H14.744V20ZM13.9496 18.4121L14.1732 18.3003L14.0865 18.127L13.897 18.1677L13.9496 18.4121ZM10.5939 18.5605L10.6246 18.3124L10.4492 18.2907L10.3702 18.4488L10.5939 18.5605ZM9.87457 20V20.25H10.0291L10.0982 20.1117L9.87457 20ZM6.42833 20H6.17833V20.25H6.42833V20ZM6.42833 17.0532H6.67833V16.9184L6.56578 16.8444L6.42833 17.0532ZM2.82195 10.908L3.07186 10.9014L3.06655 10.7016L2.87048 10.6628L2.82195 10.908ZM0.999756 5.52381V5.27381H0.749756V5.52381H0.999756ZM1.90452 5.52381H2.15452V5.27381H1.90452V5.52381ZM2.85271 9.97795L2.77673 10.2161L3.06848 10.3092L3.10127 10.0047L2.85271 9.97795ZM14.7277 3.22119L14.6572 3.46104L14.8929 3.53034L14.9663 3.29589L14.7277 3.22119ZM18.1902 1H18.4402V0.75H18.1902V1ZM21.4024 12.7615V13.0115H21.6286L21.6511 12.7864L21.4024 12.7615ZM19.6507 12.7615V12.5115H19.4826L19.4192 12.6673L19.6507 12.7615ZM21.7643 9.14249L22.013 9.16737L22.0405 8.89249H21.7643V9.14249ZM19.7946 9.14249L19.5568 9.21969L19.6129 9.39249H19.7946V9.14249ZM19.6933 8.83035L19.9311 8.75315L19.931 8.75294L19.6933 8.83035ZM17.4549 5.64378L17.613 5.45012L17.6129 5.45001L17.4549 5.64378ZM17.2884 5.50806H17.0384V5.6268L17.1304 5.70183L17.2884 5.50806ZM17.2884 1.95144H17.5384V1.644L17.2374 1.7067L17.2884 1.95144ZM15.5115 3.86411L15.2637 3.83058L15.2637 3.83059L15.5115 3.86411ZM15.4373 4.4124L15.3549 4.64844L15.644 4.74928L15.685 4.44592L15.4373 4.4124ZM14.9134 4.22963L14.831 4.46567L14.8311 4.46568L14.9134 4.22963ZM7.12161 16.4204L6.99005 16.633L6.99048 16.6333L7.12161 16.4204ZM7.33603 16.5525H7.58603V16.4129L7.46716 16.3396L7.33603 16.5525ZM7.33603 19.0949H7.08603V19.3449H7.33603V19.0949ZM9.31837 19.0949V19.3449H9.47288L9.54197 19.2067L9.31837 19.0949ZM10.0811 17.5694L10.1194 17.3224L9.93908 17.2944L9.85747 17.4576L10.0811 17.5694ZM10.4077 17.6201L10.3694 17.8672L10.3694 17.8672L10.4077 17.6201ZM14.0901 17.4527L14.1497 17.6955L14.1501 17.6954L14.0901 17.4527ZM14.4411 17.3659L14.6647 17.254L14.5752 17.0752L14.3811 17.1232L14.4411 17.3659ZM15.3061 19.0949L15.0825 19.2067L15.1516 19.3449H15.3061V19.0949ZM17.2884 19.0949V19.3449H17.5384V19.0949H17.2884ZM17.2884 15.9363L17.1294 15.7434L17.0384 15.8184V15.9363H17.2884ZM17.4531 15.8006L17.2945 15.6074L17.2941 15.6077L17.4531 15.8006ZM19.5358 13.0438L19.7674 13.1381L19.7674 13.1381L19.5358 13.0438ZM15.9297 8.23812V7.98812L15.9292 8.48812L15.9297 8.23812ZM16.3821 8.23812H16.6321V7.98812H16.3821V8.23812ZM16.3821 8.23902L16.3816 8.48902L16.6321 8.48952V8.23902H16.3821ZM10.0462 5.78231L9.97824 5.54173L9.7962 5.59315V5.78231H10.0462ZM10.0462 6.72236H9.7962V7.06102L10.1198 6.96127L10.0462 6.72236ZM13.6652 5.77869H13.9152V5.58947L13.7331 5.53809L13.6652 5.77869ZM13.6652 6.72869L13.5864 6.96592L13.9152 7.07528V6.72869H13.6652ZM10.1783 6.68165L10.1051 6.44261L10.1047 6.44274L10.1783 6.68165ZM20.6742 8.14971C20.2088 6.91824 19.4115 5.80112 18.3531 4.89259L18.0274 5.27198C19.0264 6.12955 19.7726 7.17842 20.2065 8.32648L20.6742 8.14971ZM22.762 7.9881H20.4404V8.4881H22.762V7.9881ZM22.4679 13.6915L23.0108 8.26297L22.5132 8.21322L21.9704 13.6418L22.4679 13.6915ZM20.2495 13.9167H22.2191V13.4167H20.2495V13.9167ZM18.3536 16.5503C19.2725 15.7569 20.0009 14.8058 20.4766 13.7711L20.0223 13.5622C19.5788 14.5271 18.8958 15.4216 18.0269 16.1718L18.3536 16.5503ZM18.4402 20V16.361H17.9402V20H18.4402ZM14.744 20.25H18.1902V19.75H14.744V20.25ZM13.726 18.524L14.5204 20.1119L14.9676 19.8881L14.1732 18.3003L13.726 18.524ZM10.5631 18.8086C11.757 18.9568 12.8221 18.9104 14.0022 18.6566L13.897 18.1677C12.7718 18.4097 11.7631 18.4537 10.6246 18.3124L10.5631 18.8086ZM10.0982 20.1117L10.8175 18.6723L10.3702 18.4488L9.65093 19.8883L10.0982 20.1117ZM6.42833 20.25H9.87457V19.75H6.42833V20.25ZM6.17833 17.0532V20H6.67833V17.0532H6.17833ZM2.57203 10.9147C2.63867 13.4213 4.01407 15.7634 6.29087 17.262L6.56578 16.8444C4.41107 15.4261 3.1337 13.228 3.07186 10.9014L2.57203 10.9147ZM0.749756 8.69048C0.749756 9.90907 1.6212 10.9253 2.77341 11.1533L2.87048 10.6628C1.94717 10.4801 1.24976 9.66502 1.24976 8.69048H0.749756ZM0.749756 5.52381V8.69048H1.24976V5.52381H0.749756ZM1.90452 5.27381H0.999756V5.77381H1.90452V5.27381ZM2.15452 8.69048V5.52381H1.65452V8.69048H2.15452ZM2.92869 9.73978C2.47961 9.59652 2.15452 9.18145 2.15452 8.69048H1.65452C1.65452 9.41007 2.13104 10.0101 2.77673 10.2161L2.92869 9.73978ZM11.8569 2.55952C7.05482 2.55952 3.0529 5.78471 2.60415 9.95118L3.10127 10.0047C3.51747 6.14053 7.2585 3.05952 11.8569 3.05952V2.55952ZM14.7982 2.98135C13.846 2.70132 12.8586 2.55952 11.8569 2.55952V3.05952C12.8112 3.05952 13.7511 3.19458 14.6572 3.46104L14.7982 2.98135ZM17.7379 0.75C16.2353 0.75 14.9272 1.74729 14.4891 3.14649L14.9663 3.29589C15.3407 2.10023 16.4592 1.25 17.7379 1.25V0.75ZM18.1902 0.75H17.7379V1.25H18.1902V0.75ZM18.4402 5.08229V1H17.9402V5.08229H18.4402ZM21.4024 12.5115H19.6507V13.0115H21.4024V12.5115ZM21.5155 9.11762L21.1536 12.7367L21.6511 12.7864L22.013 9.16737L21.5155 9.11762ZM19.7946 9.39249H21.7643V8.89249H19.7946V9.39249ZM19.4555 8.90754L19.5568 9.21969L20.0324 9.0653L19.9311 8.75315L19.4555 8.90754ZM17.2968 5.83743C18.3324 6.68289 19.0772 7.74573 19.4556 8.90775L19.931 8.75294C19.5204 7.49201 18.7163 6.35085 17.613 5.45012L17.2968 5.83743ZM17.1304 5.70183L17.2969 5.83755L17.6129 5.45001L17.4464 5.31429L17.1304 5.70183ZM17.0384 1.95144V5.50806H17.5384V1.95144H17.0384ZM15.7592 3.89764C15.8751 3.04142 16.5251 2.36579 17.3394 2.19619L17.2374 1.7067C16.2187 1.9189 15.4084 2.76146 15.2637 3.83058L15.7592 3.89764ZM15.685 4.44592L15.7592 3.89763L15.2637 3.83059L15.1895 4.37887L15.685 4.44592ZM14.8311 4.46568L15.3549 4.64844L15.5196 4.17635L14.9958 3.99359L14.8311 4.46568ZM11.8598 3.96392C12.8788 3.96392 13.8778 4.13297 14.831 4.46567L14.9958 3.9936C13.9893 3.6423 12.9345 3.46392 11.8598 3.46392V3.96392ZM3.96699 10.7258C3.96699 7.03163 7.47209 3.96392 11.8598 3.96392V3.46392C7.26874 3.46392 3.46699 6.68793 3.46699 10.7258H3.96699ZM7.25316 16.2078C5.18501 14.9279 3.96699 12.8735 3.96699 10.7258H3.46699C3.46699 13.0694 4.79496 15.2746 6.99005 16.633L7.25316 16.2078ZM7.46716 16.3396L7.25273 16.2075L6.99048 16.6333L7.20491 16.7653L7.46716 16.3396ZM7.58603 19.0949V16.5525H7.08603V19.0949H7.58603ZM9.31837 18.8449H7.33603V19.3449H9.31837V18.8449ZM9.85747 17.4576L9.09476 18.9831L9.54197 19.2067L10.3047 17.6812L9.85747 17.4576ZM10.446 17.3731L10.1194 17.3224L10.0428 17.8165L10.3694 17.8672L10.446 17.3731ZM14.0305 17.2099C12.7794 17.5172 11.7207 17.5705 10.446 17.3731L10.3694 17.8672C11.7113 18.075 12.8366 18.018 14.1497 17.6955L14.0305 17.2099ZM14.3811 17.1232L14.03 17.21L14.1501 17.6954L14.5012 17.6086L14.3811 17.1232ZM15.5297 18.983L14.6647 17.254L14.2175 17.4777L15.0825 19.2067L15.5297 18.983ZM17.2884 18.8449H15.3061V19.3449H17.2884V18.8449ZM17.0384 15.9363V19.0949H17.5384V15.9363H17.0384ZM17.2941 15.6077L17.1294 15.7434L17.4474 16.1293L17.6121 15.9936L17.2941 15.6077ZM19.3043 12.9495C18.9017 13.9378 18.2083 14.8576 17.2945 15.6074L17.6117 15.9939C18.5834 15.1966 19.3304 14.2109 19.7674 13.1381L19.3043 12.9495ZM19.4192 12.6673L19.3043 12.9496L19.7674 13.1381L19.8823 12.8558L19.4192 12.6673ZM16.3815 7.08366C15.7451 7.08366 15.2268 7.60076 15.2268 8.23842H15.7268C15.7268 7.87723 16.0209 7.58366 16.3815 7.58366V7.08366ZM17.5363 8.23842C17.5363 7.60076 17.0179 7.08366 16.3815 7.08366V7.58366C16.7421 7.58366 17.0363 7.87723 17.0363 8.23842H17.5363ZM16.3815 9.39318C17.0179 9.39318 17.5363 8.87608 17.5363 8.23842H17.0363C17.0363 8.59962 16.7421 8.89318 16.3815 8.89318V9.39318ZM15.2268 8.23842C15.2268 8.87608 15.7451 9.39318 16.3815 9.39318V8.89318C16.0209 8.89318 15.7268 8.59962 15.7268 8.23842H15.2268ZM15.9297 8.48812H16.3821V7.98812H15.9297V8.48812ZM16.3826 7.98902L15.9302 7.98812L15.9292 8.48812L16.3816 8.48902L16.3826 7.98902ZM16.1321 8.23812V8.23902H16.6321V8.23812H16.1321ZM9.7962 5.78231V6.72236H10.2962V5.78231H9.7962ZM13.7331 5.53809C12.5281 5.19808 11.2144 5.19256 9.97824 5.54173L10.1142 6.0229C11.2611 5.69892 12.4808 5.70426 13.5974 6.0193L13.7331 5.53809ZM13.9152 6.72869V5.77869H13.4152V6.72869H13.9152ZM10.2515 6.92068C11.3493 6.58445 12.532 6.61533 13.5864 6.96592L13.7441 6.49146C12.5945 6.1092 11.3054 6.07494 10.1051 6.44261L10.2515 6.92068ZM10.1198 6.96127L10.2519 6.92056L10.1047 6.44274L9.97256 6.48345L10.1198 6.96127Z" fill="white"/>
</svg>
