<svg width="24" height="24" viewBox="0 0 24 24" fill="none" xmlns="http://www.w3.org/2000/svg">
<path fill-rule="evenodd" clip-rule="evenodd" d="M2.73407 2.59792C2.92747 2.40145 3.21306 2.32691 3.47779 2.40382C10.1764 4.34972 16.3971 7.41768 21.923 11.3903C22.119 11.5312 22.2352 11.7579 22.2352 11.9993C22.2352 12.2407 22.119 12.4673 21.923 12.6082C16.3972 16.5809 10.1765 19.649 3.47789 21.5949C3.21315 21.6718 2.92756 21.5973 2.73417 21.4008C2.54077 21.2044 2.47076 20.9176 2.55183 20.6542L5.21479 11.9995L2.55174 3.34461C2.47066 3.08112 2.54068 2.79438 2.73407 2.59792ZM6.55342 12.7495L4.40017 19.7476C10.0792 17.9499 15.3884 15.3195 20.1843 11.9993C15.3884 8.67913 10.0792 6.04873 4.40007 4.25113L6.55342 11.2495L13.4998 11.2495C13.914 11.2495 14.2498 11.5853 14.2498 11.9995C14.2498 12.4137 13.914 12.7495 13.4998 12.7495L6.55342 12.7495Z" fill="#282828"/>
</svg>
