<svg width="28" height="28" viewBox="0 0 28 28" fill="none" xmlns="http://www.w3.org/2000/svg">
<path fill-rule="evenodd" clip-rule="evenodd" d="M14 2.625C14.4832 2.625 14.875 3.01675 14.875 3.5V17.1376L18.6313 13.3813C18.973 13.0396 19.527 13.0396 19.8687 13.3813C20.2104 13.723 20.2104 14.277 19.8687 14.6187L14.6187 19.8687C14.277 20.2104 13.723 20.2104 13.3813 19.8687L8.13128 14.6187C7.78957 14.277 7.78957 13.723 8.13128 13.3813C8.47299 13.0396 9.02701 13.0396 9.36872 13.3813L13.125 17.1376V3.5C13.125 3.01675 13.5168 2.625 14 2.625ZM3.5 18.375C3.98325 18.375 4.375 18.7668 4.375 19.25V21.875C4.375 22.8415 5.1585 23.625 6.125 23.625H21.875C22.8415 23.625 23.625 22.8415 23.625 21.875V19.25C23.625 18.7668 24.0168 18.375 24.5 18.375C24.9832 18.375 25.375 18.7668 25.375 19.25V21.875C25.375 23.808 23.808 25.375 21.875 25.375H6.125C4.192 25.375 2.625 23.808 2.625 21.875V19.25C2.625 18.7668 3.01675 18.375 3.5 18.375Z" fill="#18a886"/>
</svg>
