<svg width="91" height="24" viewBox="0 0 91 24" fill="none" xmlns="http://www.w3.org/2000/svg">
<mask id="mask0_79_32031" style="mask-type:alpha" maskUnits="userSpaceOnUse" x="0" y="1" width="36" height="22">
<path fill-rule="evenodd" clip-rule="evenodd" d="M0.594727 1.19922H35.068V22.8063H0.594727V1.19922Z" fill="white"/>
</mask>
<g mask="url(#mask0_79_32031)">
<path d="M34.7849 11.3122L26.5253 1.69352C26.3512 1.40837 26.0362 1.21792 25.6768 1.21792C25.1286 1.21792 24.6842 1.66072 24.6842 2.20717C24.6842 2.49509 24.8077 2.75429 25.0048 2.93512L32.4873 11.9755L25.0879 20.8442H24.2811H21.8914L28.8841 12.7351C28.8886 12.7301 28.8927 12.7251 28.8971 12.7201L28.8985 12.7206C29.0933 12.5072 29.18 12.2579 29.1754 12.0121C29.18 11.7665 29.0933 11.5172 28.8985 11.3038L28.8971 11.3042C28.8927 11.2992 28.8886 11.2942 28.8841 11.2893L20.5339 1.70919C20.532 1.70695 20.5302 1.70471 20.5282 1.70247C20.3554 1.41232 20.0377 1.21792 19.6746 1.21792H13.8101C13.2619 1.21792 12.8175 1.66072 12.8175 2.20717C12.8175 2.37299 12.8402 2.5454 12.9311 2.6667L20.7029 12.0489L14.0791 19.9688C14.0397 20.0081 13.469 20.8187 12.4654 20.8187H4.55457C3.47871 20.8187 2.58654 19.982 2.58654 18.8705V5.14148C2.58654 4.17396 3.47871 3.18023 4.57889 3.18023H9.50041C10.0806 3.18023 10.493 2.78537 10.493 2.20717C10.493 1.62898 10.0806 1.19922 9.50041 1.19922L4.53065 1.21884C2.17634 1.21884 0.594727 3.15402 0.594727 5.12133V18.8705C0.594727 20.9888 2.46853 22.793 4.53065 22.793H12.4392C12.8381 22.793 13.203 22.7348 13.5315 22.6416C13.5784 22.6283 13.6247 22.6142 13.67 22.5995C14.7604 22.2474 15.4185 21.5238 15.5459 21.3705L23.0004 12.712C23.353 12.3133 23.3999 11.7351 23.0062 11.3038L23.0048 11.3042C23.0004 11.2992 22.9963 11.2942 22.992 11.2893L15.9406 3.18023H18.3889H19.1957L26.5646 12.0123L18.8102 21.3344C18.8077 21.3371 18.8125 21.3452 18.8234 21.3577C18.751 21.4951 18.7098 21.6513 18.7098 21.8172C18.7098 22.3635 19.1542 22.8065 19.7023 22.8065H25.5668C25.93 22.8065 26.2474 22.6118 26.4205 22.3218C26.4224 22.3195 26.4242 22.3173 26.4261 22.3152L34.7765 12.7351C34.7808 12.7301 34.7849 12.7251 34.7893 12.7201L34.7907 12.7206C35.1843 12.2891 35.1375 11.7109 34.7849 11.3122Z" fill="black"/>
</g>
<rect x="42.2231" y="1.19922" width="1.18938" height="21.6" rx="0.59469" fill="#141413"/>
<rect x="64.0063" y="2.67578" width="11.2749" height="18.6115" fill="#FF5F00"/>
<path d="M65.1678 11.9826C65.1649 8.35136 66.8143 4.92047 69.6406 2.67849C64.8391 -1.1352 57.944 -0.5797 53.8009 3.95459C49.6578 8.48887 49.6578 15.4796 53.8009 20.0139C57.944 24.5482 64.8391 25.1037 69.6406 21.29C66.8134 19.0473 65.1639 15.615 65.1678 11.9826Z" fill="#EB001B"/>
<path d="M87.2529 19.4483V19.0501H87.4142V18.9838H87.0272V19.0501H87.1884V19.4483H87.2529Z" fill="#F79E1B"/>
<path d="M87.9951 18.9838H87.8661L87.737 19.3156L87.608 18.9838H87.479V19.4483H87.5758V19.0833L87.683 19.3819H87.8016L87.9053 19.0833V19.4483H87.9951V18.9838Z" fill="#F79E1B"/>
<path d="M88.5894 11.9833C88.5894 16.5148 86.0291 20.6485 81.9961 22.6287C77.9631 24.6089 73.1654 24.0881 69.6406 21.2874C72.4657 19.0435 74.1152 15.613 74.1152 11.9816C74.1152 8.35018 72.4657 4.91975 69.6406 2.67586C73.1654 -0.124872 77.9631 -0.645719 81.9961 1.33453C86.0291 3.31477 88.5894 7.44845 88.5894 11.98V11.9833Z" fill="#F79E1B"/>
</svg>
