<svg width="28" height="28" viewBox="0 0 28 28" fill="none" xmlns="http://www.w3.org/2000/svg">
<path fill-rule="evenodd" clip-rule="evenodd" d="M14 4.375C8.68426 4.375 4.375 8.68426 4.375 14C4.375 19.3157 8.68426 23.625 14 23.625C19.3157 23.625 23.625 19.3157 23.625 14C23.625 8.68426 19.3157 4.375 14 4.375ZM2.625 14C2.625 7.71776 7.71776 2.625 14 2.625C20.2822 2.625 25.375 7.71776 25.375 14C25.375 20.2822 20.2822 25.375 14 25.375C7.71776 25.375 2.625 20.2822 2.625 14ZM14 6.125C14.4832 6.125 14.875 6.51675 14.875 7V13.125H19.25C19.7332 13.125 20.125 13.5168 20.125 14C20.125 14.4832 19.7332 14.875 19.25 14.875H14C13.5168 14.875 13.125 14.4832 13.125 14V7C13.125 6.51675 13.5168 6.125 14 6.125Z" fill="#E60028"/>
</svg>
