<svg width="64" height="64" viewBox="0 0 64 64" fill="none" xmlns="http://www.w3.org/2000/svg">
<path fill-rule="evenodd" clip-rule="evenodd" d="M32 10C19.8497 10 10 19.8497 10 32C10 44.1503 19.8497 54 32 54C44.1503 54 54 44.1503 54 32C54 19.8497 44.1503 10 32 10ZM6 32C6 17.6406 17.6406 6 32 6C46.3594 6 58 17.6406 58 32C58 46.3594 46.3594 58 32 58C17.6406 58 6 46.3594 6 32ZM32 14C33.1046 14 34 14.8954 34 16V30H44C45.1046 30 46 30.8954 46 32C46 33.1046 45.1046 34 44 34H32C30.8954 34 30 33.1046 30 32V16C30 14.8954 30.8954 14 32 14Z" fill="white"/>
</svg>
