<svg width="24" height="24" viewBox="0 0 24 24" fill="none" xmlns="http://www.w3.org/2000/svg">
<path fill-rule="evenodd" clip-rule="evenodd" d="M13.3006 4.75042C12.7234 3.74986 11.2793 3.74986 10.7021 4.75042L3.34777 17.498C2.77085 18.498 3.49257 19.7475 4.64705 19.7475H19.3557C20.5102 19.7475 21.2319 18.498 20.655 17.498L13.3006 4.75042ZM9.40282 4.00083C10.5573 1.99972 13.4454 1.99972 14.5999 4.00083L21.9542 16.7484C23.1081 18.7484 21.6647 21.2475 19.3557 21.2475H4.64705C2.33808 21.2475 0.894646 18.7484 2.0485 16.7484L9.40282 4.00083ZM12.0014 9.2475C12.4156 9.2475 12.7514 9.58329 12.7514 9.9975V13.7475C12.7514 14.1618 12.4156 14.4975 12.0014 14.4975C11.5871 14.4975 11.2514 14.1618 11.2514 13.7475V9.9975C11.2514 9.58329 11.5871 9.2475 12.0014 9.2475ZM11.2514 16.7475C11.2514 16.3333 11.5871 15.9975 12.0014 15.9975H12.0089C12.4231 15.9975 12.7589 16.3333 12.7589 16.7475V16.755C12.7589 17.1693 12.4231 17.505 12.0089 17.505H12.0014C11.5871 17.505 11.2514 17.1693 11.2514 16.755V16.7475Z" fill="#E60028"/>
</svg>
