<svg width="24" height="24" viewBox="0 0 24 24" fill="none" xmlns="http://www.w3.org/2000/svg">
<path fill-rule="evenodd" clip-rule="evenodd" d="M5.625 3C5.41789 3 5.25 3.16789 5.25 3.375V19.875C5.25 20.0821 5.41789 20.25 5.625 20.25H18.375C18.5821 20.25 18.75 20.0821 18.75 19.875V11.625C18.75 10.1753 17.5747 9 16.125 9H14.625C13.5895 9 12.75 8.16053 12.75 7.125V5.625C12.75 4.17525 11.5747 3 10.125 3H5.625ZM5.625 1.5C4.58947 1.5 3.75 2.33947 3.75 3.375V19.875C3.75 20.9105 4.58947 21.75 5.625 21.75H18.375C19.4105 21.75 20.25 20.9105 20.25 19.875V11.25C20.25 5.86522 15.8848 1.5 10.5 1.5H5.625ZM13.757 3.66785C14.0715 4.25019 14.25 4.91675 14.25 5.625V7.125C14.25 7.33211 14.4179 7.5 14.625 7.5H16.125C16.8332 7.5 17.4998 7.6785 18.0821 7.99296C17.2488 6.05549 15.6945 4.50123 13.757 3.66785ZM11.625 12C10.5895 12 9.75 12.8395 9.75 13.875C9.75 14.9105 10.5895 15.75 11.625 15.75C12.6605 15.75 13.5 14.9105 13.5 13.875C13.5 12.8395 12.6605 12 11.625 12ZM8.25 13.875C8.25 12.011 9.76104 10.5 11.625 10.5C13.489 10.5 15 12.011 15 13.875C15 14.5354 14.8103 15.1515 14.4825 15.6718L15.5303 16.7197C15.8232 17.0126 15.8232 17.4874 15.5303 17.7803C15.2374 18.0732 14.7626 18.0732 14.4697 17.7803L13.4218 16.7325C12.9015 17.0603 12.2854 17.25 11.625 17.25C9.76104 17.25 8.25 15.739 8.25 13.875Z" fill="#E60028"/>
</svg>
