<svg width="20" height="20" viewBox="0 0 20 20" fill="none" xmlns="http://www.w3.org/2000/svg">
<g clip-path="url(#clip0_79_22494)">
<path d="M10 4.16699H12.9167C14.0218 4.16699 15.0816 4.60598 15.863 5.38738C16.6444 6.16878 17.0834 7.22859 17.0834 8.33366C17.0834 9.43873 16.6444 10.4985 15.863 11.2799C15.0816 12.0613 14.0218 12.5003 12.9167 12.5003H8.33337L4.98754 16.0228C4.70134 16.3242 4.32495 16.5243 3.91511 16.5931C3.50526 16.6619 3.08416 16.5956 2.71526 16.4042C2.34635 16.2129 2.04964 15.9068 1.86984 15.5321C1.69003 15.1575 1.63687 14.7345 1.71837 14.327L3.08004 7.51616C3.26905 6.57154 3.77953 5.7216 4.52462 5.11098C5.26971 4.50035 6.20336 4.16676 7.1667 4.16699H10Z" stroke="white" stroke-linecap="round" stroke-linejoin="round"/>
<path d="M11.6665 12.5002L15.0582 16.0702C15.3438 16.3708 15.7192 16.5706 16.128 16.6397C16.5368 16.7088 16.9571 16.6435 17.3256 16.4536C17.6942 16.2636 17.9912 15.9593 18.1721 15.5862C18.353 15.2131 18.4081 14.7914 18.329 14.3844L16.9957 7.52441" stroke="white" stroke-linecap="round" stroke-linejoin="round"/>
<path d="M6.6665 7.5V9.16667" stroke="white" stroke-linecap="round" stroke-linejoin="round"/>
<path d="M5.8335 8.33301H7.50016" stroke="white" stroke-linecap="round" stroke-linejoin="round"/>
<path d="M11.6665 8.33301H13.3332" stroke="white" stroke-linecap="round" stroke-linejoin="round"/>
</g>
<defs>
<clipPath id="clip0_79_22494">
<rect width="20" height="20" fill="white"/>
</clipPath>
</defs>
</svg>
