<svg width="28" height="28" viewBox="0 0 28 28" fill="none" xmlns="http://www.w3.org/2000/svg">
<path fill-rule="evenodd" clip-rule="evenodd" d="M2.88039 2.88128C3.2221 2.53957 3.77612 2.53957 4.11783 2.88128L7.39296 6.15641C9.33379 5.02387 11.5918 4.375 13.9991 4.375C19.9454 4.375 24.966 8.32859 26.5799 13.7486C26.6284 13.9114 26.6284 14.0849 26.58 14.2477C25.7933 16.8923 24.1969 19.186 22.0793 20.8428L25.1178 23.8813C25.4595 24.223 25.4595 24.777 25.1178 25.1187C24.7761 25.4604 24.2221 25.4604 23.8804 25.1187L2.88039 4.11872C2.53868 3.77701 2.53868 3.22299 2.88039 2.88128ZM20.8313 19.5947C22.6848 18.1997 24.0976 16.2519 24.8252 13.9984C23.3484 9.42874 19.0585 6.125 13.9991 6.125C12.0761 6.125 10.2663 6.60153 8.67936 7.44281L11.5865 10.3499C12.278 9.89217 13.1078 9.625 13.9991 9.625C16.4154 9.625 18.3741 11.5838 18.3741 14C18.3741 14.8913 18.1069 15.7211 17.6492 16.4126L20.8313 19.5947ZM16.3685 15.1319C16.5325 14.7892 16.6241 14.4056 16.6241 14C16.6241 12.5503 15.4489 11.375 13.9991 11.375C13.5935 11.375 13.2099 11.4666 12.8672 11.6307L16.3685 15.1319ZM5.20747 8.92496C5.57642 9.23706 5.6225 9.78916 5.3104 10.1581C4.36487 11.2759 3.63165 12.5777 3.17195 14.0016C4.64874 18.5713 8.93868 21.875 13.9981 21.875C15.0748 21.875 16.1151 21.7256 17.1003 21.4471C17.5653 21.3156 18.0489 21.5859 18.1804 22.0509C18.3119 22.516 18.0415 22.9995 17.5765 23.131C16.4379 23.453 15.2374 23.625 13.9981 23.625C8.05178 23.625 3.03119 19.6714 1.41725 14.2514C1.36875 14.0886 1.36873 13.9151 1.41718 13.7523C1.9401 11.9943 2.82092 10.3914 3.97432 9.02789C4.28642 8.65894 4.83852 8.61286 5.20747 8.92496Z" fill="#E60028"/>
</svg>
