<svg width="28" height="28" viewBox="0 0 28 28" fill="none" xmlns="http://www.w3.org/2000/svg">
<path fill-rule="evenodd" clip-rule="evenodd" d="M14.0019 6.125C8.97648 6.125 4.71012 9.38436 3.20574 13.9069C3.18498 13.9692 3.185 14.0371 3.20579 14.0995C4.71205 18.6187 8.97678 21.875 13.9998 21.875C19.0252 21.875 23.2915 18.6156 24.7959 14.0932C24.8167 14.0308 24.8166 13.9629 24.7959 13.9005C23.2896 9.38132 19.0249 6.125 14.0019 6.125ZM1.5452 13.3545C3.28033 8.13833 8.20045 4.375 14.0019 4.375C19.8005 4.375 24.7188 8.13483 26.4561 13.3472C26.5965 13.7684 26.5966 14.2242 26.4564 14.6455C24.7213 19.8617 19.8012 23.625 13.9998 23.625C8.2011 23.625 3.28286 19.8652 1.54558 14.6528C1.40518 14.2316 1.40505 13.7758 1.5452 13.3545ZM14.0009 11.375C12.5512 11.375 11.3759 12.5503 11.3759 14C11.3759 15.4497 12.5512 16.625 14.0009 16.625C15.4507 16.625 16.6259 15.4497 16.6259 14C16.6259 12.5503 15.4507 11.375 14.0009 11.375ZM9.62588 14C9.62588 11.5838 11.5847 9.625 14.0009 9.625C16.4172 9.625 18.3759 11.5838 18.3759 14C18.3759 16.4162 16.4172 18.375 14.0009 18.375C11.5847 18.375 9.62588 16.4162 9.62588 14Z" fill="#0D1F7E"/>
</svg>
