<svg width="28" height="28" viewBox="0 0 28 28" fill="none" xmlns="http://www.w3.org/2000/svg">
<path fill-rule="evenodd" clip-rule="evenodd" d="M14.0012 6.125C8.97575 6.125 4.70939 9.38436 3.20501 13.9069C3.18425 13.9692 3.18427 14.0371 3.20506 14.0995C4.71132 18.6187 8.97605 21.875 13.9991 21.875C19.0245 21.875 23.2908 18.6156 24.7952 14.0932C24.816 14.0308 24.8159 13.9629 24.7952 13.9005C23.2889 9.38132 19.0242 6.125 14.0012 6.125ZM1.54447 13.3545C3.2796 8.13833 8.19972 4.375 14.0012 4.375C19.7998 4.375 24.7181 8.13483 26.4554 13.3472C26.5958 13.7684 26.5959 14.2242 26.4557 14.6455C24.7206 19.8617 19.8005 23.625 13.9991 23.625C8.20037 23.625 3.28213 19.8652 1.54485 14.6528C1.40445 14.2316 1.40432 13.7758 1.54447 13.3545ZM14.0002 11.375C12.5505 11.375 11.3752 12.5503 11.3752 14C11.3752 15.4497 12.5505 16.625 14.0002 16.625C15.45 16.625 16.6252 15.4497 16.6252 14C16.6252 12.5503 15.45 11.375 14.0002 11.375ZM9.62515 14C9.62515 11.5838 11.584 9.625 14.0002 9.625C16.4165 9.625 18.3752 11.5838 18.3752 14C18.3752 16.4162 16.4165 18.375 14.0002 18.375C11.584 18.375 9.62515 16.4162 9.62515 14Z" fill="#E60028"/>
</svg>
