<svg width="24" height="24" viewBox="0 0 24 24" fill="none" xmlns="http://www.w3.org/2000/svg">
<path fill-rule="evenodd" clip-rule="evenodd" d="M15.2194 6.27049C15.3679 5.88378 15.8017 5.69064 16.1884 5.83908L22.1297 8.11972C22.5164 8.26816 22.7095 8.70198 22.5611 9.08868L20.2804 15.03C20.132 15.4167 19.6982 15.6098 19.3115 15.4614C18.9248 15.313 18.7316 14.8791 18.8801 14.4924L20.5118 10.2416L19.4253 10.7253C16.9721 11.8176 15.1036 13.6784 13.975 15.8988C13.8662 16.113 13.6614 16.262 13.4241 16.2997C13.1869 16.3374 12.946 16.2592 12.7761 16.0894L9 12.3133L2.78033 18.5329C2.48744 18.8258 2.01256 18.8258 1.71967 18.5329C1.42678 18.24 1.42678 17.7652 1.71967 17.4723L8.46967 10.7223C8.61032 10.5816 8.80109 10.5026 9 10.5026C9.19891 10.5026 9.38968 10.5816 9.53033 10.7223L13.1363 14.3283C14.4369 12.2072 16.3711 10.4432 18.8152 9.35495L19.9017 8.8712L15.6508 7.23945C15.2641 7.09101 15.071 6.65719 15.2194 6.27049Z" fill="#E60028"/>
</svg>
