<svg width="24" height="24" viewBox="0 0 24 24" fill="none" xmlns="http://www.w3.org/2000/svg">
<g clip-path="url(#clip0_1669_23858)">
<mask id="mask0_1669_23858" style="mask-type:luminance" maskUnits="userSpaceOnUse" x="0" y="0" width="24" height="24">
<path d="M24 0H0V24H24V0Z" fill="white"/>
</mask>
<g mask="url(#mask0_1669_23858)">
<mask id="mask1_1669_23858" style="mask-type:luminance" maskUnits="userSpaceOnUse" x="0" y="0" width="24" height="24">
<path d="M24 0H0V24H24V0Z" fill="white"/>
</mask>
<g mask="url(#mask1_1669_23858)">
<path d="M19.4995 13.5758L11.9995 21.0038L9.10348 18.1358M2.98648 10.0318C2.97813 8.97716 3.30348 7.94689 3.91601 7.08831C4.52854 6.22974 5.39686 5.58684 6.39683 5.25156C7.39679 4.91628 8.47718 4.90579 9.48346 5.22158C10.4897 5.53738 11.3704 6.16329 11.9995 7.0098C12.413 6.45983 12.9356 6.00113 13.5346 5.66241C14.1335 5.32369 14.796 5.11225 15.4804 5.04133C16.1648 4.9704 16.8566 5.0415 17.5122 5.2502C18.1679 5.45889 18.7735 5.80068 19.291 6.25417C19.8086 6.70766 20.2269 7.26309 20.5199 7.8857C20.8129 8.50831 20.9742 9.18469 20.9938 9.87251C21.0133 10.5603 20.8907 11.2448 20.6336 11.8831C20.3765 12.5213 19.9904 13.0996 19.4995 13.5818" stroke="#E60028" stroke-width="1.5" stroke-linecap="round" stroke-linejoin="round"/>
<path d="M3 13H5L7 16L9 10L10 13H13" stroke="#E60028" stroke-width="1.5" stroke-linecap="round" stroke-linejoin="round"/>
</g>
</g>
</g>
<defs>
<clipPath id="clip0_1669_23858">
<rect width="24" height="24" fill="white"/>
</clipPath>
</defs>
</svg>
