<svg width="24" height="24" viewBox="0 0 24 24" fill="none" xmlns="http://www.w3.org/2000/svg">
<path fill-rule="evenodd" clip-rule="evenodd" d="M12.2652 3.57858C12.1187 3.43213 11.8813 3.43214 11.7348 3.57858L5.25 10.0635V19.8778C5.25 20.0849 5.41789 20.2528 5.625 20.2528H9V16.1278C9 15.0923 9.83947 14.2528 10.875 14.2528H13.125C14.1605 14.2528 15 15.0923 15 16.1278V20.2528H18.375C18.5821 20.2528 18.75 20.0849 18.75 19.8778V10.0635L12.2652 3.57858ZM20.25 11.5635L21.2197 12.5331C21.5126 12.826 21.9874 12.826 22.2803 12.5331C22.5732 12.2402 22.5732 11.7654 22.2803 11.4725L13.3258 2.51792C12.5936 1.78569 11.4064 1.78569 10.6742 2.51792L1.71967 11.4725C1.42678 11.7654 1.42678 12.2402 1.71967 12.5331C2.01256 12.826 2.48744 12.826 2.78033 12.5331L3.75 11.5635V19.8778C3.75 20.9133 4.58947 21.7528 5.625 21.7528H18.375C19.4105 21.7528 20.25 20.9133 20.25 19.8778V11.5635ZM13.5 20.2528H10.5V16.1278C10.5 15.9207 10.6679 15.7528 10.875 15.7528H13.125C13.3321 15.7528 13.5 15.9207 13.5 16.1278V20.2528Z" fill="#0D1F7E"/>
</svg>
