<svg width="24" height="24" viewBox="0 0 24 24" fill="none" xmlns="http://www.w3.org/2000/svg">
<path d="M2.27344 5.62524C3.06675 4.92494 4.10888 4.5 5.25026 4.5H18.7503C19.8917 4.5 20.9338 4.92494 21.7271 5.62524C21.5427 4.14526 20.2802 3 18.7503 3H5.25026C3.72032 3 2.45787 4.14525 2.27344 5.62524Z" fill="#E60028"/>
<path d="M2.27344 8.62524C3.06675 7.92494 4.10888 7.5 5.25026 7.5H18.7503C19.8917 7.5 20.9338 7.92494 21.7271 8.62524C21.5427 7.14526 20.2802 6 18.7503 6H5.25026C3.72032 6 2.45787 7.14525 2.27344 8.62524Z" fill="#E60028"/>
<path d="M5.25 9C3.59315 9 2.25 10.3431 2.25 12V18C2.25 19.6569 3.59315 21 5.25 21H18.75C20.4069 21 21.75 19.6569 21.75 18V12C21.75 10.3431 20.4069 9 18.75 9H15C14.5858 9 14.25 9.33579 14.25 9.75C14.25 10.9926 13.2426 12 12 12C10.7574 12 9.75 10.9926 9.75 9.75C9.75 9.33579 9.41421 9 9 9H5.25Z" fill="#E60028"/>
</svg>
