<svg width="24" height="24" viewBox="0 0 24 24" fill="none" xmlns="http://www.w3.org/2000/svg">
<path d="M19.5 10.1667V14.8333M18.3333 13.7374L18.6752 13.9937C19.1306 14.3356 19.8691 14.3356 20.3248 13.9937C20.7806 13.6519 20.7806 13.0981 20.3248 12.7563C20.0973 12.5852 19.7987 12.5 19.5 12.5C19.2181 12.5 18.9361 12.4144 18.7211 12.2437C18.2909 11.9019 18.2909 11.3481 18.7211 11.0063C19.1512 10.6644 19.8488 10.6644 20.2789 11.0063L20.4403 11.1346M23 12.5C23 12.9596 22.9095 13.4148 22.7336 13.8394C22.5577 14.264 22.2999 14.6499 21.9749 14.9749C21.6499 15.2999 21.264 15.5577 20.8394 15.7336C20.4148 15.9095 19.9596 16 19.5 16C19.0404 16 18.5852 15.9095 18.1606 15.7336C17.736 15.5577 17.3501 15.2999 17.0251 14.9749C16.7001 14.6499 16.4423 14.264 16.2664 13.8394C16.0905 13.4148 16 12.9596 16 12.5C16 11.5717 16.3687 10.6815 17.0251 10.0251C17.6815 9.36875 18.5717 9 19.5 9C20.4283 9 21.3185 9.36875 21.9749 10.0251C22.6313 10.6815 23 11.5717 23 12.5Z" stroke="#E60028" stroke-width="0.8" stroke-linecap="round" stroke-linejoin="round"/>
<mask id="mask0_1669_23841" style="mask-type:alpha" maskUnits="userSpaceOnUse" x="1" y="4" width="17" height="17">
<path fill-rule="evenodd" clip-rule="evenodd" d="M17.0739 8.63779C15.6137 9.31043 14.6 10.7868 14.6 12.5C14.6 14.2132 15.6137 15.6896 17.0739 16.3622C15.6673 19.1152 12.8037 21 9.5 21C4.80558 21 1 17.1944 1 12.5C1 7.80558 4.80558 4 9.5 4C12.8037 4 15.6673 5.88481 17.0739 8.63779Z" fill="#D9D9D9"/>
</mask>
<g mask="url(#mask0_1669_23841)">
<path d="M9.49961 20.1516C11.1954 20.1515 12.8431 19.5882 14.184 18.5502C15.5249 17.5122 16.4832 16.0583 16.9082 14.4166M9.49961 20.1516C7.80387 20.1515 6.15617 19.5882 4.81524 18.5502C3.47431 17.5122 2.51608 16.0583 2.09101 14.4166M9.49961 20.1516C11.6119 20.1516 13.3246 16.7261 13.3246 12.5016C13.3246 8.27706 11.6119 4.85156 9.49961 4.85156M9.49961 20.1516C7.38736 20.1516 5.67461 16.7261 5.67461 12.5016C5.67461 8.27706 7.38736 4.85156 9.49961 4.85156M16.9082 14.4166C17.0655 13.8046 17.1496 13.1629 17.1496 12.5016C17.1517 11.1859 16.8129 9.89205 16.1662 8.74626M16.9082 14.4166C14.6414 15.6733 12.0914 16.3307 9.49961 16.3266C6.81191 16.3266 4.28656 15.6338 2.09101 14.4166M2.09101 14.4166C1.93015 13.791 1.84904 13.1476 1.84961 12.5016C1.84961 11.1373 2.20661 9.85551 2.83306 8.74626M9.49961 4.85156C10.8564 4.85099 12.189 5.21141 13.3605 5.89584C14.532 6.58026 15.5004 7.56405 16.1662 8.74626M9.49961 4.85156C8.14281 4.85099 6.81028 5.21141 5.63875 5.89584C4.46722 6.58026 3.49887 7.56405 2.83306 8.74626M16.1662 8.74626C14.3154 10.3493 11.9481 11.2301 9.49961 11.2266C6.95131 11.2266 4.62061 10.2916 2.83306 8.74626" stroke="#E60028" stroke-width="1.2" stroke-linecap="round" stroke-linejoin="round"/>
</g>
</svg>
