<svg width="67" height="49" viewBox="0 0 67 49" fill="none" xmlns="http://www.w3.org/2000/svg">
<path fill-rule="evenodd" clip-rule="evenodd" d="M24.1504 39.8683H42.0517V7.55518H24.1504V39.8683Z" fill="#FF5F00"/>
<path fill-rule="evenodd" clip-rule="evenodd" d="M25.2863 23.712C25.2863 17.1564 28.342 11.3178 33.1003 7.5554C29.6201 4.80337 25.2294 3.16162 20.4569 3.16162C9.15864 3.16162 0 12.3625 0 23.712C0 35.0615 9.15864 44.2623 20.4569 44.2623C25.2294 44.2623 29.6201 42.6206 33.1003 39.8685C28.342 36.1055 25.2863 30.2675 25.2863 23.712" fill="#EB001B"/>
<path fill-rule="evenodd" clip-rule="evenodd" d="M66.1999 23.7115C66.1999 35.061 57.0407 44.2618 45.743 44.2618C40.9705 44.2618 36.5793 42.6201 33.0996 39.8681C37.8579 36.1056 40.9137 30.267 40.9137 23.7115C40.9137 17.1565 37.8579 11.3179 33.0996 7.55491C36.5793 4.80288 40.9705 3.16113 45.743 3.16113C57.0407 3.16113 66.1999 12.362 66.1999 23.7115V23.7115Z" fill="#F79E1B"/>
</svg>
