<svg width="24" height="24" viewBox="0 0 24 24" fill="none" xmlns="http://www.w3.org/2000/svg">
<path fill-rule="evenodd" clip-rule="evenodd" d="M5.625 1.5C4.58947 1.5 3.75 2.33947 3.75 3.375V20.625C3.75 21.6605 4.58947 22.5 5.625 22.5H18.375C19.4105 22.5 20.25 21.6605 20.25 20.625V12.75C20.25 10.6789 18.5711 9 16.5 9H14.625C13.5895 9 12.75 8.16053 12.75 7.125V5.25C12.75 3.17893 11.0711 1.5 9 1.5H5.625ZM7.5 15C7.5 14.5858 7.83579 14.25 8.25 14.25H15.75C16.1642 14.25 16.5 14.5858 16.5 15C16.5 15.4142 16.1642 15.75 15.75 15.75H8.25C7.83579 15.75 7.5 15.4142 7.5 15ZM8.25 17.25C7.83579 17.25 7.5 17.5858 7.5 18C7.5 18.4142 7.83579 18.75 8.25 18.75H12C12.4142 18.75 12.75 18.4142 12.75 18C12.75 17.5858 12.4142 17.25 12 17.25H8.25Z" fill="#E60028"/>
<path d="M12.9707 1.8125C13.7675 2.73308 14.2495 3.93355 14.2495 5.2466V7.1216C14.2495 7.32871 14.4174 7.4966 14.6245 7.4966H16.4995C17.8126 7.4966 19.013 7.97864 19.9336 8.77541C19.0457 5.37648 16.3696 2.70037 12.9707 1.8125Z" fill="#E60028"/>
</svg>
