<svg width="24" height="24" viewBox="0 0 24 24" fill="none" xmlns="http://www.w3.org/2000/svg">
<path d="M3.47877 2.40479C3.21403 2.32789 2.92844 2.40242 2.73505 2.59889C2.54166 2.79536 2.47164 3.08209 2.55272 3.34558L4.98499 11.2505H13.5007C13.9149 11.2505 14.2507 11.5863 14.2507 12.0005C14.2507 12.4147 13.9149 12.7505 13.5007 12.7505H4.985L2.55281 20.6551C2.47173 20.9186 2.54175 21.2054 2.73514 21.4018C2.92854 21.5983 3.21413 21.6728 3.47887 21.5959C10.1775 19.6499 16.3982 16.5819 21.924 12.6092C22.12 12.4683 22.2362 12.2416 22.2362 12.0002C22.2362 11.7588 22.12 11.5322 21.924 11.3913C16.3981 7.41866 10.1774 4.3507 3.47877 2.40479Z" fill="#017F96"/>
</svg>
