<svg width="28" height="28" viewBox="0 0 28 28" fill="none" xmlns="http://www.w3.org/2000/svg">
<path fill-rule="evenodd" clip-rule="evenodd" d="M10.3297 4.45288C10.5055 3.39809 11.4181 2.625 12.4874 2.625H15.5137C16.5831 2.625 17.4957 3.39809 17.6715 4.45288L17.9206 5.94743C17.9426 6.07984 18.0407 6.23364 18.2327 6.33988C18.3288 6.39311 18.4239 6.4481 18.5178 6.5048C18.7055 6.61818 18.8879 6.62637 19.0138 6.57921L20.4334 6.04735C21.4348 5.6722 22.5606 6.076 23.0953 7.00207L24.6084 9.62291C25.1431 10.549 24.9299 11.7259 24.1043 12.4055L22.9326 13.3701C22.8289 13.4555 22.745 13.617 22.7491 13.8351C22.7501 13.8899 22.7506 13.9449 22.7506 14C22.7506 14.0551 22.7501 14.11 22.7491 14.1649C22.745 14.383 22.8289 14.5445 22.9326 14.6299L24.1043 15.5945C24.9299 16.2741 25.1431 17.451 24.6084 18.3771L23.0953 20.9979C22.5606 21.924 21.4348 22.3278 20.4334 21.9526L19.0138 21.4208C18.8879 21.3736 18.7056 21.3818 18.5178 21.4952C18.4239 21.5519 18.3288 21.6069 18.2327 21.6601C18.0407 21.7664 17.9426 21.9202 17.9206 22.0526L17.6715 23.5471C17.4957 24.6019 16.5831 25.375 15.5137 25.375H12.4874C11.4181 25.375 10.5055 24.6019 10.3297 23.5471L10.0806 22.0526C10.0585 21.9202 9.96052 21.7664 9.76859 21.6601C9.67242 21.6069 9.57736 21.5519 9.48347 21.4952C9.29571 21.3818 9.11336 21.3736 8.98749 21.4208L7.56781 21.9526C6.56644 22.3278 5.44062 21.924 4.90595 20.9979L3.3928 18.3771C2.85814 17.451 3.07135 16.2741 3.89692 15.5945L5.06867 14.6299C5.17239 14.5445 5.25622 14.383 5.25218 14.1649C5.25116 14.1101 5.25066 14.0551 5.25066 14C5.25066 13.9449 5.25116 13.89 5.25218 13.8351C5.25622 13.617 5.17239 13.4555 5.06867 13.3701L3.89692 12.4055C3.07135 11.7259 2.85814 10.549 3.3928 9.62293L4.90595 7.00209C5.44062 6.07602 6.56643 5.67222 7.56781 6.04737L8.98747 6.57922C9.11334 6.62638 9.29569 6.61819 9.48345 6.50481C9.57735 6.44811 9.67241 6.39312 9.76859 6.33988C9.96052 6.23364 10.0585 6.07984 10.0806 5.94743L10.3297 4.45288ZM12.4874 4.375C12.2736 4.375 12.0911 4.52962 12.0559 4.74058L11.8068 6.23513C11.6834 6.97549 11.1982 7.54869 10.616 7.87096C10.5391 7.91353 10.4631 7.95752 10.388 8.00287C9.8174 8.34746 9.0773 8.48166 8.37353 8.218L6.95386 7.68614C6.75359 7.61111 6.52843 7.69187 6.42149 7.87709L4.90835 10.4979C4.80141 10.6831 4.84406 10.9185 5.00917 11.0544L6.18092 12.0191C6.75971 12.4956 7.01421 13.2017 7.00188 13.8675C7.00107 13.9116 7.00066 13.9557 7.00066 14C7.00066 14.0443 7.00107 14.0885 7.00188 14.1325C7.01421 14.7983 6.75972 15.5045 6.18092 15.9809L5.00917 16.9456C4.84406 17.0815 4.80142 17.3169 4.90835 17.5021L6.42149 20.1229C6.52843 20.3081 6.75359 20.3889 6.95387 20.3139L8.37355 19.782C9.07732 19.5184 9.81741 19.6525 10.388 19.9971C10.4631 20.0425 10.5391 20.0865 10.616 20.129C11.1982 20.4513 11.6834 21.0245 11.8068 21.7649L12.0559 23.2594C12.0911 23.4704 12.2736 23.625 12.4874 23.625H15.5137C15.7276 23.625 15.9101 23.4704 15.9453 23.2594L16.1944 21.7649C16.3178 21.0245 16.8029 20.4513 17.3851 20.129C17.462 20.0865 17.5381 20.0425 17.6132 19.9971C18.1838 19.6525 18.9239 19.5183 19.6277 19.782L21.0474 20.3139C21.2477 20.3889 21.4728 20.3081 21.5797 20.1229L23.0929 17.5021C23.1998 17.3169 23.1572 17.0815 22.9921 16.9455L21.8203 15.9809C21.2415 15.5044 20.987 14.7983 20.9994 14.1325C21.0002 14.0884 21.0006 14.0443 21.0006 14C21.0006 13.9557 21.0002 13.9116 20.9994 13.8675C20.987 13.2017 21.2415 12.4955 21.8203 12.0191L22.9921 11.0544C23.1572 10.9185 23.1998 10.6831 23.0929 10.4979L21.5797 7.87707C21.4728 7.69185 21.2477 7.6111 21.0474 7.68613L19.6277 8.21799C18.9239 8.48164 18.1838 8.34745 17.6132 8.00287C17.5381 7.95751 17.462 7.91353 17.3851 7.87096C16.8029 7.54869 16.3178 6.97549 16.1944 6.23513L15.9453 4.74058C15.9101 4.52962 15.7276 4.375 15.5137 4.375H12.4874ZM14.0003 11.3749C12.5506 11.3749 11.3753 12.5502 11.3753 13.9999C11.3753 15.4497 12.5506 16.6249 14.0003 16.6249C15.4501 16.6249 16.6253 15.4497 16.6253 13.9999C16.6253 12.5502 15.4501 11.3749 14.0003 11.3749ZM9.62539 13.9999C9.62539 11.5837 11.5841 9.62491 14.0003 9.62491C16.4166 9.62491 18.3753 11.5837 18.3753 13.9999C18.3753 16.4162 16.4166 18.3749 14.0003 18.3749C11.5841 18.3749 9.62539 16.4162 9.62539 13.9999Z" fill="#E60028"/>
</svg>
