<svg width="28" height="28" viewBox="0 0 28 28" fill="none" xmlns="http://www.w3.org/2000/svg">
<path fill-rule="evenodd" clip-rule="evenodd" d="M10.3293 4.45288C10.5051 3.39809 11.4177 2.625 12.487 2.625H15.5133C16.5827 2.625 17.4953 3.39809 17.6711 4.45288L17.9202 5.94743C17.9422 6.07984 18.0403 6.23364 18.2323 6.33988C18.3284 6.39311 18.4235 6.4481 18.5174 6.5048C18.7051 6.61818 18.8875 6.62637 19.0134 6.57921L20.433 6.04735C21.4344 5.6722 22.5602 6.076 23.0949 7.00207L24.608 9.62291C25.1427 10.549 24.9295 11.7259 24.1039 12.4055L22.9322 13.3701C22.8285 13.4555 22.7446 13.617 22.7487 13.8351C22.7497 13.8899 22.7502 13.9449 22.7502 14C22.7502 14.0551 22.7497 14.11 22.7487 14.1649C22.7446 14.383 22.8285 14.5445 22.9322 14.6299L24.1039 15.5945C24.9295 16.2741 25.1427 17.451 24.608 18.3771L23.0949 20.9979C22.5602 21.924 21.4344 22.3278 20.433 21.9526L19.0134 21.4208C18.8875 21.3736 18.7052 21.3818 18.5174 21.4952C18.4235 21.5519 18.3284 21.6069 18.2323 21.6601C18.0403 21.7664 17.9422 21.9202 17.9202 22.0526L17.6711 23.5471C17.4953 24.6019 16.5827 25.375 15.5133 25.375H12.487C11.4177 25.375 10.5051 24.6019 10.3293 23.5471L10.0802 22.0526C10.0581 21.9202 9.96003 21.7664 9.7681 21.6601C9.67193 21.6069 9.57687 21.5519 9.48298 21.4952C9.29522 21.3818 9.11287 21.3736 8.987 21.4208L7.56732 21.9526C6.56595 22.3278 5.44013 21.924 4.90546 20.9979L3.39231 18.3771C2.85765 17.451 3.07086 16.2741 3.89643 15.5945L5.06818 14.6299C5.1719 14.5445 5.25573 14.383 5.25169 14.1649C5.25067 14.1101 5.25017 14.0551 5.25017 14C5.25017 13.9449 5.25067 13.89 5.25169 13.8351C5.25573 13.617 5.1719 13.4555 5.06818 13.3701L3.89643 12.4055C3.07086 11.7259 2.85765 10.549 3.39231 9.62293L4.90546 7.00209C5.44013 6.07602 6.56594 5.67222 7.56732 6.04737L8.98698 6.57922C9.11285 6.62638 9.2952 6.61819 9.48296 6.50481C9.57686 6.44811 9.67192 6.39312 9.7681 6.33988C9.96003 6.23364 10.0581 6.07984 10.0802 5.94743L10.3293 4.45288ZM12.487 4.375C12.2732 4.375 12.0907 4.52962 12.0555 4.74058L11.8064 6.23513C11.683 6.97549 11.1978 7.54869 10.6156 7.87096C10.5387 7.91353 10.4627 7.95752 10.3876 8.00287C9.81691 8.34746 9.07681 8.48166 8.37304 8.218L6.95337 7.68614C6.7531 7.61111 6.52794 7.69187 6.421 7.87709L4.90786 10.4979C4.80092 10.6831 4.84357 10.9185 5.00868 11.0544L6.18043 12.0191C6.75922 12.4956 7.01372 13.2017 7.00139 13.8675C7.00058 13.9116 7.00017 13.9557 7.00017 14C7.00017 14.0443 7.00058 14.0885 7.00139 14.1325C7.01372 14.7983 6.75923 15.5045 6.18043 15.9809L5.00868 16.9456C4.84357 17.0815 4.80093 17.3169 4.90786 17.5021L6.421 20.1229C6.52794 20.3081 6.7531 20.3889 6.95338 20.3139L8.37306 19.782C9.07683 19.5184 9.81692 19.6525 10.3876 19.9971C10.4627 20.0425 10.5387 20.0865 10.6156 20.129C11.1978 20.4513 11.683 21.0245 11.8064 21.7649L12.0555 23.2594C12.0907 23.4704 12.2732 23.625 12.487 23.625H15.5133C15.7272 23.625 15.9097 23.4704 15.9449 23.2594L16.194 21.7649C16.3174 21.0245 16.8025 20.4513 17.3847 20.129C17.4616 20.0865 17.5377 20.0425 17.6128 19.9971C18.1834 19.6525 18.9235 19.5183 19.6273 19.782L21.047 20.3139C21.2473 20.3889 21.4724 20.3081 21.5793 20.1229L23.0925 17.5021C23.1994 17.3169 23.1568 17.0815 22.9917 16.9455L21.8199 15.9809C21.2411 15.5044 20.9866 14.7983 20.999 14.1325C20.9998 14.0884 21.0002 14.0443 21.0002 14C21.0002 13.9557 20.9998 13.9116 20.999 13.8675C20.9866 13.2017 21.2411 12.4955 21.8199 12.0191L22.9917 11.0544C23.1568 10.9185 23.1994 10.6831 23.0925 10.4979L21.5793 7.87707C21.4724 7.69185 21.2473 7.6111 21.047 7.68613L19.6273 8.21799C18.9235 8.48164 18.1834 8.34745 17.6128 8.00287C17.5377 7.95751 17.4616 7.91353 17.3847 7.87096C16.8025 7.54869 16.3174 6.97549 16.194 6.23513L15.9449 4.74058C15.9097 4.52962 15.7272 4.375 15.5133 4.375H12.487ZM13.9999 11.3749C12.5502 11.3749 11.3749 12.5502 11.3749 13.9999C11.3749 15.4497 12.5502 16.6249 13.9999 16.6249C15.4497 16.6249 16.6249 15.4497 16.6249 13.9999C16.6249 12.5502 15.4497 11.3749 13.9999 11.3749ZM9.6249 13.9999C9.6249 11.5837 11.5837 9.62491 13.9999 9.62491C16.4162 9.62491 18.3749 11.5837 18.3749 13.9999C18.3749 16.4162 16.4162 18.3749 13.9999 18.3749C11.5837 18.3749 9.6249 16.4162 9.6249 13.9999Z" fill="#18a886"/>
</svg>
