<svg width="28" height="28" viewBox="0 0 28 28" fill="none" xmlns="http://www.w3.org/2000/svg">
<path fill-rule="evenodd" clip-rule="evenodd" d="M10.3298 4.45288C10.5056 3.39809 11.4182 2.625 12.4875 2.625H15.5138C16.5832 2.625 17.4958 3.39809 17.6716 4.45288L17.9207 5.94743C17.9427 6.07984 18.0408 6.23364 18.2328 6.33988C18.3289 6.39311 18.424 6.4481 18.5179 6.5048C18.7056 6.61818 18.888 6.62637 19.0139 6.57921L20.4335 6.04735C21.4349 5.6722 22.5607 6.076 23.0954 7.00207L24.6085 9.62291C25.1432 10.549 24.93 11.7259 24.1044 12.4055L22.9327 13.3701C22.829 13.4555 22.7451 13.617 22.7492 13.8351C22.7502 13.8899 22.7507 13.9449 22.7507 14C22.7507 14.0551 22.7502 14.11 22.7492 14.1649C22.7451 14.383 22.829 14.5445 22.9327 14.6299L24.1044 15.5945C24.93 16.2741 25.1432 17.451 24.6085 18.3771L23.0954 20.9979C22.5607 21.924 21.4349 22.3278 20.4335 21.9526L19.0139 21.4208C18.888 21.3736 18.7057 21.3818 18.5179 21.4952C18.424 21.5519 18.3289 21.6069 18.2328 21.6601C18.0408 21.7664 17.9427 21.9202 17.9207 22.0526L17.6716 23.5471C17.4958 24.6019 16.5832 25.375 15.5138 25.375H12.4875C11.4182 25.375 10.5056 24.6019 10.3298 23.5471L10.0807 22.0526C10.0586 21.9202 9.96052 21.7664 9.76859 21.6601C9.67242 21.6069 9.57736 21.5519 9.48347 21.4952C9.29571 21.3818 9.11336 21.3736 8.98749 21.4208L7.56781 21.9526C6.56644 22.3278 5.44062 21.924 4.90595 20.9979L3.3928 18.3771C2.85814 17.451 3.07135 16.2741 3.89692 15.5945L5.06867 14.6299C5.17239 14.5445 5.25622 14.383 5.25218 14.1649C5.25116 14.1101 5.25066 14.0551 5.25066 14C5.25066 13.9449 5.25116 13.89 5.25218 13.8351C5.25622 13.617 5.17239 13.4555 5.06867 13.3701L3.89692 12.4055C3.07135 11.7259 2.85814 10.549 3.3928 9.62293L4.90595 7.00209C5.44062 6.07602 6.56643 5.67222 7.56781 6.04737L8.98747 6.57922C9.11334 6.62638 9.29569 6.61819 9.48345 6.50481C9.57735 6.44811 9.67241 6.39312 9.76859 6.33988C9.96052 6.23364 10.0586 6.07984 10.0807 5.94743L10.3298 4.45288ZM12.4875 4.375C12.2737 4.375 12.0912 4.52962 12.056 4.74058L11.8069 6.23513C11.6835 6.97549 11.1983 7.54869 10.6161 7.87096C10.5392 7.91353 10.4632 7.95752 10.3881 8.00287C9.8174 8.34746 9.0773 8.48166 8.37353 8.218L6.95386 7.68614C6.75359 7.61111 6.52843 7.69187 6.42149 7.87709L4.90835 10.4979C4.80141 10.6831 4.84406 10.9185 5.00917 11.0544L6.18092 12.0191C6.75971 12.4956 7.01421 13.2017 7.00188 13.8675C7.00107 13.9116 7.00066 13.9557 7.00066 14C7.00066 14.0443 7.00107 14.0885 7.00188 14.1325C7.01421 14.7983 6.75972 15.5045 6.18092 15.9809L5.00917 16.9456C4.84406 17.0815 4.80142 17.3169 4.90835 17.5021L6.42149 20.1229C6.52843 20.3081 6.75359 20.3889 6.95387 20.3139L8.37355 19.782C9.07732 19.5184 9.81741 19.6525 10.3881 19.9971C10.4632 20.0425 10.5392 20.0865 10.6161 20.129C11.1983 20.4513 11.6835 21.0245 11.8069 21.7649L12.056 23.2594C12.0912 23.4704 12.2737 23.625 12.4875 23.625H15.5138C15.7277 23.625 15.9102 23.4704 15.9454 23.2594L16.1945 21.7649C16.3179 21.0245 16.803 20.4513 17.3852 20.129C17.4621 20.0865 17.5382 20.0425 17.6133 19.9971C18.1839 19.6525 18.924 19.5183 19.6278 19.782L21.0475 20.3139C21.2478 20.3889 21.4729 20.3081 21.5798 20.1229L23.093 17.5021C23.1999 17.3169 23.1573 17.0815 22.9922 16.9455L21.8204 15.9809C21.2416 15.5044 20.9871 14.7983 20.9995 14.1325C21.0003 14.0884 21.0007 14.0443 21.0007 14C21.0007 13.9557 21.0003 13.9116 20.9995 13.8675C20.9871 13.2017 21.2416 12.4955 21.8204 12.0191L22.9922 11.0544C23.1573 10.9185 23.1999 10.6831 23.093 10.4979L21.5798 7.87707C21.4729 7.69185 21.2478 7.6111 21.0475 7.68613L19.6278 8.21799C18.924 8.48164 18.1839 8.34745 17.6133 8.00287C17.5382 7.95751 17.4621 7.91353 17.3852 7.87096C16.803 7.54869 16.3179 6.97549 16.1945 6.23513L15.9454 4.74058C15.9102 4.52962 15.7277 4.375 15.5138 4.375H12.4875ZM14.0004 11.3749C12.5507 11.3749 11.3754 12.5502 11.3754 13.9999C11.3754 15.4497 12.5507 16.6249 14.0004 16.6249C15.4502 16.6249 16.6254 15.4497 16.6254 13.9999C16.6254 12.5502 15.4502 11.3749 14.0004 11.3749ZM9.62539 13.9999C9.62539 11.5837 11.5842 9.62491 14.0004 9.62491C16.4167 9.62491 18.3754 11.5837 18.3754 13.9999C18.3754 16.4162 16.4167 18.3749 14.0004 18.3749C11.5842 18.3749 9.62539 16.4162 9.62539 13.9999Z" fill="#E60028"/>
</svg>
