<svg width="28" height="28" viewBox="0 0 28 28" fill="none" xmlns="http://www.w3.org/2000/svg">
<path fill-rule="evenodd" clip-rule="evenodd" d="M10.3295 4.45288C10.5053 3.39809 11.4179 2.625 12.4872 2.625H15.5135C16.5829 2.625 17.4955 3.39809 17.6713 4.45288L17.9204 5.94743C17.9424 6.07984 18.0405 6.23364 18.2325 6.33988C18.3286 6.39311 18.4237 6.4481 18.5176 6.5048C18.7053 6.61818 18.8877 6.62637 19.0136 6.57921L20.4332 6.04735C21.4346 5.6722 22.5604 6.076 23.0951 7.00207L24.6082 9.62291C25.1429 10.549 24.9297 11.7259 24.1041 12.4055L22.9324 13.3701C22.8287 13.4555 22.7448 13.617 22.7489 13.8351C22.7499 13.8899 22.7504 13.9449 22.7504 14C22.7504 14.0551 22.7499 14.11 22.7489 14.1649C22.7448 14.383 22.8287 14.5445 22.9324 14.6299L24.1041 15.5945C24.9297 16.2741 25.1429 17.451 24.6082 18.3771L23.0951 20.9979C22.5604 21.924 21.4346 22.3278 20.4332 21.9526L19.0136 21.4208C18.8877 21.3736 18.7054 21.3818 18.5176 21.4952C18.4237 21.5519 18.3286 21.6069 18.2325 21.6601C18.0405 21.7664 17.9424 21.9202 17.9204 22.0526L17.6713 23.5471C17.4955 24.6019 16.5829 25.375 15.5135 25.375H12.4872C11.4179 25.375 10.5053 24.6019 10.3295 23.5471L10.0804 22.0526C10.0583 21.9202 9.96027 21.7664 9.76834 21.6601C9.67217 21.6069 9.57711 21.5519 9.48322 21.4952C9.29546 21.3818 9.11311 21.3736 8.98724 21.4208L7.56756 21.9526C6.56619 22.3278 5.44037 21.924 4.9057 20.9979L3.39255 18.3771C2.85789 17.451 3.0711 16.2741 3.89667 15.5945L5.06842 14.6299C5.17214 14.5445 5.25597 14.383 5.25193 14.1649C5.25091 14.1101 5.25041 14.0551 5.25041 14C5.25041 13.9449 5.25091 13.89 5.25193 13.8351C5.25597 13.617 5.17214 13.4555 5.06842 13.3701L3.89667 12.4055C3.0711 11.7259 2.85789 10.549 3.39255 9.62293L4.9057 7.00209C5.44037 6.07602 6.56618 5.67222 7.56756 6.04737L8.98722 6.57922C9.11309 6.62638 9.29544 6.61819 9.4832 6.50481C9.5771 6.44811 9.67216 6.39312 9.76834 6.33988C9.96027 6.23364 10.0583 6.07984 10.0804 5.94743L10.3295 4.45288ZM12.4872 4.375C12.2734 4.375 12.0909 4.52962 12.0557 4.74058L11.8066 6.23513C11.6832 6.97549 11.198 7.54869 10.6158 7.87096C10.5389 7.91353 10.4629 7.95752 10.3878 8.00287C9.81715 8.34746 9.07705 8.48166 8.37328 8.218L6.95361 7.68614C6.75334 7.61111 6.52818 7.69187 6.42124 7.87709L4.9081 10.4979C4.80116 10.6831 4.84381 10.9185 5.00892 11.0544L6.18067 12.0191C6.75946 12.4956 7.01396 13.2017 7.00163 13.8675C7.00082 13.9116 7.00041 13.9557 7.00041 14C7.00041 14.0443 7.00082 14.0885 7.00163 14.1325C7.01396 14.7983 6.75947 15.5045 6.18067 15.9809L5.00892 16.9456C4.84381 17.0815 4.80117 17.3169 4.9081 17.5021L6.42124 20.1229C6.52818 20.3081 6.75334 20.3889 6.95362 20.3139L8.3733 19.782C9.07707 19.5184 9.81716 19.6525 10.3878 19.9971C10.4629 20.0425 10.5389 20.0865 10.6158 20.129C11.198 20.4513 11.6832 21.0245 11.8066 21.7649L12.0557 23.2594C12.0909 23.4704 12.2734 23.625 12.4872 23.625H15.5135C15.7274 23.625 15.9099 23.4704 15.9451 23.2594L16.1942 21.7649C16.3176 21.0245 16.8027 20.4513 17.3849 20.129C17.4618 20.0865 17.5379 20.0425 17.613 19.9971C18.1836 19.6525 18.9237 19.5183 19.6275 19.782L21.0472 20.3139C21.2475 20.3889 21.4726 20.3081 21.5795 20.1229L23.0927 17.5021C23.1996 17.3169 23.157 17.0815 22.9919 16.9455L21.8201 15.9809C21.2413 15.5044 20.9868 14.7983 20.9992 14.1325C21 14.0884 21.0004 14.0443 21.0004 14C21.0004 13.9557 21 13.9116 20.9992 13.8675C20.9868 13.2017 21.2413 12.4955 21.8201 12.0191L22.9919 11.0544C23.157 10.9185 23.1996 10.6831 23.0927 10.4979L21.5795 7.87707C21.4726 7.69185 21.2475 7.6111 21.0472 7.68613L19.6275 8.21799C18.9237 8.48164 18.1836 8.34745 17.613 8.00287C17.5379 7.95751 17.4618 7.91353 17.3849 7.87096C16.8027 7.54869 16.3176 6.97549 16.1942 6.23513L15.9451 4.74058C15.9099 4.52962 15.7274 4.375 15.5135 4.375H12.4872ZM14.0001 11.3749C12.5504 11.3749 11.3751 12.5502 11.3751 13.9999C11.3751 15.4497 12.5504 16.6249 14.0001 16.6249C15.4499 16.6249 16.6251 15.4497 16.6251 13.9999C16.6251 12.5502 15.4499 11.3749 14.0001 11.3749ZM9.62514 13.9999C9.62514 11.5837 11.5839 9.62491 14.0001 9.62491C16.4164 9.62491 18.3751 11.5837 18.3751 13.9999C18.3751 16.4162 16.4164 18.3749 14.0001 18.3749C11.5839 18.3749 9.62514 16.4162 9.62514 13.9999Z" fill="#017F96"/>
</svg>
