<svg width="24" height="24" viewBox="0 0 24 24" fill="none" xmlns="http://www.w3.org/2000/svg">
<path fill-rule="evenodd" clip-rule="evenodd" d="M12.0001 3C10.3432 3 9.00008 4.34315 9.00008 6V6.75H15.0001V6C15.0001 4.34315 13.6569 3 12.0001 3ZM16.5001 6.75V6C16.5001 3.51472 14.4854 1.5 12.0001 1.5C9.51479 1.5 7.50008 3.51472 7.50008 6V6.75H5.51287C4.55332 6.75 3.74862 7.47444 3.64817 8.42872L2.38502 20.4287C2.26848 21.5358 3.13652 22.5 4.24971 22.5H19.7504C20.8636 22.5 21.7317 21.5358 21.6151 20.4287L20.352 8.42872C20.2515 7.47444 19.4468 6.75 18.4873 6.75H16.5001ZM15.0001 8.25H9.00008V9.66146C9.23023 9.86746 9.37508 10.1668 9.37508 10.5C9.37508 11.1213 8.8714 11.625 8.25008 11.625C7.62876 11.625 7.12508 11.1213 7.12508 10.5C7.12508 10.1668 7.26992 9.86746 7.50008 9.66146V8.25H5.51287C5.32096 8.25 5.16002 8.39489 5.13993 8.58574L3.87677 20.5857C3.85347 20.8072 4.02707 21 4.24971 21H19.7504C19.9731 21 20.1467 20.8072 20.1234 20.5857L18.8602 8.58574C18.8401 8.39489 18.6792 8.25 18.4873 8.25H16.5001V9.66146C16.7302 9.86746 16.8751 10.1668 16.8751 10.5C16.8751 11.1213 16.3714 11.625 15.7501 11.625C15.1288 11.625 14.6251 11.1213 14.6251 10.5C14.6251 10.1668 14.7699 9.86746 15.0001 9.66146V8.25Z" fill="#18a886"/>
</svg>
