<svg width="24" height="24" viewBox="0 0 24 24" fill="none" xmlns="http://www.w3.org/2000/svg">
<path fill-rule="evenodd" clip-rule="evenodd" d="M12.0006 3C10.3437 3 9.00056 4.34315 9.00056 6V6.75H15.0006V6C15.0006 4.34315 13.6574 3 12.0006 3ZM16.5006 6.75V6C16.5006 3.51472 14.4859 1.5 12.0006 1.5C9.51527 1.5 7.50056 3.51472 7.50056 6V6.75H5.51335C4.5538 6.75 3.7491 7.47444 3.64865 8.42872L2.3855 20.4287C2.26896 21.5358 3.137 22.5 4.25019 22.5H19.7509C20.8641 22.5 21.7322 21.5358 21.6156 20.4287L20.3525 8.42872C20.252 7.47444 19.4473 6.75 18.4878 6.75H16.5006ZM15.0006 8.25H9.00056V9.66146C9.23071 9.86746 9.37556 10.1668 9.37556 10.5C9.37556 11.1213 8.87188 11.625 8.25056 11.625C7.62924 11.625 7.12556 11.1213 7.12556 10.5C7.12556 10.1668 7.2704 9.86746 7.50056 9.66146V8.25H5.51335C5.32144 8.25 5.1605 8.39489 5.14041 8.58574L3.87725 20.5857C3.85395 20.8072 4.02755 21 4.25019 21H19.7509C19.9736 21 20.1472 20.8072 20.1239 20.5857L18.8607 8.58574C18.8406 8.39489 18.6797 8.25 18.4878 8.25H16.5006V9.66146C16.7307 9.86746 16.8756 10.1668 16.8756 10.5C16.8756 11.1213 16.3719 11.625 15.7506 11.625C15.1293 11.625 14.6256 11.1213 14.6256 10.5C14.6256 10.1668 14.7704 9.86746 15.0006 9.66146V8.25Z" fill="#E60028"/>
</svg>
