<svg width="38" height="24" viewBox="0 0 38 24" fill="none" xmlns="http://www.w3.org/2000/svg">
<g clip-path="url(#clip0_1669_23729)">
<mask id="mask0_1669_23729" style="mask-type:luminance" maskUnits="userSpaceOnUse" x="0" y="0" width="38" height="24">
<path d="M38 0H0V24H38V0Z" fill="white"/>
</mask>
<g mask="url(#mask0_1669_23729)">
<path d="M15.0557 15.1137L13.3629 14.1172L13.0387 14.2012L13.2308 14.9696L11.502 17.6109L12.4504 18.3073L11.574 19.6399C14.4794 19.5679 16.9527 17.719 17.9612 15.1497L17.0487 14.5974L15.0677 15.1017L15.0557 15.1137Z" fill="#E60028"/>
<path d="M7.83973 13.7206L7.7557 12.1598L9.07635 11.0072L10.289 11.7516L10.4931 11.7036L10.6972 9.00219L7.62363 6.625C5.64264 7.87362 4.33398 10.0828 4.33398 12.592C4.33398 12.9282 4.35799 13.2523 4.40601 13.5765L6.66315 13.1083L7.85175 13.7206H7.83973Z" fill="#E60028"/>
<path d="M14.9346 8.39355L14.8266 10.0504L16.2193 9.8703L17.2758 10.8308L18.1883 10.7707C17.636 8.70571 16.1592 7.01287 14.2383 6.14844L14.3463 7.82927L14.9346 8.38155V8.39355Z" fill="#E60028"/>
<path d="M37.0009 12.6069C37.0009 9.61738 35.8603 6.90402 33.9873 4.875L32.8828 5.18716C34.8037 7.08411 36.0044 9.71343 36.0044 12.6069C36.0044 16.3768 33.9994 19.6664 30.9979 21.5033L31.298 19.0301L30.3015 18.9101L29.7852 23.2082L34.0474 23.7245L34.1674 22.728L31.4901 22.4038C34.8038 20.3988 37.0249 16.773 37.0249 12.6189L37.0009 12.6069Z" fill="#E60028"/>
<path d="M19.2816 20.9024C21.4787 18.8134 22.8594 15.8719 22.8594 12.5943C22.8594 9.31666 21.4787 6.37519 19.2816 4.28614C21.0345 2.95348 23.2076 2.16108 25.5728 2.16108C27.5178 2.16108 29.3307 2.70135 30.8794 3.62581L28.3342 4.34618L28.6103 5.31866L32.7764 4.14207L31.6118 0L30.6393 0.276138L31.3237 2.70135C29.6308 1.71686 27.6738 1.14057 25.5728 1.14057C22.8955 1.14057 20.4462 2.06503 18.5013 3.58979C16.5563 2.05302 14.0951 1.14057 11.4297 1.14057C5.11456 1.14057 0 6.25513 0 12.5703C0 18.8854 5.11456 24 11.4297 24C14.1071 24 16.5563 23.0755 18.5013 21.5508C20.4462 23.0875 22.9075 24 25.5728 24C26.6533 24 27.7099 23.8439 28.7064 23.5678L28.8384 22.4752C27.8059 22.8114 26.7134 23.0035 25.5728 23.0035C23.2076 23.0035 21.0345 22.2111 19.2816 20.8784V20.9024ZM11.3817 20.6503C6.92748 20.6503 3.32567 17.0365 3.32567 12.5943C3.32567 8.15207 6.93948 4.53827 11.3817 4.53827C15.8239 4.53827 19.4377 8.15207 19.4377 12.5943C19.4377 17.0365 15.8239 20.6503 11.3817 20.6503Z" fill="#E60028"/>
<path d="M18.3806 11.766L16.9158 11.862L15.8833 10.9256L13.7342 11.2017L13.8903 8.78849L13.3621 8.29624L13.194 5.78698C12.6177 5.63091 12.0054 5.54688 11.3691 5.54688C10.3846 5.54688 9.44809 5.75097 8.59566 6.12316L11.7292 8.54838L11.4291 12.5584L10.0844 12.8345L9.15994 12.2703L8.77574 12.6184L8.85979 14.1912L8.01938 14.9836L6.49461 14.1912L4.59766 14.5874C5.36604 17.2167 7.62318 19.2097 10.3846 19.5939L11.0569 18.5614L10.1084 17.865L12.1134 14.7915L11.8013 13.4949L13.4821 13.0386L15.187 14.0471L17.18 13.5429L18.2365 14.1792C18.3566 13.675 18.4166 13.1467 18.4166 12.6184C18.4166 12.3423 18.3926 12.0662 18.3686 11.79L18.3806 11.766Z" fill="#E60028"/>
</g>
</g>
<defs>
<clipPath id="clip0_1669_23729">
<rect width="38" height="24" fill="white"/>
</clipPath>
</defs>
</svg>
