<svg width="20" height="20" viewBox="0 0 20 20" fill="none" xmlns="http://www.w3.org/2000/svg">
<path fill-rule="evenodd" clip-rule="evenodd" d="M10 1.875C6.8934 1.875 4.375 4.3934 4.375 7.5C4.375 9.57864 5.50216 11.3948 7.18162 12.3692C8.01271 12.8514 8.75 13.7277 8.75 14.8403V15C8.75 15.3452 8.47018 15.625 8.125 15.625C7.77982 15.625 7.5 15.3452 7.5 15V14.8403C7.5 14.3146 7.14017 13.7903 6.5543 13.4504L6.86796 12.9098L6.5543 13.4504C4.50526 12.2615 3.125 10.0423 3.125 7.5C3.125 3.70304 6.20304 0.625 10 0.625C13.797 0.625 16.875 3.70304 16.875 7.5C16.875 10.0423 15.4947 12.2615 13.4457 13.4504C12.8598 13.7903 12.5 14.3146 12.5 14.8403V15C12.5 15.3452 12.2202 15.625 11.875 15.625C11.5298 15.625 11.25 15.3452 11.25 15V14.8403C11.25 13.7277 11.9873 12.8514 12.8184 12.3692C14.4978 11.3948 15.625 9.57864 15.625 7.5C15.625 4.3934 13.1066 1.875 10 1.875ZM8.14473 10.3117C8.23077 9.97746 8.5715 9.77622 8.90579 9.86226C9.2548 9.95209 9.62132 10 10 10C10.3787 10 10.7452 9.95209 11.0942 9.86226C11.4285 9.77622 11.7692 9.97746 11.8553 10.3117C11.9413 10.646 11.7401 10.9868 11.4058 11.0728C11.1518 11.1382 10.8911 11.1862 10.625 11.2156V15C10.625 15.3452 10.3452 15.625 10 15.625C9.65482 15.625 9.375 15.3452 9.375 15V11.2156C9.10893 11.1862 8.84821 11.1382 8.59421 11.0728C8.25993 10.9868 8.05869 10.646 8.14473 10.3117ZM7.51095 16.583C7.57528 16.2439 7.90235 16.0211 8.24148 16.0855C8.81062 16.1934 9.39841 16.25 10 16.25C10.6016 16.25 11.1894 16.1934 11.7585 16.0855C12.0977 16.0211 12.4247 16.2439 12.4891 16.583C12.5534 16.9222 12.3306 17.2492 11.9915 17.3136C11.3459 17.436 10.6802 17.5 10 17.5C9.31985 17.5 8.65407 17.436 8.00852 17.3136C7.66939 17.2492 7.44662 16.9222 7.51095 16.583ZM8.12839 18.62C8.16431 18.2767 8.47172 18.0275 8.81503 18.0634C9.20426 18.1041 9.59958 18.125 10 18.125C10.4004 18.125 10.7957 18.1041 11.185 18.0634C11.5283 18.0275 11.8357 18.2767 11.8716 18.62C11.9075 18.9633 11.6583 19.2707 11.315 19.3066C10.8827 19.3518 10.4439 19.375 10 19.375C9.55607 19.375 9.11733 19.3518 8.68497 19.3066C8.34167 19.2707 8.09248 18.9633 8.12839 18.62Z" fill="white"/>
</svg>
