<svg width="24" height="24" viewBox="0 0 24 24" fill="none" xmlns="http://www.w3.org/2000/svg">
<path d="M1 9.77074H14.6734M1 10.3166H14.6734M3.1036 14.1376H7.31079M3.1036 15.7751H5.2072M17.4582 10.4738C17.9759 11.0112 18.2667 11.74 18.2667 12.5C18.2667 13.26 17.9759 13.9888 17.4582 14.5262M19.1316 8.7369C21.1342 10.815 21.1342 14.1845 19.1316 16.2631M20.805 7C23.7317 10.0377 23.7317 14.9623 20.805 18M2.5777 17.9585H13.0957C13.5141 17.9585 13.9154 17.786 14.2113 17.4789C14.5072 17.1718 14.6734 16.7553 14.6734 16.321V8.67904C14.6734 8.24473 14.5072 7.82821 14.2113 7.52111C13.9154 7.21401 13.5141 7.04148 13.0957 7.04148H2.5777C2.15927 7.04148 1.75797 7.21401 1.4621 7.52111C1.16622 7.82821 1 8.24473 1 8.67904V16.321C1 16.7553 1.16622 17.1718 1.4621 17.4789C1.75797 17.786 2.15927 17.9585 2.5777 17.9585Z" stroke="#0D1F7E" stroke-linecap="round" stroke-linejoin="round"/>
</svg>
