<svg width="24" height="24" viewBox="0 0 24 24" fill="none" xmlns="http://www.w3.org/2000/svg">
<path fill-rule="evenodd" clip-rule="evenodd" d="M5.79243 2.44116C6.10107 2.7174 6.12734 3.19155 5.85109 3.50019C4.83375 4.63686 4.12777 6.05581 3.86466 7.6241C3.79613 8.0326 3.40941 8.3082 3.00091 8.23967C2.5924 8.17114 2.3168 7.78442 2.38534 7.37592C2.69679 5.51948 3.53244 3.84163 4.73339 2.49982C5.00964 2.19118 5.48378 2.16491 5.79243 2.44116ZM18.2087 2.44116C18.5173 2.16491 18.9915 2.19118 19.2677 2.49982C20.4687 3.84163 21.3043 5.51948 21.6158 7.37592C21.6843 7.78442 21.4087 8.17114 21.0002 8.23967C20.5917 8.3082 20.205 8.0326 20.1365 7.6241C19.8734 6.05581 19.1674 4.63686 18.15 3.50019C17.8738 3.19155 17.9001 2.7174 18.2087 2.44116ZM12.0006 3.75001C9.10107 3.75001 6.75056 6.10051 6.75056 9.00001L6.75036 9.75001C6.75036 9.75007 6.75036 9.74994 6.75036 9.75001C6.75032 11.8594 6.07971 13.8136 4.94081 15.4091C6.31969 15.848 7.7545 16.1617 9.23203 16.337C10.1395 16.4446 11.0633 16.5 12.0004 16.5C12.9375 16.5 13.8615 16.4446 14.7691 16.3369C16.2465 16.1617 17.6812 15.848 19.0599 15.4091C17.921 13.8136 17.2504 11.8595 17.2504 9.75001V9.04317L17.2506 9.00001C17.2506 6.10051 14.9001 3.75001 12.0006 3.75001ZM5.25056 9.00001C5.25056 5.27209 8.27264 2.25001 12.0006 2.25001C15.7285 2.25001 18.7506 5.27209 18.7506 9.00001L18.7504 9.04919V9.75001C18.7504 11.8731 19.5514 13.8074 20.8689 15.2699C21.0354 15.4547 21.0994 15.71 21.0399 15.9516C20.9803 16.1931 20.8048 16.3893 20.5714 16.4755C19.0274 17.0455 17.4111 17.4659 15.7402 17.7192C15.7471 17.812 15.7506 17.9056 15.7506 18C15.7506 20.0711 14.0716 21.75 12.0006 21.75C9.92949 21.75 8.25056 20.0711 8.25056 18C8.25056 17.9056 8.25406 17.812 8.26095 17.7193C6.58989 17.4659 4.97342 17.0455 3.4293 16.4755C3.19594 16.3893 3.02047 16.1931 2.96088 15.9516C2.90128 15.71 2.96531 15.4547 3.13181 15.2699C4.44935 13.8074 5.25036 11.8731 5.25036 9.75001L5.25056 9.00001ZM9.75276 17.8993C9.7513 17.9326 9.75056 17.9662 9.75056 18C9.75056 19.2426 10.7579 20.25 12.0006 20.25C13.2432 20.25 14.2506 19.2426 14.2506 18C14.2506 17.9662 14.2498 17.9326 14.2484 17.8992C13.5078 17.9659 12.758 18 12.0004 18C11.2429 18 10.4932 17.966 9.75276 17.8993Z" fill="#0D1F7E"/>
</svg>
