<svg width="28" height="28" viewBox="0 0 28 28" fill="none" xmlns="http://www.w3.org/2000/svg">
<path fill-rule="evenodd" clip-rule="evenodd" d="M10.3294 4.45288C10.5052 3.39809 11.4178 2.625 12.4871 2.625H15.5134C16.5828 2.625 17.4954 3.39809 17.6712 4.45288L17.9203 5.94743C17.9423 6.07984 18.0404 6.23364 18.2324 6.33988C18.3285 6.39311 18.4236 6.4481 18.5175 6.5048C18.7052 6.61818 18.8876 6.62637 19.0135 6.57921L20.4331 6.04735C21.4345 5.6722 22.5603 6.076 23.095 7.00207L24.6081 9.62291C25.1428 10.549 24.9296 11.7259 24.104 12.4055L22.9323 13.3701C22.8286 13.4555 22.7447 13.617 22.7488 13.8351C22.7498 13.8899 22.7503 13.9449 22.7503 14C22.7503 14.0551 22.7498 14.11 22.7488 14.1649C22.7447 14.383 22.8286 14.5445 22.9323 14.6299L24.104 15.5945C24.9296 16.2741 25.1428 17.451 24.6081 18.3771L23.095 20.9979C22.5603 21.924 21.4345 22.3278 20.4331 21.9526L19.0135 21.4208C18.8876 21.3736 18.7053 21.3818 18.5175 21.4952C18.4236 21.5519 18.3285 21.6069 18.2324 21.6601C18.0404 21.7664 17.9423 21.9202 17.9203 22.0526L17.6712 23.5471C17.4954 24.6019 16.5828 25.375 15.5134 25.375H12.4871C11.4178 25.375 10.5052 24.6019 10.3294 23.5471L10.0803 22.0526C10.0582 21.9202 9.96015 21.7664 9.76822 21.6601C9.67205 21.6069 9.57699 21.5519 9.4831 21.4952C9.29534 21.3818 9.11299 21.3736 8.98712 21.4208L7.56744 21.9526C6.56607 22.3278 5.44025 21.924 4.90558 20.9979L3.39243 18.3771C2.85777 17.451 3.07098 16.2741 3.89655 15.5945L4.45268 16.27L3.89655 15.5945L5.0683 14.6299C5.17202 14.5445 5.25585 14.383 5.25181 14.1649C5.25079 14.1101 5.25029 14.0551 5.25029 14C5.25029 13.9449 5.25079 13.89 5.25181 13.8351C5.25585 13.617 5.17202 13.4555 5.0683 13.3701L3.89655 12.4055C3.07098 11.7259 2.85777 10.549 3.39243 9.62293L4.90558 7.00209C5.44025 6.07602 6.56606 5.67222 7.56744 6.04737L8.9871 6.57922C9.11297 6.62638 9.29532 6.61819 9.48308 6.50481C9.57698 6.44811 9.67204 6.39312 9.76822 6.33988C9.96015 6.23364 10.0582 6.07984 10.0803 5.94743L10.3294 4.45288ZM12.4871 4.375C12.2733 4.375 12.0908 4.52962 12.0556 4.74058L11.8065 6.23513C11.6831 6.97549 11.1979 7.54869 10.6157 7.87096C10.5388 7.91353 10.4628 7.95752 10.3877 8.00287C9.81703 8.34746 9.07693 8.48166 8.37316 8.218L6.95349 7.68614C6.75322 7.61111 6.52806 7.69187 6.42112 7.87709L4.90798 10.4979C4.80104 10.6831 4.84369 10.9185 5.0088 11.0544L6.18055 12.0191C6.75934 12.4956 7.01384 13.2017 7.00151 13.8675C7.0007 13.9116 7.00029 13.9557 7.00029 14C7.00029 14.0443 7.0007 14.0885 7.00151 14.1325C7.01384 14.7983 6.75935 15.5045 6.18055 15.9809L5.0088 16.9456L4.62107 16.4746L5.0088 16.9456C4.84369 17.0815 4.80105 17.3169 4.90798 17.5021L6.42112 20.1229C6.52806 20.3081 6.75322 20.3889 6.9535 20.3139L8.37318 19.782C9.07695 19.5184 9.81704 19.6525 10.3877 19.9971C10.4628 20.0425 10.5388 20.0865 10.6157 20.129C11.1979 20.4513 11.6831 21.0245 11.8065 21.7649L12.0556 23.2594C12.0908 23.4704 12.2733 23.625 12.4871 23.625H15.5134C15.7273 23.625 15.9098 23.4704 15.945 23.2594L16.1941 21.7649C16.3175 21.0245 16.8026 20.4513 17.3848 20.129C17.4617 20.0865 17.5378 20.0425 17.6129 19.9971C18.1835 19.6525 18.9236 19.5183 19.6274 19.782L21.0471 20.3139C21.2474 20.3889 21.4725 20.3081 21.5794 20.1229L23.0926 17.5021C23.1995 17.3169 23.1569 17.0815 22.9918 16.9455L21.82 15.9809C21.2412 15.5044 20.9867 14.7983 20.9991 14.1325C20.9999 14.0884 21.0003 14.0443 21.0003 14C21.0003 13.9557 20.9999 13.9116 20.9991 13.8675C20.9867 13.2017 21.2412 12.4955 21.82 12.0191L22.9918 11.0544C23.1569 10.9185 23.1995 10.6831 23.0926 10.4979L21.5794 7.87707C21.4725 7.69185 21.2474 7.6111 21.0471 7.68613L19.6274 8.21799C18.9236 8.48164 18.1835 8.34745 17.6129 8.00287C17.5378 7.95751 17.4617 7.91353 17.3848 7.87096C16.8026 7.54869 16.3175 6.97549 16.1941 6.23513L15.945 4.74058C15.9098 4.52962 15.7273 4.375 15.5134 4.375H12.4871ZM14 11.3749C12.5503 11.3749 11.375 12.5502 11.375 13.9999C11.375 15.4497 12.5503 16.6249 14 16.6249C15.4498 16.6249 16.625 15.4497 16.625 13.9999C16.625 12.5502 15.4498 11.3749 14 11.3749ZM9.62502 13.9999C9.62502 11.5837 11.5838 9.62491 14 9.62491C16.4163 9.62491 18.375 11.5837 18.375 13.9999C18.375 16.4162 16.4163 18.3749 14 18.3749C11.5838 18.3749 9.62502 16.4162 9.62502 13.9999Z" fill="#18a886"/>
</svg>
