<svg width="26" height="17" viewBox="0 0 26 17" fill="none" xmlns="http://www.w3.org/2000/svg">
<g id="Group">
<path id="Outline" d="M0.948126 0.14093H24.6513C25.1749 0.14093 25.5994 0.562368 25.5994 1.08211V15.1998C25.5994 15.7195 25.1749 16.1409 24.6513 16.1409H0.948126C0.42455 16.1409 0 15.7195 0 15.1998V1.08211C0 0.562368 0.42455 0.14093 0.948126 0.14093Z" fill="url(#paint0_linear_824_2106)"/>
<g id="Group_2">
<g id="path-2-inside-1 286 7975">
<path id="Vector" fill-rule="evenodd" clip-rule="evenodd" d="M2.21146 2.04419C2.29258 2.04419 2.36843 2.05987 2.43796 2.09125C2.50749 2.12262 2.56859 2.1655 2.61916 2.22092C2.66972 2.2753 2.71081 2.34118 2.73925 2.41648C2.76875 2.49177 2.7835 2.57334 2.7835 2.66118C2.7835 2.74902 2.76875 2.83059 2.74031 2.90589C2.71186 2.98118 2.67183 3.04602 2.62021 3.10144C2.56964 3.15582 2.50854 3.19974 2.43901 3.23112C2.36948 3.26249 2.29363 3.27818 2.21252 3.27818C2.1314 3.27818 2.06503 3.26458 2.0092 3.23634L1.99655 3.23007V2.94353C2.00709 2.94981 2.01762 2.95504 2.02921 2.96027C2.06608 2.97595 2.10717 2.98432 2.15247 2.98432C2.19777 2.98432 2.24201 2.97595 2.27889 2.95922C2.31576 2.94249 2.34841 2.91948 2.37475 2.8902C2.40109 2.86092 2.4211 2.82746 2.43585 2.78772C2.44955 2.74903 2.45692 2.70615 2.45692 2.66118C2.45692 2.61621 2.44955 2.57543 2.43585 2.53569C2.42216 2.49595 2.40109 2.46249 2.37475 2.43321C2.34841 2.40393 2.31681 2.38092 2.27889 2.36419C2.24201 2.34746 2.19987 2.33909 2.15247 2.33909C2.10506 2.33909 2.06608 2.34746 2.02921 2.36314C1.99234 2.37883 1.96074 2.40184 1.93335 2.43112C1.90701 2.4604 1.88594 2.49386 1.87119 2.5336C1.85644 2.57334 1.84907 2.61621 1.84907 2.66118V2.67582V3.73099H1.54883V2.07661H1.85118V2.20628C1.89015 2.15818 1.93861 2.11948 1.9955 2.08916C2.05239 2.05987 2.13035 2.04523 2.21146 2.04523V2.04419ZM3.40294 2.04419C3.48406 2.04419 3.56202 2.05883 3.6189 2.08811C3.67052 2.11425 3.71372 2.14772 3.75059 2.1885L3.76428 2.20419V2.07451H4.06558V3.24576H3.76428V3.11608C3.7253 3.16314 3.67684 3.20184 3.61996 3.23112C3.56202 3.2604 3.48511 3.27504 3.404 3.27504C3.32288 3.27504 3.24703 3.25935 3.1775 3.22798C3.10797 3.19661 3.04687 3.15373 2.9963 3.09831C2.94573 3.04393 2.9057 2.97804 2.8762 2.90275C2.84776 2.82746 2.83301 2.74589 2.83301 2.65804C2.83301 2.5702 2.84776 2.48863 2.8762 2.41334C2.90465 2.33804 2.94468 2.27321 2.9963 2.21778C3.04687 2.1634 3.10797 2.11948 3.1775 2.08811C3.24703 2.05674 3.32288 2.04105 3.404 2.04105L3.40294 2.04419ZM5.39085 1.72733V2.07556H5.79959V2.35582H5.39085V2.78353C5.39085 2.82014 5.39506 2.85046 5.40454 2.87556C5.41402 2.90066 5.42666 2.92157 5.44247 2.93726C5.45827 2.95295 5.47723 2.96445 5.4983 2.97177C5.51937 2.97909 5.54255 2.98223 5.56678 2.98223C5.6047 2.98223 5.66159 2.98327 5.70057 2.96759C5.73112 2.95504 5.76062 2.94144 5.78695 2.9268L5.79854 2.91948V3.22066C5.79117 3.2238 5.78274 3.22798 5.77536 3.23112L5.74903 3.24157C5.68687 3.26458 5.61313 3.27713 5.5299 3.27713C5.38347 3.27713 5.27286 3.23739 5.19911 3.15791C5.12853 3.08157 5.09166 2.97282 5.0885 2.83164V2.80968V1.72837H5.39085V1.72733ZM7.74957 2.04419C7.8349 2.04419 7.91286 2.05883 7.98239 2.08916C8.05297 2.11948 8.11302 2.16131 8.16254 2.21465C8.2131 2.26902 8.25208 2.33386 8.27947 2.40916C8.30686 2.48445 8.32161 2.56811 8.32161 2.65909C8.32161 2.67791 8.32161 2.69674 8.3195 2.71556C8.3195 2.7302 8.3174 2.74275 8.31634 2.75425V2.76471H7.47988L7.4841 2.78249C7.49253 2.81804 7.50411 2.84837 7.52097 2.87347C7.53993 2.9038 7.56205 2.92889 7.58839 2.94876C7.61473 2.96863 7.64423 2.98327 7.67794 2.99268C7.71165 3.0021 7.74641 3.00628 7.78328 3.00628C7.8349 3.00628 7.88652 2.99687 7.93814 2.977C7.98344 2.96027 8.02558 2.93621 8.06456 2.90693L8.08036 2.89334L8.26683 3.09621L8.24787 3.11295C8.18571 3.16628 8.11618 3.20497 8.03928 3.23112C7.955 3.25935 7.86335 3.27399 7.76432 3.27399C7.67478 3.27399 7.59155 3.25935 7.51676 3.23007C7.44196 3.20079 7.3777 3.15896 7.32292 3.10563C7.26919 3.05229 7.22705 2.98746 7.1965 2.91216C7.167 2.83687 7.1512 2.75321 7.1512 2.66118C7.1512 2.56916 7.16595 2.4855 7.19545 2.40916C7.22494 2.33282 7.26498 2.26798 7.31765 2.2136C7.37032 2.15922 7.43248 2.11739 7.50517 2.08706C7.57786 2.05674 7.65897 2.0421 7.74747 2.0421L7.74957 2.04419ZM4.84725 2.04419C4.88096 2.04419 4.91152 2.04628 4.93891 2.05046C4.93996 2.05046 4.94207 2.05046 4.94312 2.05046V2.35059C4.92205 2.34327 4.89887 2.337 4.87359 2.33177C4.83883 2.32445 4.80511 2.32131 4.77246 2.32131C4.73559 2.32131 4.70293 2.32654 4.67238 2.33804C4.64183 2.34955 4.61549 2.36628 4.59442 2.38719C4.5723 2.40916 4.55544 2.43635 4.54385 2.46981C4.53332 2.49804 4.527 2.53046 4.52594 2.56602V2.58484V3.24576H4.21517V2.07451H4.51646V2.2021C4.55333 2.14667 4.59969 2.10589 4.65552 2.08079C4.71136 2.05569 4.77562 2.04314 4.84831 2.04314L4.84725 2.04419ZM9.04851 2.04419C9.08222 2.04419 9.11277 2.04628 9.14016 2.05046C9.14121 2.05046 9.14332 2.05046 9.14437 2.05046V2.35059C9.1233 2.34327 9.10013 2.337 9.07484 2.33177C9.04008 2.32445 9.00637 2.32131 8.97371 2.32131C8.93684 2.32131 8.90418 2.32654 8.87363 2.33804C8.84308 2.34955 8.81674 2.36628 8.79567 2.38719C8.77355 2.40916 8.75669 2.43635 8.74511 2.46981C8.73457 2.49804 8.72825 2.53046 8.7272 2.56602V2.58484V3.24576H8.41642V2.07451H8.71772V2.2021C8.75459 2.14667 8.80094 2.10589 8.85677 2.08079C8.91261 2.05569 8.97687 2.04314 9.04956 2.04314L9.04851 2.04419ZM6.60129 2.04419C6.66766 2.04419 6.72876 2.05569 6.78565 2.07765C6.84253 2.09961 6.88994 2.13099 6.93102 2.17072C6.97106 2.21046 7.00371 2.25857 7.02584 2.31504C7.04901 2.37151 7.05955 2.43321 7.05955 2.50118V3.2468H6.7572V2.60262C6.7572 2.51687 6.73719 2.45203 6.69715 2.40706C6.65712 2.3621 6.58443 2.34014 6.51174 2.34014C6.47803 2.34014 6.42957 2.34536 6.39902 2.35687C6.36847 2.36733 6.34213 2.38406 6.32001 2.40602C6.29789 2.42798 6.27998 2.45621 6.26628 2.48863C6.25259 2.5221 6.24627 2.56079 6.24627 2.60471V3.2468H5.94392V2.07556H6.24627V2.2136C6.28841 2.1519 6.34003 2.10798 6.40113 2.08288C6.46223 2.05778 6.53281 2.04523 6.60023 2.04523L6.60129 2.04419ZM3.46088 2.33804C3.41453 2.33804 3.37239 2.34641 3.33552 2.36314C3.29759 2.37987 3.26599 2.40288 3.23965 2.43216C3.21332 2.46144 3.1933 2.49491 3.17855 2.53465C3.16486 2.57438 3.15748 2.61621 3.15748 2.66014C3.15748 2.70406 3.16486 2.74693 3.17855 2.78667C3.19225 2.82536 3.21332 2.85987 3.23965 2.88916C3.26599 2.91844 3.29759 2.94144 3.33552 2.95818C3.37344 2.97491 3.41558 2.98327 3.46088 2.98327C3.50618 2.98327 3.54727 2.97491 3.58519 2.95922C3.62206 2.94353 3.65472 2.92053 3.68106 2.89125C3.7074 2.86197 3.72846 2.8285 3.74321 2.78876C3.75796 2.74902 3.76534 2.70615 3.76534 2.66118C3.76534 2.61621 3.75796 2.57229 3.74321 2.5336C3.72846 2.49386 3.70845 2.4604 3.68106 2.43112C3.65472 2.40184 3.62206 2.37987 3.58519 2.36314C3.54832 2.34746 3.50618 2.33909 3.46088 2.33909V2.33804ZM7.74641 2.31608C7.67056 2.31608 7.61157 2.337 7.56732 2.37883C7.52729 2.41648 7.4999 2.46876 7.48515 2.53255L7.48094 2.55033H8.00241C7.98766 2.47504 7.95816 2.41648 7.91497 2.37674C7.87072 2.33595 7.81489 2.31608 7.74641 2.31608Z" fill="white"/>
</g>
<path id="Vector_2" fill-rule="evenodd" clip-rule="evenodd" d="M13.5151 3.23217V2.75844H13.6226L13.9618 3.23217H14.3526L13.8849 2.61204L14.3495 2.06092H13.9607L13.6289 2.47818H13.5172V1.49203H13.2159V3.23217H13.5172H13.5151ZM12.2552 2.59007V3.23217H11.9528V2.06092H12.2552V2.19896C12.2973 2.13726 12.3489 2.09334 12.41 2.06824C12.4711 2.04315 12.5417 2.0306 12.6091 2.0306C12.6765 2.0306 12.7366 2.0421 12.7935 2.06406C12.8493 2.08602 12.8978 2.11739 12.9389 2.15713C12.9799 2.19687 13.0116 2.24498 13.0337 2.30145C13.0568 2.35792 13.0674 2.41962 13.0674 2.48759V3.23321H12.7661V2.58903C12.7661 2.50328 12.7461 2.43844 12.706 2.39347C12.666 2.34851 12.5933 2.32655 12.5206 2.32655C12.4869 2.32655 12.4385 2.33177 12.4079 2.34328C12.3774 2.35373 12.351 2.37047 12.3289 2.39243C12.3068 2.41439 12.2889 2.44262 12.2752 2.47504C12.2615 2.50746 12.2552 2.5472 12.2552 2.59112V2.59007ZM11.1448 3.26249C11.2259 3.26249 11.3039 3.24785 11.3608 3.21857C11.4187 3.18929 11.4661 3.1506 11.5051 3.10354V3.23321H11.8064V2.06197H11.5051V2.19164C11.4661 2.14354 11.4176 2.10485 11.3608 2.07452C11.3028 2.04524 11.2259 2.0306 11.1448 2.0306C11.0637 2.0306 10.9878 2.04628 10.9183 2.07766C10.8488 2.10903 10.7877 2.1519 10.7371 2.20733C10.6865 2.26171 10.6465 2.32759 10.617 2.40288C10.5886 2.47818 10.5738 2.55975 10.5738 2.64759C10.5738 2.73543 10.5886 2.817 10.617 2.8923C10.6454 2.96759 10.6855 3.03243 10.7371 3.08785C10.7877 3.14223 10.8488 3.18615 10.9183 3.21753C10.9878 3.2489 11.0637 3.26458 11.1448 3.26458V3.26249ZM11.2027 2.96864C11.1564 2.96864 11.1142 2.96027 11.0774 2.94354C11.0394 2.92681 11.0078 2.9038 10.9815 2.87452C10.9552 2.84524 10.9352 2.81177 10.9204 2.77204C10.9067 2.73334 10.8993 2.69047 10.8993 2.6455C10.8993 2.60053 10.9067 2.55975 10.9204 2.52001C10.9341 2.48027 10.9552 2.44681 10.9815 2.41753C11.0078 2.38824 11.0394 2.36524 11.0774 2.34851C11.1153 2.33177 11.1574 2.32341 11.2027 2.32341C11.248 2.32341 11.2891 2.33177 11.327 2.34746C11.365 2.36315 11.3966 2.38615 11.4229 2.41543C11.4492 2.44471 11.4703 2.47818 11.4851 2.51792C11.4998 2.55766 11.5072 2.60053 11.5072 2.64654C11.5072 2.69256 11.4998 2.73543 11.4851 2.77413C11.4703 2.81387 11.4492 2.84733 11.4229 2.87661C11.3966 2.90589 11.3639 2.92785 11.327 2.94458C11.2902 2.96027 11.248 2.96864 11.2027 2.96864ZM9.28857 1.49831H9.58881V2.65177C9.58881 2.69883 9.59619 2.74171 9.61094 2.7804C9.62569 2.82014 9.64676 2.8536 9.67309 2.88288C9.69943 2.91217 9.73209 2.93413 9.76896 2.95086C9.80583 2.96654 9.84692 2.97491 9.89221 2.97491C9.93751 2.97491 9.98176 2.96654 10.0186 2.94981C10.0555 2.93308 10.0882 2.91007 10.1145 2.88079C10.1408 2.85151 10.1609 2.81805 10.1756 2.77831C10.1893 2.73962 10.1967 2.69674 10.1967 2.65177C10.1967 2.60681 10.1893 2.56602 10.1756 2.52628C10.1619 2.48654 10.1408 2.45308 10.1145 2.4238C10.0882 2.39452 10.0566 2.37151 10.0186 2.35478C9.98176 2.33805 9.93962 2.32968 9.89221 2.32968C9.84481 2.32968 9.80583 2.33805 9.76896 2.35373C9.75737 2.35896 9.74578 2.36419 9.73525 2.37047V2.08393C9.73525 2.08393 9.74367 2.07975 9.74684 2.07766C9.80267 2.04942 9.87009 2.03583 9.95016 2.03583C10.0302 2.03583 10.1071 2.05151 10.1767 2.08288C10.2462 2.11426 10.3073 2.15713 10.3579 2.21256C10.4084 2.26694 10.4495 2.33282 10.4779 2.40811C10.5074 2.48341 10.5222 2.56498 10.5222 2.65282C10.5222 2.74066 10.5074 2.82223 10.479 2.89753C10.4506 2.97282 10.4105 3.03766 10.3589 3.09308C10.3083 3.14746 10.2472 3.19138 10.1777 3.22275C10.1082 3.25413 10.0323 3.26981 9.95121 3.26981C9.87009 3.26981 9.79003 3.25517 9.73314 3.22589C9.67625 3.19661 9.62779 3.15792 9.58881 3.11086V3.24053H9.28857V1.5004V1.49831Z" fill="white"/>
<g id="Group_3">
<path id="Vector_3" fill-rule="evenodd" clip-rule="evenodd" d="M2.21146 2.04419C2.29258 2.04419 2.36843 2.05987 2.43796 2.09125C2.50749 2.12262 2.56859 2.1655 2.61916 2.22092C2.66972 2.2753 2.71081 2.34118 2.73925 2.41648C2.76875 2.49177 2.7835 2.57334 2.7835 2.66118C2.7835 2.74902 2.76875 2.83059 2.74031 2.90589C2.71186 2.98118 2.67183 3.04602 2.62021 3.10144C2.56964 3.15582 2.50854 3.19974 2.43901 3.23112C2.36948 3.26249 2.29363 3.27818 2.21252 3.27818C2.1314 3.27818 2.06503 3.26458 2.0092 3.23634L1.99655 3.23007V2.94353C2.00709 2.94981 2.01762 2.95504 2.02921 2.96027C2.06608 2.97595 2.10717 2.98432 2.15247 2.98432C2.19777 2.98432 2.24201 2.97595 2.27889 2.95922C2.31576 2.94249 2.34841 2.91948 2.37475 2.8902C2.40109 2.86092 2.4211 2.82746 2.43585 2.78772C2.44955 2.74903 2.45692 2.70615 2.45692 2.66118C2.45692 2.61621 2.44955 2.57543 2.43585 2.53569C2.42216 2.49595 2.40109 2.46249 2.37475 2.43321C2.34841 2.40393 2.31681 2.38092 2.27889 2.36419C2.24201 2.34746 2.19987 2.33909 2.15247 2.33909C2.10506 2.33909 2.06608 2.34746 2.02921 2.36314C1.99234 2.37883 1.96074 2.40184 1.93335 2.43112C1.90701 2.4604 1.88594 2.49386 1.87119 2.5336C1.85644 2.57334 1.84907 2.61621 1.84907 2.66118V2.67582V3.73099H1.54883V2.07661H1.85118V2.20628C1.89015 2.15818 1.93861 2.11948 1.9955 2.08916C2.05239 2.05987 2.13035 2.04523 2.21146 2.04523V2.04419ZM3.40294 2.04419C3.48406 2.04419 3.56202 2.05883 3.6189 2.08811C3.67052 2.11425 3.71372 2.14772 3.75059 2.1885L3.76428 2.20419V2.07451H4.06558V3.24576H3.76428V3.11608C3.7253 3.16314 3.67684 3.20184 3.61996 3.23112C3.56202 3.2604 3.48511 3.27504 3.404 3.27504C3.32288 3.27504 3.24703 3.25935 3.1775 3.22798C3.10797 3.19661 3.04687 3.15373 2.9963 3.09831C2.94573 3.04393 2.9057 2.97804 2.8762 2.90275C2.84776 2.82746 2.83301 2.74589 2.83301 2.65804C2.83301 2.5702 2.84776 2.48863 2.8762 2.41334C2.90465 2.33804 2.94468 2.27321 2.9963 2.21778C3.04687 2.1634 3.10797 2.11948 3.1775 2.08811C3.24703 2.05674 3.32288 2.04105 3.404 2.04105L3.40294 2.04419ZM5.39085 1.72733V2.07556H5.79959V2.35582H5.39085V2.78353C5.39085 2.82014 5.39506 2.85046 5.40454 2.87556C5.41402 2.90066 5.42666 2.92157 5.44247 2.93726C5.45827 2.95295 5.47723 2.96445 5.4983 2.97177C5.51937 2.97909 5.54255 2.98223 5.56678 2.98223C5.6047 2.98223 5.66159 2.98327 5.70057 2.96759C5.73112 2.95504 5.76062 2.94144 5.78695 2.9268L5.79854 2.91948V3.22066C5.79117 3.2238 5.78274 3.22798 5.77536 3.23112L5.74903 3.24157C5.68687 3.26458 5.61313 3.27713 5.5299 3.27713C5.38347 3.27713 5.27286 3.23739 5.19911 3.15791C5.12853 3.08157 5.09166 2.97282 5.0885 2.83164V2.80968V1.72837H5.39085V1.72733ZM7.74957 2.04419C7.8349 2.04419 7.91286 2.05883 7.98239 2.08916C8.05297 2.11948 8.11302 2.16131 8.16254 2.21465C8.2131 2.26902 8.25208 2.33386 8.27947 2.40916C8.30686 2.48445 8.32161 2.56811 8.32161 2.65909C8.32161 2.67791 8.32161 2.69674 8.3195 2.71556C8.3195 2.7302 8.3174 2.74275 8.31634 2.75425V2.76471H7.47988L7.4841 2.78249C7.49253 2.81804 7.50411 2.84837 7.52097 2.87347C7.53993 2.9038 7.56205 2.92889 7.58839 2.94876C7.61473 2.96863 7.64423 2.98327 7.67794 2.99268C7.71165 3.0021 7.74641 3.00628 7.78328 3.00628C7.8349 3.00628 7.88652 2.99687 7.93814 2.977C7.98344 2.96027 8.02558 2.93621 8.06456 2.90693L8.08036 2.89334L8.26683 3.09621L8.24787 3.11295C8.18571 3.16628 8.11618 3.20497 8.03928 3.23112C7.955 3.25935 7.86335 3.27399 7.76432 3.27399C7.67478 3.27399 7.59155 3.25935 7.51676 3.23007C7.44196 3.20079 7.3777 3.15896 7.32292 3.10563C7.26919 3.05229 7.22705 2.98746 7.1965 2.91216C7.167 2.83687 7.1512 2.75321 7.1512 2.66118C7.1512 2.56916 7.16595 2.4855 7.19545 2.40916C7.22494 2.33282 7.26498 2.26798 7.31765 2.2136C7.37032 2.15922 7.43248 2.11739 7.50517 2.08706C7.57786 2.05674 7.65897 2.0421 7.74747 2.0421L7.74957 2.04419ZM4.84725 2.04419C4.88096 2.04419 4.91152 2.04628 4.93891 2.05046C4.93996 2.05046 4.94207 2.05046 4.94312 2.05046V2.35059C4.92205 2.34327 4.89887 2.337 4.87359 2.33177C4.83883 2.32445 4.80511 2.32131 4.77246 2.32131C4.73559 2.32131 4.70293 2.32654 4.67238 2.33804C4.64183 2.34955 4.61549 2.36628 4.59442 2.38719C4.5723 2.40916 4.55544 2.43635 4.54385 2.46981C4.53332 2.49804 4.527 2.53046 4.52594 2.56602V2.58484V3.24576H4.21517V2.07451H4.51646V2.2021C4.55333 2.14667 4.59969 2.10589 4.65552 2.08079C4.71136 2.05569 4.77562 2.04314 4.84831 2.04314L4.84725 2.04419ZM9.04851 2.04419C9.08222 2.04419 9.11277 2.04628 9.14016 2.05046C9.14121 2.05046 9.14332 2.05046 9.14437 2.05046V2.35059C9.1233 2.34327 9.10013 2.337 9.07484 2.33177C9.04008 2.32445 9.00637 2.32131 8.97371 2.32131C8.93684 2.32131 8.90418 2.32654 8.87363 2.33804C8.84308 2.34955 8.81674 2.36628 8.79567 2.38719C8.77355 2.40916 8.75669 2.43635 8.74511 2.46981C8.73457 2.49804 8.72825 2.53046 8.7272 2.56602V2.58484V3.24576H8.41642V2.07451H8.71772V2.2021C8.75459 2.14667 8.80094 2.10589 8.85677 2.08079C8.91261 2.05569 8.97687 2.04314 9.04956 2.04314L9.04851 2.04419ZM6.60129 2.04419C6.66766 2.04419 6.72876 2.05569 6.78565 2.07765C6.84253 2.09961 6.88994 2.13099 6.93102 2.17072C6.97106 2.21046 7.00371 2.25857 7.02584 2.31504C7.04901 2.37151 7.05955 2.43321 7.05955 2.50118V3.2468H6.7572V2.60262C6.7572 2.51687 6.73719 2.45203 6.69715 2.40706C6.65712 2.3621 6.58443 2.34014 6.51174 2.34014C6.47803 2.34014 6.42957 2.34536 6.39902 2.35687C6.36847 2.36733 6.34213 2.38406 6.32001 2.40602C6.29789 2.42798 6.27998 2.45621 6.26628 2.48863C6.25259 2.5221 6.24627 2.56079 6.24627 2.60471V3.2468H5.94392V2.07556H6.24627V2.2136C6.28841 2.1519 6.34003 2.10798 6.40113 2.08288C6.46223 2.05778 6.53281 2.04523 6.60023 2.04523L6.60129 2.04419ZM3.46088 2.33804C3.41453 2.33804 3.37239 2.34641 3.33552 2.36314C3.29759 2.37987 3.26599 2.40288 3.23965 2.43216C3.21332 2.46144 3.1933 2.49491 3.17855 2.53465C3.16486 2.57438 3.15748 2.61621 3.15748 2.66014C3.15748 2.70406 3.16486 2.74693 3.17855 2.78667C3.19225 2.82536 3.21332 2.85987 3.23965 2.88916C3.26599 2.91844 3.29759 2.94144 3.33552 2.95818C3.37344 2.97491 3.41558 2.98327 3.46088 2.98327C3.50618 2.98327 3.54727 2.97491 3.58519 2.95922C3.62206 2.94353 3.65472 2.92053 3.68106 2.89125C3.7074 2.86197 3.72846 2.8285 3.74321 2.78876C3.75796 2.74902 3.76534 2.70615 3.76534 2.66118C3.76534 2.61621 3.75796 2.57229 3.74321 2.5336C3.72846 2.49386 3.70845 2.4604 3.68106 2.43112C3.65472 2.40184 3.62206 2.37987 3.58519 2.36314C3.54832 2.34746 3.50618 2.33909 3.46088 2.33909V2.33804ZM7.74641 2.31608C7.67056 2.31608 7.61157 2.337 7.56732 2.37883C7.52729 2.41648 7.4999 2.46876 7.48515 2.53255L7.48094 2.55033H8.00241C7.98766 2.47504 7.95816 2.41648 7.91497 2.37674C7.87072 2.33595 7.81489 2.31608 7.74641 2.31608Z" fill="white"/>
</g>
</g>
<g id="Clip path group">
<mask id="mask0_824_2106" style="mask-type:luminance" maskUnits="userSpaceOnUse" x="0" y="0" width="26" height="17">
<g id="clippath-5">
<path id="Outline_2" d="M0.948126 0.14093H24.6513C25.1749 0.14093 25.5994 0.562368 25.5994 1.08211V15.1998C25.5994 15.7195 25.1749 16.1409 24.6513 16.1409H0.948126C0.42455 16.1409 0 15.7195 0 15.1998V1.08211C0 0.562368 0.42455 0.14093 0.948126 0.14093Z" fill="white"/>
</g>
</mask>
<g mask="url(#mask0_824_2106)">
<g id="Group_4">
<g id="Group_5">
<g id="Group_6">
<g id="Group_7">
<path id="Vector_4" d="M18.1357 2.16969L17.5995 2.52525L17.0623 2.8808L16.526 2.52525L15.9888 2.16969L17.0623 1.45963L18.1357 2.16969Z" stroke="#68C3CD" stroke-width="0.1" stroke-linejoin="round"/>
<path id="Vector_5" d="M18.136 2.16968V3.47059L17.0625 4.1817V2.88079L17.5998 2.52523L18.136 2.16968Z" stroke="#68C3CD" stroke-width="0.1" stroke-linejoin="round"/>
<path id="Vector_6" d="M17.0623 2.88079V4.1817L15.9888 3.47059V2.16968L16.526 2.52523L17.0623 2.88079Z" stroke="#68C3CD" stroke-width="0.1" stroke-linejoin="round"/>
</g>
<g id="Group_8">
<path id="Vector_7" d="M17.0621 4.18172L16.5248 4.53623L15.9886 4.89179L15.4513 4.53623L14.9141 4.18172L15.9886 3.47061L17.0621 4.18172Z" stroke="#68C3CD" stroke-width="0.1" stroke-linejoin="round"/>
<path id="Vector_8" d="M17.0623 4.18173V5.48265L15.9888 6.19271V4.8918L16.525 4.53624L17.0623 4.18173Z" stroke="#68C3CD" stroke-width="0.1" stroke-linejoin="round"/>
<path id="Vector_9" d="M15.9886 4.8918V6.19271L14.9141 5.48265V4.18173L15.4513 4.53624L15.9886 4.8918Z" stroke="#68C3CD" stroke-width="0.1" stroke-linejoin="round"/>
</g>
<g id="Group_9">
<path id="Vector_10" d="M15.9889 6.1927L15.4516 6.54826L14.9143 6.90381L14.3781 6.54826L13.8408 6.1927L14.9143 5.48264L15.9889 6.1927Z" stroke="#68C3CD" stroke-width="0.1" stroke-linejoin="round"/>
<path id="Vector_11" d="M15.9891 6.19269V7.4936L14.9146 8.20471V6.9038L15.4518 6.54824L15.9891 6.19269Z" stroke="#68C3CD" stroke-width="0.1" stroke-linejoin="round"/>
<path id="Vector_12" d="M14.9143 6.9038V8.20471L13.8408 7.4936V6.19269L14.3781 6.54824L14.9143 6.9038Z" stroke="#68C3CD" stroke-width="0.1" stroke-linejoin="round"/>
</g>
<g id="Group_10">
<path id="Vector_13" d="M14.9141 8.20473L14.3779 8.56029L13.8406 8.9148L13.3033 8.56029L12.7671 8.20473L13.8406 7.49362L14.9141 8.20473Z" stroke="#68C3CD" stroke-width="0.1" stroke-linejoin="round"/>
<path id="Vector_14" d="M14.9143 8.20474V9.50566L13.8408 10.2157V8.91481L14.3781 8.5603L14.9143 8.20474Z" stroke="#68C3CD" stroke-width="0.1" stroke-linejoin="round"/>
<path id="Vector_15" d="M13.8406 8.91481V10.2157L12.7671 9.50566V8.20474L13.3033 8.5603L13.8406 8.91481Z" stroke="#68C3CD" stroke-width="0.1" stroke-linejoin="round"/>
</g>
<g id="Group_11">
<path id="Vector_16" d="M13.8409 10.2157L13.3036 10.5713L12.7674 10.9268L12.2301 10.5713L11.6929 10.2157L12.7674 9.50565L13.8409 10.2157Z" stroke="#68C3CD" stroke-width="0.1" stroke-linejoin="round"/>
<path id="Vector_17" d="M13.8411 10.2157V11.5166L12.7676 12.2277V10.9268L13.3038 10.5713L13.8411 10.2157Z" stroke="#68C3CD" stroke-width="0.1" stroke-linejoin="round"/>
<path id="Vector_18" d="M12.7674 10.9268V12.2277L11.6929 11.5166V10.2157L12.2301 10.5713L12.7674 10.9268Z" stroke="#68C3CD" stroke-width="0.1" stroke-linejoin="round"/>
</g>
<g id="Group_12">
<path id="Vector_19" d="M19.2095 4.18172L18.6733 4.53623L18.136 4.89179L17.5998 4.53623L17.0625 4.18172L18.136 3.47061L19.2095 4.18172Z" stroke="#68C3CD" stroke-width="0.1" stroke-linejoin="round"/>
<path id="Vector_20" d="M19.2097 4.18173V5.48265L18.1362 6.19271V4.8918L18.6735 4.53624L19.2097 4.18173Z" stroke="#68C3CD" stroke-width="0.1" stroke-linejoin="round"/>
<path id="Vector_21" d="M18.136 4.8918V6.19271L17.0625 5.48265V4.18173L17.5998 4.53624L18.136 4.8918Z" stroke="#68C3CD" stroke-width="0.1" stroke-linejoin="round"/>
</g>
<g id="Group_13">
<path id="Vector_22" d="M20.2838 2.16969L19.7465 2.52525L19.2103 2.8808L18.673 2.52525L18.1357 2.16969L19.2103 1.45963L20.2838 2.16969Z" stroke="#68C3CD" stroke-width="0.1" stroke-linejoin="round"/>
<path id="Vector_23" d="M20.2839 2.16968V3.47059L19.2104 4.1817V2.88079L19.7467 2.52523L20.2839 2.16968Z" stroke="#68C3CD" stroke-width="0.1" stroke-linejoin="round"/>
<path id="Vector_24" d="M19.2103 2.88079V4.1817L18.1357 3.47059V2.16968L18.673 2.52523L19.2103 2.88079Z" stroke="#68C3CD" stroke-width="0.1" stroke-linejoin="round"/>
</g>
<g id="Group_14">
<path id="Vector_25" d="M19.2095 0.158712L18.6733 0.513222L18.136 0.868778L17.5998 0.513222L17.0625 0.158712L18.136 -0.552399L19.2095 0.158712Z" stroke="#68C3CD" stroke-width="0.1" stroke-linejoin="round"/>
<path id="Vector_26" d="M19.2097 0.158722V1.45964L18.1362 2.1697V0.868787L18.6735 0.513232L19.2097 0.158722Z" stroke="#68C3CD" stroke-width="0.1" stroke-linejoin="round"/>
<path id="Vector_27" d="M18.136 0.868787V2.1697L17.0625 1.45964V0.158722L17.5998 0.513232L18.136 0.868787Z" stroke="#68C3CD" stroke-width="0.1" stroke-linejoin="round"/>
</g>
<g id="Group_15">
<path id="Vector_28" d="M20.284 -1.8533V-0.552387L19.2095 0.158724V-1.14324L19.7467 -1.49775L20.284 -1.8533Z" stroke="#68C3CD" stroke-width="0.1" stroke-linejoin="round"/>
<path id="Vector_29" d="M19.2092 -1.14324V0.158724L18.1357 -0.552387V-1.8533L18.673 -1.49775L19.2092 -1.14324Z" stroke="#68C3CD" stroke-width="0.1" stroke-linejoin="round"/>
</g>
<g id="Group_16">
<path id="Vector_30" d="M18.1357 6.1927L17.5995 6.54826L17.0623 6.90381L16.525 6.54826L15.9888 6.1927L17.0623 5.48264L18.1357 6.1927Z" stroke="#68C3CD" stroke-width="0.1" stroke-linejoin="round"/>
<path id="Vector_31" d="M18.136 6.19269V7.4936L17.0625 8.20471V6.9038L17.5998 6.54824L18.136 6.19269Z" stroke="#68C3CD" stroke-width="0.1" stroke-linejoin="round"/>
<path id="Vector_32" d="M17.0623 6.9038V8.20471L15.9888 7.4936V6.19269L16.525 6.54824L17.0623 6.9038Z" stroke="#68C3CD" stroke-width="0.1" stroke-linejoin="round"/>
</g>
<g id="Group_17">
<path id="Vector_33" d="M17.0621 8.20473L16.5248 8.56029L15.9886 8.9148L15.4513 8.56029L14.9141 8.20473L15.9886 7.49362L17.0621 8.20473Z" stroke="#68C3CD" stroke-width="0.1" stroke-linejoin="round"/>
<path id="Vector_34" d="M17.0623 8.20474V9.50566L15.9888 10.2157V8.91481L16.525 8.5603L17.0623 8.20474Z" stroke="#68C3CD" stroke-width="0.1" stroke-linejoin="round"/>
<path id="Vector_35" d="M15.9886 8.91481V10.2157L14.9141 9.50566V8.20474L15.4513 8.5603L15.9886 8.91481Z" stroke="#68C3CD" stroke-width="0.1" stroke-linejoin="round"/>
</g>
<g id="Group_18">
<path id="Vector_36" d="M15.9878 10.2157L15.4516 10.5713L14.9143 10.9268L14.3781 10.5713L13.8408 10.2157L14.9143 9.50565L15.9878 10.2157Z" stroke="#68C3CD" stroke-width="0.1" stroke-linejoin="round"/>
<path id="Vector_37" d="M15.988 10.2157V11.5166L14.9146 12.2277V10.9268L15.4518 10.5713L15.988 10.2157Z" stroke="#68C3CD" stroke-width="0.1" stroke-linejoin="round"/>
<path id="Vector_38" d="M14.9143 10.9268V12.2277L13.8408 11.5166V10.2157L14.3781 10.5713L14.9143 10.9268Z" stroke="#68C3CD" stroke-width="0.1" stroke-linejoin="round"/>
</g>
<g id="Group_19">
<path id="Vector_39" d="M14.9141 12.2277L14.3769 12.5833L13.8407 12.9378L13.3034 12.5833L12.7661 12.2277L13.8407 11.5166L14.9141 12.2277Z" stroke="#68C3CD" stroke-width="0.1" stroke-linejoin="round"/>
<path id="Vector_40" d="M14.9143 12.2278V13.5287L13.8408 14.2398V12.9378L14.377 12.5833L14.9143 12.2278Z" stroke="#68C3CD" stroke-width="0.1" stroke-linejoin="round"/>
<path id="Vector_41" d="M13.8407 12.9378V14.2398L12.7661 13.5287V12.2278L13.3034 12.5833L13.8407 12.9378Z" stroke="#68C3CD" stroke-width="0.1" stroke-linejoin="round"/>
</g>
<g id="Group_20">
<path id="Vector_42" d="M20.2838 6.1927L19.7465 6.54826L19.2092 6.90381L18.673 6.54826L18.1357 6.1927L19.2092 5.48264L20.2838 6.1927Z" stroke="#68C3CD" stroke-width="0.1" stroke-linejoin="round"/>
<path id="Vector_43" d="M20.284 6.19269V7.4936L19.2095 8.20471V6.9038L19.7467 6.54824L20.284 6.19269Z" stroke="#68C3CD" stroke-width="0.1" stroke-linejoin="round"/>
<path id="Vector_44" d="M19.2092 6.9038V8.20471L18.1357 7.4936V6.19269L18.673 6.54824L19.2092 6.9038Z" stroke="#68C3CD" stroke-width="0.1" stroke-linejoin="round"/>
</g>
<g id="Group_21">
<path id="Vector_45" d="M21.3575 4.18172L20.8202 4.53623L20.284 4.89179L19.7467 4.53623L19.2095 4.18172L20.284 3.47061L21.3575 4.18172Z" stroke="#68C3CD" stroke-width="0.1" stroke-linejoin="round"/>
<path id="Vector_46" d="M21.3577 4.18173V5.48265L20.2842 6.19271V4.8918L20.8204 4.53624L21.3577 4.18173Z" stroke="#68C3CD" stroke-width="0.1" stroke-linejoin="round"/>
<path id="Vector_47" d="M20.284 4.8918V6.19271L19.2095 5.48265V4.18173L19.7467 4.53624L20.284 4.8918Z" stroke="#68C3CD" stroke-width="0.1" stroke-linejoin="round"/>
</g>
<g id="Group_22">
<path id="Vector_48" d="M19.2095 8.20473L18.6733 8.56029L18.136 8.9148L17.5998 8.56029L17.0625 8.20473L18.136 7.49362L19.2095 8.20473Z" stroke="#68C3CD" stroke-width="0.1" stroke-linejoin="round"/>
<path id="Vector_49" d="M19.2097 8.20474V9.50566L18.1362 10.2157V8.91481L18.6735 8.5603L19.2097 8.20474Z" stroke="#68C3CD" stroke-width="0.1" stroke-linejoin="round"/>
<path id="Vector_50" d="M18.136 8.91481V10.2157L17.0625 9.50566V8.20474L17.5998 8.5603L18.136 8.91481Z" stroke="#68C3CD" stroke-width="0.1" stroke-linejoin="round"/>
</g>
<g id="Group_23">
<path id="Vector_51" d="M18.1358 10.2157L17.5986 10.5713L17.0623 10.9268L16.5251 10.5713L15.9878 10.2157L17.0623 9.50565L18.1358 10.2157Z" stroke="#68C3CD" stroke-width="0.1" stroke-linejoin="round"/>
<path id="Vector_52" d="M18.136 10.2157V11.5166L17.0625 12.2277V10.9268L17.5987 10.5713L18.136 10.2157Z" stroke="#68C3CD" stroke-width="0.1" stroke-linejoin="round"/>
<path id="Vector_53" d="M17.0623 10.9268V12.2277L15.9878 11.5166V10.2157L16.5251 10.5713L17.0623 10.9268Z" stroke="#68C3CD" stroke-width="0.1" stroke-linejoin="round"/>
</g>
<g id="Group_24">
<path id="Vector_54" d="M17.0621 12.2277L16.5248 12.5833L15.9876 12.9378L15.4513 12.5833L14.9141 12.2277L15.9876 11.5166L17.0621 12.2277Z" stroke="#68C3CD" stroke-width="0.1" stroke-linejoin="round"/>
<path id="Vector_55" d="M17.0623 12.2278V13.5287L15.9878 14.2398V12.9378L16.5251 12.5833L17.0623 12.2278Z" stroke="#68C3CD" stroke-width="0.1" stroke-linejoin="round"/>
<path id="Vector_56" d="M15.9876 12.9378V14.2398L14.9141 13.5287V12.2278L15.4513 12.5833L15.9876 12.9378Z" stroke="#68C3CD" stroke-width="0.1" stroke-linejoin="round"/>
</g>
<g id="Group_25">
<path id="Vector_57" d="M15.9878 14.2398L15.4516 14.5943L14.9143 14.9498L14.377 14.5943L13.8408 14.2398L14.9143 13.5287L15.9878 14.2398Z" stroke="#68C3CD" stroke-width="0.1" stroke-linejoin="round"/>
<path id="Vector_58" d="M15.988 14.2398V15.5407L14.9146 16.2508V14.9498L15.4518 14.5943L15.988 14.2398Z" stroke="#68C3CD" stroke-width="0.1" stroke-linejoin="round"/>
<path id="Vector_59" d="M14.9143 14.9498V16.2508L13.8408 15.5407V14.2398L14.377 14.5943L14.9143 14.9498Z" stroke="#68C3CD" stroke-width="0.1" stroke-linejoin="round"/>
</g>
<g id="Group_26">
<path id="Vector_60" d="M12.7672 12.2277L12.2299 12.5833L11.6926 12.9378L11.1564 12.5833L10.6191 12.2277L11.6926 11.5166L12.7672 12.2277Z" stroke="#68C3CD" stroke-width="0.1" stroke-linejoin="round"/>
<path id="Vector_61" d="M12.7674 12.2278V13.5287L11.6929 14.2398V12.9378L12.2301 12.5833L12.7674 12.2278Z" stroke="#68C3CD" stroke-width="0.1" stroke-linejoin="round"/>
<path id="Vector_62" d="M11.6926 12.9378V14.2398L10.6191 13.5287V12.2278L11.1564 12.5833L11.6926 12.9378Z" stroke="#68C3CD" stroke-width="0.1" stroke-linejoin="round"/>
</g>
<g id="Group_27">
<path id="Vector_63" d="M13.8409 14.2398L13.3036 14.5943L12.7674 14.9498L12.2301 14.5943L11.6929 14.2398L12.7674 13.5287L13.8409 14.2398Z" stroke="#68C3CD" stroke-width="0.1" stroke-linejoin="round"/>
<path id="Vector_64" d="M13.8411 14.2398V15.5407L12.7676 16.2508V14.9498L13.3038 14.5943L13.8411 14.2398Z" stroke="#68C3CD" stroke-width="0.1" stroke-linejoin="round"/>
<path id="Vector_65" d="M12.7674 14.9498V16.2508L11.6929 15.5407V14.2398L12.2301 14.5943L12.7674 14.9498Z" stroke="#68C3CD" stroke-width="0.1" stroke-linejoin="round"/>
</g>
<g id="Group_28">
<path id="Vector_66" d="M14.9141 16.2507L14.3769 16.6063L13.8407 16.9619L13.3034 16.6063L12.7661 16.2507L13.8407 15.5407L14.9141 16.2507Z" stroke="#68C3CD" stroke-width="0.1" stroke-linejoin="round"/>
</g>
<g id="Group_29">
<path id="Vector_67" d="M11.6929 14.2398L11.1567 14.5943L10.6194 14.9498L10.0821 14.5943L9.5459 14.2398L10.6194 13.5287L11.6929 14.2398Z" stroke="#68C3CD" stroke-width="0.1" stroke-linejoin="round"/>
<path id="Vector_68" d="M11.6931 14.2398V15.5407L10.6196 16.2508V14.9498L11.1569 14.5943L11.6931 14.2398Z" stroke="#68C3CD" stroke-width="0.1" stroke-linejoin="round"/>
<path id="Vector_69" d="M10.6194 14.9498V16.2508L9.5459 15.5407V14.2398L10.0821 14.5943L10.6194 14.9498Z" stroke="#68C3CD" stroke-width="0.1" stroke-linejoin="round"/>
</g>
<g id="Group_30">
<path id="Vector_70" d="M12.7661 16.2507L12.2299 16.6063L11.6926 16.9619L11.1564 16.6063L10.6191 16.2507L11.6926 15.5407L12.7661 16.2507Z" stroke="#68C3CD" stroke-width="0.1" stroke-linejoin="round"/>
</g>
<g id="Group_31">
<path id="Vector_71" d="M10.6192 16.2507L10.082 16.6063L9.54573 16.9619L9.00846 16.6063L8.47119 16.2507L9.54573 15.5407L10.6192 16.2507Z" stroke="#68C3CD" stroke-width="0.1" stroke-linejoin="round"/>
</g>
<g id="Group_32">
<path id="Vector_72" d="M21.3575 8.20473L20.8202 8.56029L20.284 8.9148L19.7467 8.56029L19.2095 8.20473L20.284 7.49362L21.3575 8.20473Z" stroke="#68C3CD" stroke-width="0.1" stroke-linejoin="round"/>
<path id="Vector_73" d="M21.3577 8.20474V9.50566L20.2842 10.2157V8.91481L20.8204 8.5603L21.3577 8.20474Z" stroke="#68C3CD" stroke-width="0.1" stroke-linejoin="round"/>
<path id="Vector_74" d="M20.284 8.91481V10.2157L19.2095 9.50566V8.20474L19.7467 8.5603L20.284 8.91481Z" stroke="#68C3CD" stroke-width="0.1" stroke-linejoin="round"/>
</g>
<g id="Group_33">
<path id="Vector_75" d="M22.4307 6.1927L21.8945 6.54826L21.3572 6.90381L20.8199 6.54826L20.2837 6.1927L21.3572 5.48264L22.4307 6.1927Z" stroke="#68C3CD" stroke-width="0.1" stroke-linejoin="round"/>
<path id="Vector_76" d="M22.4309 6.19269V7.4936L21.3574 8.20471V6.9038L21.8947 6.54824L22.4309 6.19269Z" stroke="#68C3CD" stroke-width="0.1" stroke-linejoin="round"/>
<path id="Vector_77" d="M21.3572 6.9038V8.20471L20.2837 7.4936V6.19269L20.8199 6.54824L21.3572 6.9038Z" stroke="#68C3CD" stroke-width="0.1" stroke-linejoin="round"/>
</g>
<g id="Group_34">
<path id="Vector_78" d="M23.5055 4.18172L22.9682 4.53623L22.4309 4.89179L21.8947 4.53623L21.3574 4.18172L22.4309 3.47061L23.5055 4.18172Z" stroke="#68C3CD" stroke-width="0.1" stroke-linejoin="round"/>
<path id="Vector_79" d="M23.5057 4.18173V5.48265L22.4312 6.19271V4.8918L22.9684 4.53624L23.5057 4.18173Z" stroke="#68C3CD" stroke-width="0.1" stroke-linejoin="round"/>
<path id="Vector_80" d="M22.4309 4.8918V6.19271L21.3574 5.48265V4.18173L21.8947 4.53624L22.4309 4.8918Z" stroke="#68C3CD" stroke-width="0.1" stroke-linejoin="round"/>
</g>
<g id="Group_35">
<path id="Vector_81" d="M22.4307 2.16969L21.8945 2.52525L21.3572 2.8808L20.821 2.52525L20.2837 2.16969L21.3572 1.45963L22.4307 2.16969Z" stroke="#68C3CD" stroke-width="0.1" stroke-linejoin="round"/>
<path id="Vector_82" d="M22.4309 2.16968V3.47059L21.3574 4.1817V2.88079L21.8947 2.52523L22.4309 2.16968Z" stroke="#68C3CD" stroke-width="0.1" stroke-linejoin="round"/>
<path id="Vector_83" d="M21.3572 2.88079V4.1817L20.2837 3.47059V2.16968L20.821 2.52523L21.3572 2.88079Z" stroke="#68C3CD" stroke-width="0.1" stroke-linejoin="round"/>
</g>
<g id="Group_36">
<path id="Vector_84" d="M21.3575 0.158712L20.8202 0.513222L20.284 0.868778L19.7467 0.513222L19.2095 0.158712L20.284 -0.552399L21.3575 0.158712Z" stroke="#68C3CD" stroke-width="0.1" stroke-linejoin="round"/>
<path id="Vector_85" d="M21.3577 0.158722V1.45964L20.2842 2.1697V0.868787L20.8204 0.513232L21.3577 0.158722Z" stroke="#68C3CD" stroke-width="0.1" stroke-linejoin="round"/>
<path id="Vector_86" d="M20.284 0.868787V2.1697L19.2095 1.45964V0.158722L19.7467 0.513232L20.284 0.868787Z" stroke="#68C3CD" stroke-width="0.1" stroke-linejoin="round"/>
</g>
<g id="Group_37">
<path id="Vector_87" d="M22.4309 -1.8533V-0.552387L21.3574 0.158724V-1.14324L21.8947 -1.49775L22.4309 -1.8533Z" stroke="#68C3CD" stroke-width="0.1" stroke-linejoin="round"/>
<path id="Vector_88" d="M21.3572 -1.14324V0.158724L20.2837 -0.552387V-1.8533L20.8199 -1.49775L21.3572 -1.14324Z" stroke="#68C3CD" stroke-width="0.1" stroke-linejoin="round"/>
</g>
<g id="Group_38">
<path id="Vector_89" d="M24.5787 2.16969L24.0414 2.52525L23.5052 2.8808L22.9679 2.52525L22.4307 2.16969L23.5052 1.45963L24.5787 2.16969Z" stroke="#68C3CD" stroke-width="0.1" stroke-linejoin="round"/>
<path id="Vector_90" d="M24.5789 2.16968V3.47059L23.5054 4.1817V2.88079L24.0416 2.52523L24.5789 2.16968Z" stroke="#68C3CD" stroke-width="0.1" stroke-linejoin="round"/>
<path id="Vector_91" d="M23.5052 2.88079V4.1817L22.4307 3.47059V2.16968L22.9679 2.52523L23.5052 2.88079Z" stroke="#68C3CD" stroke-width="0.1" stroke-linejoin="round"/>
</g>
<g id="Group_39">
<path id="Vector_92" d="M25.6523 0.158712L25.1161 0.513222L24.5789 0.868778L24.0416 0.513222L23.5054 0.158712L24.5789 -0.552399L25.6523 0.158712Z" stroke="#68C3CD" stroke-width="0.1" stroke-linejoin="round"/>
<path id="Vector_93" d="M25.6526 0.158722V1.45964L24.5791 2.1697V0.868787L25.1164 0.513232L25.6526 0.158722Z" stroke="#68C3CD" stroke-width="0.1" stroke-linejoin="round"/>
<path id="Vector_94" d="M24.5789 0.868787V2.1697L23.5054 1.45964V0.158722L24.0416 0.513232L24.5789 0.868787Z" stroke="#68C3CD" stroke-width="0.1" stroke-linejoin="round"/>
</g>
<g id="Group_40">
<path id="Vector_95" d="M23.5055 0.158712L22.9682 0.513222L22.4309 0.868778L21.8947 0.513222L21.3574 0.158712L22.4309 -0.552399L23.5055 0.158712Z" stroke="#68C3CD" stroke-width="0.1" stroke-linejoin="round"/>
<path id="Vector_96" d="M23.5057 0.158722V1.45964L22.4312 2.1697V0.868787L22.9684 0.513232L23.5057 0.158722Z" stroke="#68C3CD" stroke-width="0.1" stroke-linejoin="round"/>
<path id="Vector_97" d="M22.4309 0.868787V2.1697L21.3574 1.45964V0.158722L21.8947 0.513232L22.4309 0.868787Z" stroke="#68C3CD" stroke-width="0.1" stroke-linejoin="round"/>
</g>
<g id="Group_41">
<path id="Vector_98" d="M24.5789 -1.8533V-0.552387L23.5054 0.158724V-1.14324L24.0416 -1.49775L24.5789 -1.8533Z" stroke="#68C3CD" stroke-width="0.1" stroke-linejoin="round"/>
<path id="Vector_99" d="M23.5052 -1.14324V0.158724L22.4307 -0.552387V-1.8533L22.9679 -1.49775L23.5052 -1.14324Z" stroke="#68C3CD" stroke-width="0.1" stroke-linejoin="round"/>
</g>
<g id="Group_42">
<path id="Vector_100" d="M20.2838 10.2157L19.7465 10.5713L19.2092 10.9268L18.673 10.5713L18.1357 10.2157L19.2092 9.50565L20.2838 10.2157Z" stroke="#68C3CD" stroke-width="0.1" stroke-linejoin="round"/>
<path id="Vector_101" d="M20.284 10.2157V11.5166L19.2095 12.2277V10.9268L19.7467 10.5713L20.284 10.2157Z" stroke="#68C3CD" stroke-width="0.1" stroke-linejoin="round"/>
<path id="Vector_102" d="M19.2092 10.9268V12.2277L18.1357 11.5166V10.2157L18.673 10.5713L19.2092 10.9268Z" stroke="#68C3CD" stroke-width="0.1" stroke-linejoin="round"/>
</g>
<g id="Group_43">
<path id="Vector_103" d="M19.2095 12.2277L18.6733 12.5833L18.136 12.9378L17.5998 12.5833L17.0625 12.2277L18.136 11.5166L19.2095 12.2277Z" stroke="#68C3CD" stroke-width="0.1" stroke-linejoin="round"/>
<path id="Vector_104" d="M19.2097 12.2278V13.5287L18.1362 14.2398V12.9378L18.6735 12.5833L19.2097 12.2278Z" stroke="#68C3CD" stroke-width="0.1" stroke-linejoin="round"/>
<path id="Vector_105" d="M18.136 12.9378V14.2398L17.0625 13.5287V12.2278L17.5998 12.5833L18.136 12.9378Z" stroke="#68C3CD" stroke-width="0.1" stroke-linejoin="round"/>
</g>
<g id="Group_44">
<path id="Vector_106" d="M18.1358 14.2398L17.5986 14.5943L17.0623 14.9498L16.5251 14.5943L15.9878 14.2398L17.0623 13.5287L18.1358 14.2398Z" stroke="#68C3CD" stroke-width="0.1" stroke-linejoin="round"/>
<path id="Vector_107" d="M18.136 14.2398V15.5407L17.0625 16.2508V14.9498L17.5987 14.5943L18.136 14.2398Z" stroke="#68C3CD" stroke-width="0.1" stroke-linejoin="round"/>
<path id="Vector_108" d="M17.0623 14.9498V16.2508L15.9878 15.5407V14.2398L16.5251 14.5943L17.0623 14.9498Z" stroke="#68C3CD" stroke-width="0.1" stroke-linejoin="round"/>
</g>
<g id="Group_45">
<path id="Vector_109" d="M17.0621 16.2507L16.5248 16.6063L15.9876 16.9619L15.4513 16.6063L14.9141 16.2507L15.9876 15.5407L17.0621 16.2507Z" stroke="#68C3CD" stroke-width="0.1" stroke-linejoin="round"/>
</g>
</g>
<g id="Group_46">
<g id="Group_47">
<path id="Vector_110" d="M26.7271 2.16969L26.1899 2.52525L25.6526 2.8808L25.1164 2.52525L24.5791 2.16969L25.6526 1.45963L26.7271 2.16969Z" stroke="#68C3CD" stroke-width="0.1" stroke-linejoin="round"/>
<path id="Vector_111" d="M25.6526 2.88079V4.1817L24.5791 3.47059V2.16968L25.1164 2.52523L25.6526 2.88079Z" stroke="#68C3CD" stroke-width="0.1" stroke-linejoin="round"/>
</g>
<g id="Group_48">
<path id="Vector_112" d="M25.6523 4.18172L25.1161 4.53623L24.5789 4.89179L24.0416 4.53623L23.5054 4.18172L24.5789 3.47061L25.6523 4.18172Z" stroke="#68C3CD" stroke-width="0.1" stroke-linejoin="round"/>
<path id="Vector_113" d="M25.6526 4.18173V5.48265L24.5791 6.19271V4.8918L25.1164 4.53624L25.6526 4.18173Z" stroke="#68C3CD" stroke-width="0.1" stroke-linejoin="round"/>
<path id="Vector_114" d="M24.5789 4.8918V6.19271L23.5054 5.48265V4.18173L24.0416 4.53624L24.5789 4.8918Z" stroke="#68C3CD" stroke-width="0.1" stroke-linejoin="round"/>
</g>
<g id="Group_49">
<path id="Vector_115" d="M24.5792 6.1927L24.0419 6.54826L23.5057 6.90381L22.9684 6.54826L22.4312 6.1927L23.5057 5.48264L24.5792 6.1927Z" stroke="#68C3CD" stroke-width="0.1" stroke-linejoin="round"/>
<path id="Vector_116" d="M24.5793 6.19269V7.4936L23.5059 8.20471V6.9038L24.0421 6.54824L24.5793 6.19269Z" stroke="#68C3CD" stroke-width="0.1" stroke-linejoin="round"/>
<path id="Vector_117" d="M23.5057 6.9038V8.20471L22.4312 7.4936V6.19269L22.9684 6.54824L23.5057 6.9038Z" stroke="#68C3CD" stroke-width="0.1" stroke-linejoin="round"/>
</g>
<g id="Group_50">
<path id="Vector_118" d="M23.5044 8.20473L22.9682 8.56029L22.4309 8.9148L21.8947 8.56029L21.3574 8.20473L22.4309 7.49362L23.5044 8.20473Z" stroke="#68C3CD" stroke-width="0.1" stroke-linejoin="round"/>
<path id="Vector_119" d="M23.5046 8.20474V9.50566L22.4312 10.2157V8.91481L22.9684 8.5603L23.5046 8.20474Z" stroke="#68C3CD" stroke-width="0.1" stroke-linejoin="round"/>
<path id="Vector_120" d="M22.4309 8.91481V10.2157L21.3574 9.50566V8.20474L21.8947 8.5603L22.4309 8.91481Z" stroke="#68C3CD" stroke-width="0.1" stroke-linejoin="round"/>
</g>
<g id="Group_51">
<path id="Vector_121" d="M22.4312 10.2157L21.894 10.5713L21.3577 10.9268L20.8205 10.5713L20.2832 10.2157L21.3577 9.50565L22.4312 10.2157Z" stroke="#68C3CD" stroke-width="0.1" stroke-linejoin="round"/>
<path id="Vector_122" d="M22.4314 10.2157V11.5166L21.3579 12.2277V10.9268L21.8941 10.5713L22.4314 10.2157Z" stroke="#68C3CD" stroke-width="0.1" stroke-linejoin="round"/>
<path id="Vector_123" d="M21.3577 10.9268V12.2277L20.2832 11.5166V10.2157L20.8205 10.5713L21.3577 10.9268Z" stroke="#68C3CD" stroke-width="0.1" stroke-linejoin="round"/>
</g>
<g id="Group_52">
<path id="Vector_124" d="M26.7261 6.1927L26.1899 6.54826L25.6526 6.90381L25.1164 6.54826L24.5791 6.1927L25.6526 5.48264L26.7261 6.1927Z" stroke="#68C3CD" stroke-width="0.1" stroke-linejoin="round"/>
<path id="Vector_125" d="M25.6526 6.9038V8.20471L24.5791 7.4936V6.19269L25.1164 6.54824L25.6526 6.9038Z" stroke="#68C3CD" stroke-width="0.1" stroke-linejoin="round"/>
</g>
<g id="Group_53">
<path id="Vector_126" d="M25.6524 8.20473L25.1152 8.56029L24.5789 8.9148L24.0417 8.56029L23.5044 8.20473L24.5789 7.49362L25.6524 8.20473Z" stroke="#68C3CD" stroke-width="0.1" stroke-linejoin="round"/>
<path id="Vector_127" d="M25.6526 8.20474V9.50566L24.5791 10.2157V8.91481L25.1153 8.5603L25.6526 8.20474Z" stroke="#68C3CD" stroke-width="0.1" stroke-linejoin="round"/>
<path id="Vector_128" d="M24.5789 8.91481V10.2157L23.5044 9.50566V8.20474L24.0417 8.5603L24.5789 8.91481Z" stroke="#68C3CD" stroke-width="0.1" stroke-linejoin="round"/>
</g>
<g id="Group_54">
<path id="Vector_129" d="M24.5792 10.2157L24.0419 10.5713L23.5046 10.9268L22.9684 10.5713L22.4312 10.2157L23.5046 9.50565L24.5792 10.2157Z" stroke="#68C3CD" stroke-width="0.1" stroke-linejoin="round"/>
<path id="Vector_130" d="M24.5794 10.2157V11.5166L23.5049 12.2277V10.9268L24.0422 10.5713L24.5794 10.2157Z" stroke="#68C3CD" stroke-width="0.1" stroke-linejoin="round"/>
<path id="Vector_131" d="M23.5046 10.9268V12.2277L22.4312 11.5166V10.2157L22.9684 10.5713L23.5046 10.9268Z" stroke="#68C3CD" stroke-width="0.1" stroke-linejoin="round"/>
</g>
<g id="Group_55">
<path id="Vector_132" d="M23.5044 12.2277L22.9682 12.5833L22.4309 12.9378L21.8936 12.5833L21.3574 12.2277L22.4309 11.5166L23.5044 12.2277Z" stroke="#68C3CD" stroke-width="0.1" stroke-linejoin="round"/>
<path id="Vector_133" d="M23.5046 12.2278V13.5287L22.4312 14.2398V12.9378L22.9684 12.5833L23.5046 12.2278Z" stroke="#68C3CD" stroke-width="0.1" stroke-linejoin="round"/>
<path id="Vector_134" d="M22.4309 12.9378V14.2398L21.3574 13.5287V12.2278L21.8936 12.5833L22.4309 12.9378Z" stroke="#68C3CD" stroke-width="0.1" stroke-linejoin="round"/>
</g>
<g id="Group_56">
<path id="Vector_135" d="M26.7261 10.2157L26.1899 10.5713L25.6526 10.9268L25.1153 10.5713L24.5791 10.2157L25.6526 9.50565L26.7261 10.2157Z" stroke="#68C3CD" stroke-width="0.1" stroke-linejoin="round"/>
<path id="Vector_136" d="M25.6526 10.9268V12.2277L24.5791 11.5166V10.2157L25.1153 10.5713L25.6526 10.9268Z" stroke="#68C3CD" stroke-width="0.1" stroke-linejoin="round"/>
</g>
<g id="Group_57">
<path id="Vector_137" d="M25.6524 12.2277L25.1152 12.5833L24.5789 12.9378L24.0417 12.5833L23.5044 12.2277L24.5789 11.5166L25.6524 12.2277Z" stroke="#68C3CD" stroke-width="0.1" stroke-linejoin="round"/>
<path id="Vector_138" d="M25.6526 12.2278V13.5287L24.5791 14.2398V12.9378L25.1153 12.5833L25.6526 12.2278Z" stroke="#68C3CD" stroke-width="0.1" stroke-linejoin="round"/>
<path id="Vector_139" d="M24.5789 12.9378V14.2398L23.5044 13.5287V12.2278L24.0417 12.5833L24.5789 12.9378Z" stroke="#68C3CD" stroke-width="0.1" stroke-linejoin="round"/>
</g>
<g id="Group_58">
<path id="Vector_140" d="M24.5781 14.2398L24.0419 14.5943L23.5046 14.9498L22.9684 14.5943L22.4312 14.2398L23.5046 13.5287L24.5781 14.2398Z" stroke="#68C3CD" stroke-width="0.1" stroke-linejoin="round"/>
<path id="Vector_141" d="M24.5784 14.2398V15.5407L23.5049 16.2508V14.9498L24.0422 14.5943L24.5784 14.2398Z" stroke="#68C3CD" stroke-width="0.1" stroke-linejoin="round"/>
<path id="Vector_142" d="M23.5046 14.9498V16.2508L22.4312 15.5407V14.2398L22.9684 14.5943L23.5046 14.9498Z" stroke="#68C3CD" stroke-width="0.1" stroke-linejoin="round"/>
</g>
<g id="Group_59">
<path id="Vector_143" d="M21.3575 12.2277L20.8202 12.5833L20.284 12.9378L19.7467 12.5833L19.2095 12.2277L20.284 11.5166L21.3575 12.2277Z" stroke="#68C3CD" stroke-width="0.1" stroke-linejoin="round"/>
<path id="Vector_144" d="M21.3577 12.2278V13.5287L20.2842 14.2398V12.9378L20.8204 12.5833L21.3577 12.2278Z" stroke="#68C3CD" stroke-width="0.1" stroke-linejoin="round"/>
<path id="Vector_145" d="M20.284 12.9378V14.2398L19.2095 13.5287V12.2278L19.7467 12.5833L20.284 12.9378Z" stroke="#68C3CD" stroke-width="0.1" stroke-linejoin="round"/>
</g>
<g id="Group_60">
<path id="Vector_146" d="M22.4312 14.2398L21.894 14.5943L21.3577 14.9498L20.8205 14.5943L20.2832 14.2398L21.3577 13.5287L22.4312 14.2398Z" stroke="#68C3CD" stroke-width="0.1" stroke-linejoin="round"/>
<path id="Vector_147" d="M22.4314 14.2398V15.5407L21.3579 16.2508V14.9498L21.8941 14.5943L22.4314 14.2398Z" stroke="#68C3CD" stroke-width="0.1" stroke-linejoin="round"/>
<path id="Vector_148" d="M21.3577 14.9498V16.2508L20.2832 15.5407V14.2398L20.8205 14.5943L21.3577 14.9498Z" stroke="#68C3CD" stroke-width="0.1" stroke-linejoin="round"/>
</g>
<g id="Group_61">
<path id="Vector_149" d="M23.5044 16.2507L22.9682 16.6063L22.4309 16.9619L21.8936 16.6063L21.3574 16.2507L22.4309 15.5407L23.5044 16.2507Z" stroke="#68C3CD" stroke-width="0.1" stroke-linejoin="round"/>
</g>
<g id="Group_62">
<path id="Vector_150" d="M20.2832 14.2398L19.747 14.5943L19.2097 14.9498L18.6735 14.5943L18.1362 14.2398L19.2097 13.5287L20.2832 14.2398Z" stroke="#68C3CD" stroke-width="0.1" stroke-linejoin="round"/>
<path id="Vector_151" d="M20.2835 14.2398V15.5407L19.21 16.2508V14.9498L19.7472 14.5943L20.2835 14.2398Z" stroke="#68C3CD" stroke-width="0.1" stroke-linejoin="round"/>
<path id="Vector_152" d="M19.2097 14.9498V16.2508L18.1362 15.5407V14.2398L18.6735 14.5943L19.2097 14.9498Z" stroke="#68C3CD" stroke-width="0.1" stroke-linejoin="round"/>
</g>
<g id="Group_63">
<path id="Vector_153" d="M21.3575 16.2507L20.8202 16.6063L20.283 16.9619L19.7467 16.6063L19.2095 16.2507L20.283 15.5407L21.3575 16.2507Z" stroke="#68C3CD" stroke-width="0.1" stroke-linejoin="round"/>
</g>
<g id="Group_64">
<path id="Vector_154" d="M19.2095 16.2507L18.6733 16.6063L18.136 16.9619L17.5987 16.6063L17.0625 16.2507L18.136 15.5407L19.2095 16.2507Z" stroke="#68C3CD" stroke-width="0.1" stroke-linejoin="round"/>
</g>
<g id="Group_65">
<path id="Vector_155" d="M26.7261 14.2398L26.1899 14.5943L25.6526 14.9498L25.1153 14.5943L24.5791 14.2398L25.6526 13.5287L26.7261 14.2398Z" stroke="#68C3CD" stroke-width="0.1" stroke-linejoin="round"/>
<path id="Vector_156" d="M25.6526 14.9498V16.2508L24.5791 15.5407V14.2398L25.1153 14.5943L25.6526 14.9498Z" stroke="#68C3CD" stroke-width="0.1" stroke-linejoin="round"/>
</g>
<g id="Group_66">
<path id="Vector_157" d="M25.6524 16.2507L25.1152 16.6063L24.5789 16.9619L24.0417 16.6063L23.5044 16.2507L24.5789 15.5407L25.6524 16.2507Z" stroke="#68C3CD" stroke-width="0.1" stroke-linejoin="round"/>
</g>
</g>
</g>
</g>
</g>
</g>
<g id="Symbol">
<g id="Group_67">
<path id="Vector_158" d="M22.7399 12.2915H21.2861V14.885H22.7399V12.2915Z" fill="#F26122"/>
<path id="Vector_159" d="M21.378 13.5872C21.378 13.0612 21.6266 12.5927 22.0122 12.2905C21.7299 12.0698 21.3727 11.938 20.9851 11.938C20.0675 11.938 19.3237 12.6763 19.3237 13.5872C19.3237 14.498 20.0675 15.2363 20.9851 15.2363C21.3727 15.2363 21.7288 15.1046 22.0122 14.8839C21.6256 14.5817 21.378 14.1132 21.378 13.5872Z" fill="#ED1C24"/>
<path id="Vector_160" d="M24.7007 13.5872C24.7007 14.498 23.9569 15.2363 23.0393 15.2363C22.6517 15.2363 22.2956 15.1046 22.0122 14.8839C22.3988 14.5817 22.6464 14.1132 22.6464 13.5872C22.6464 13.0612 22.3978 12.5927 22.0122 12.2905C22.2945 12.0698 22.6517 11.938 23.0393 11.938C23.9569 11.938 24.7007 12.6763 24.7007 13.5872Z" fill="#F99F1C"/>
</g>
</g>
</g>
<defs>
<linearGradient id="paint0_linear_824_2106" x1="12.7997" y1="16.1409" x2="12.7997" y2="0.163936" gradientUnits="userSpaceOnUse">
<stop stop-color="#27AAB8"/>
<stop offset="1" stop-color="#17A786"/>
</linearGradient>
</defs>
</svg>
