<svg width="28" height="20" viewBox="0 0 28 20" fill="none" xmlns="http://www.w3.org/2000/svg">
<g id="logo">
<g id="Group 534">
<path id="Fill 1" fill-rule="evenodd" clip-rule="evenodd" d="M10.8857 16.2896H17.8545V3.71051H10.8857V16.2896Z" fill="#FF5F00"/>
<path id="Fill 2" fill-rule="evenodd" clip-rule="evenodd" d="M10.8436 10C10.8436 7.44804 12.0331 5.17516 13.8855 3.7105C12.5307 2.63917 10.8215 2.00006 8.96359 2.00006C4.56533 2.00006 1 5.58183 1 10C1 14.4182 4.56533 18 8.96359 18C10.8215 18 12.5307 17.3609 13.8855 16.2896C12.0331 14.8247 10.8436 12.552 10.8436 10Z" fill="#EB001B"/>
<path id="Fill 4" fill-rule="evenodd" clip-rule="evenodd" d="M27.4913 14.9573V14.6468H27.4106L27.3179 14.8604L27.225 14.6468H27.1442V14.9573H27.2011V14.723L27.2882 14.925H27.3473L27.4345 14.7226V14.9573H27.4913ZM26.9801 14.9573V14.6997H27.0836V14.6473H26.8203V14.6997H26.9236V14.9573H26.9801ZM27.74 9.99997C27.74 14.4182 24.1744 17.9999 19.7764 17.9999C17.9185 17.9999 16.2091 17.3608 14.8545 16.2895C16.7068 14.8248 17.8964 12.552 17.8964 9.99997C17.8964 7.4482 16.7068 5.17532 14.8545 3.71044C16.2091 2.63911 17.9185 2 19.7764 2C24.1744 2 27.74 5.58176 27.74 9.99997Z" fill="#F79E1B"/>
</g>
</g>
</svg>
