<svg width="24" height="24" viewBox="0 0 24 24" fill="none" xmlns="http://www.w3.org/2000/svg">
<path fill-rule="evenodd" clip-rule="evenodd" d="M5.79255 2.44116C6.10119 2.7174 6.12746 3.19155 5.85121 3.50019C4.83387 4.63686 4.12789 6.05581 3.86478 7.6241C3.79625 8.0326 3.40953 8.3082 3.00103 8.23967C2.59252 8.17114 2.31692 7.78442 2.38546 7.37592C2.69691 5.51948 3.53256 3.84163 4.73351 2.49982C5.00976 2.19118 5.4839 2.16491 5.79255 2.44116ZM18.2088 2.44116C18.5174 2.16491 18.9916 2.19118 19.2678 2.49982C20.4688 3.84163 21.3044 5.51948 21.6159 7.37592C21.6844 7.78442 21.4088 8.17114 21.0003 8.23967C20.5918 8.3082 20.2051 8.0326 20.1366 7.6241C19.8735 6.05581 19.1675 4.63686 18.1501 3.50019C17.8739 3.19155 17.9002 2.7174 18.2088 2.44116ZM12.0007 3.75001C9.10119 3.75001 6.75068 6.10051 6.75068 9.00001L6.75048 9.75001C6.75048 9.75007 6.75048 9.74994 6.75048 9.75001C6.75044 11.8594 6.07983 13.8136 4.94093 15.4091C6.31981 15.848 7.75462 16.1617 9.23215 16.337C10.1396 16.4446 11.0634 16.5 12.0005 16.5C12.9376 16.5 13.8616 16.4446 14.7692 16.3369C16.2466 16.1617 17.6813 15.848 19.06 15.4091C17.9211 13.8136 17.2505 11.8595 17.2505 9.75001V9.04317L17.2507 9.00001C17.2507 6.10051 14.9002 3.75001 12.0007 3.75001ZM5.25068 9.00001C5.25068 5.27209 8.27276 2.25001 12.0007 2.25001C15.7286 2.25001 18.7507 5.27209 18.7507 9.00001L18.7505 9.04919V9.75001C18.7505 11.8731 19.5515 13.8074 20.869 15.2699C21.0355 15.4547 21.0995 15.71 21.04 15.9516C20.9804 16.1931 20.8049 16.3893 20.5715 16.4755C19.0275 17.0455 17.4112 17.4659 15.7403 17.7192C15.7472 17.812 15.7507 17.9056 15.7507 18C15.7507 20.0711 14.0717 21.75 12.0007 21.75C9.92961 21.75 8.25068 20.0711 8.25068 18C8.25068 17.9056 8.25418 17.812 8.26107 17.7193C6.59001 17.4659 4.97354 17.0455 3.42942 16.4755C3.19606 16.3893 3.02059 16.1931 2.961 15.9516C2.9014 15.71 2.96543 15.4547 3.13193 15.2699C4.44947 13.8074 5.25048 11.8731 5.25048 9.75001L5.25068 9.00001ZM9.75288 17.8993C9.75142 17.9326 9.75068 17.9662 9.75068 18C9.75068 19.2426 10.758 20.25 12.0007 20.25C13.2433 20.25 14.2507 19.2426 14.2507 18C14.2507 17.9662 14.2499 17.9326 14.2485 17.8992C13.5079 17.9659 12.7581 18 12.0005 18C11.243 18 10.4933 17.966 9.75288 17.8993Z" fill="#18a886"/>
</svg>
