<svg width="24" height="24" viewBox="0 0 24 24" fill="none" xmlns="http://www.w3.org/2000/svg">
<path fill-rule="evenodd" clip-rule="evenodd" d="M3.30604 9.67286C4.59252 4.87166 9.52755 2.02242 14.3288 3.3089C15.9112 3.7329 17.2834 4.55445 18.3646 5.63755C18.3647 5.63763 18.3645 5.63746 18.3646 5.63755L20.2652 7.53811V4.35794C20.2652 3.94373 20.6009 3.60794 21.0152 3.60794C21.4294 3.60794 21.7652 3.94373 21.7652 4.35794V9.35054C21.7652 9.76476 21.4294 10.1006 21.0152 10.1006H16.0226C15.6083 10.1006 15.2726 9.76476 15.2726 9.35054C15.2726 8.93633 15.6083 8.60054 16.0226 8.60054H19.2063L17.3037 6.69797C16.4038 5.79643 15.2615 5.11174 13.9406 4.75779C9.93952 3.68572 5.82699 6.06009 4.75493 10.0611C4.64772 10.4612 4.23647 10.6987 3.83637 10.5915C3.43627 10.4843 3.19883 10.073 3.30604 9.67286ZM20.1624 13.4131C20.5625 13.5203 20.7999 13.9316 20.6927 14.3316C19.4063 19.1328 14.4712 21.9821 9.67 20.6956C8.08763 20.2716 6.71543 19.4501 5.63428 18.3671L3.73389 16.4654V19.6466C3.73389 20.0608 3.3981 20.3966 2.98389 20.3966C2.56968 20.3966 2.23389 20.0608 2.23389 19.6466V14.6539C2.23389 14.2397 2.56968 13.9039 2.98389 13.9039H7.97653C8.39074 13.9039 8.72653 14.2397 8.72653 14.6539C8.72653 15.0681 8.39075 15.4039 7.97653 15.4039H4.79372L6.69529 17.3067C7.59514 18.2083 8.73725 18.8928 10.0583 19.2467C14.0593 20.3188 18.1718 17.9444 19.2439 13.9434C19.3511 13.5433 19.7623 13.3059 20.1624 13.4131Z" fill="#141413"/>
</svg>
