<svg width="24" height="24" viewBox="0 0 24 24" fill="none" xmlns="http://www.w3.org/2000/svg">
<path fill-rule="evenodd" clip-rule="evenodd" d="M3.30628 9.67091C4.59276 4.86971 9.52779 2.02047 14.329 3.30695C15.9114 3.73095 17.2836 4.5525 18.3648 5.6356C18.3649 5.63568 18.3647 5.63551 18.3648 5.6356L20.2654 7.53616V4.35599C20.2654 3.94178 20.6011 3.60599 21.0154 3.60599C21.4296 3.60599 21.7654 3.94178 21.7654 4.35599V9.34859C21.7654 9.76281 21.4296 10.0986 21.0154 10.0986H16.0228C15.6085 10.0986 15.2728 9.76281 15.2728 9.34859C15.2728 8.93438 15.6085 8.59859 16.0228 8.59859H19.2065L17.3039 6.69602C16.404 5.79448 15.2617 5.10979 13.9408 4.75584C9.93976 3.68377 5.82723 6.05814 4.75517 10.0591C4.64796 10.4592 4.23671 10.6967 3.83661 10.5895C3.43651 10.4823 3.19907 10.071 3.30628 9.67091ZM20.1626 13.4111C20.5627 13.5183 20.8001 13.9296 20.6929 14.3296C19.4065 19.1308 14.4714 21.9801 9.67024 20.6936C8.08787 20.2696 6.71567 19.4481 5.63452 18.3651L3.73413 16.4634V19.6446C3.73413 20.0588 3.39834 20.3946 2.98413 20.3946C2.56992 20.3946 2.23413 20.0588 2.23413 19.6446V14.6519C2.23413 14.2377 2.56992 13.9019 2.98413 13.9019L7.97677 13.9019C8.39098 13.9019 8.72677 14.2377 8.72677 14.6519C8.72677 15.0661 8.39099 15.4019 7.97677 15.4019L4.79396 15.4019L6.69553 17.3047C7.59538 18.2063 8.73749 18.8908 10.0585 19.2447C14.0595 20.3168 18.172 17.9424 19.2441 13.9414C19.3513 13.5413 19.7625 13.3039 20.1626 13.4111Z" fill="#141413"/>
</svg>
