<svg width="28" height="28" viewBox="0 0 28 28" fill="none" xmlns="http://www.w3.org/2000/svg">
<path fill-rule="evenodd" clip-rule="evenodd" d="M1.75 6.5625C1.75 5.35438 2.72938 4.375 3.9375 4.375H24.0625C25.2706 4.375 26.25 5.35438 26.25 6.5625V17.9375C26.25 19.1456 25.2706 20.125 24.0625 20.125H3.9375C2.72938 20.125 1.75 19.1456 1.75 17.9375V6.5625ZM22.75 18.375H5.25C5.25 17.4085 4.4665 16.625 3.5 16.625V7.875C4.4665 7.875 5.25 7.0915 5.25 6.125H22.75C22.75 7.0915 23.5335 7.875 24.5 7.875V16.625C23.5335 16.625 22.75 17.4085 22.75 18.375ZM14 9.625C12.5503 9.625 11.375 10.8003 11.375 12.25C11.375 13.6997 12.5503 14.875 14 14.875C15.4497 14.875 16.625 13.6997 16.625 12.25C16.625 10.8003 15.4497 9.625 14 9.625ZM9.625 12.25C9.625 9.83375 11.5838 7.875 14 7.875C16.4162 7.875 18.375 9.83375 18.375 12.25C18.375 14.6662 16.4162 16.625 14 16.625C11.5838 16.625 9.625 14.6662 9.625 12.25ZM6.125 12.25C6.125 11.7668 6.51675 11.375 7 11.375H7.00875C7.492 11.375 7.88375 11.7668 7.88375 12.25V12.2588C7.88375 12.742 7.492 13.1338 7.00875 13.1338H7C6.51675 13.1338 6.125 12.742 6.125 12.2588V12.25ZM20.125 12.25C20.125 11.7668 20.5168 11.375 21 11.375H21.0087C21.492 11.375 21.8837 11.7668 21.8837 12.25V12.2588C21.8837 12.742 21.492 13.1338 21.0087 13.1338H21C20.5168 13.1338 20.125 12.742 20.125 12.2588V12.25ZM1.75 21.875C1.75 21.3918 2.14175 21 2.625 21C9.08173 21 15.3381 21.8636 21.2844 23.4821C21.5917 23.5658 21.875 23.3338 21.875 23.0476V21.875C21.875 21.3918 22.2668 21 22.75 21C23.2332 21 23.625 21.3918 23.625 21.875V23.0476C23.625 24.5196 22.2137 25.5488 20.8247 25.1707C15.0269 23.5926 8.92505 22.75 2.625 22.75C2.14175 22.75 1.75 22.3582 1.75 21.875Z" fill="url(#paint0_linear_1325_19448)"/>
<defs>
<linearGradient id="paint0_linear_1325_19448" x1="14" y1="4.375" x2="14" y2="25.2494" gradientUnits="userSpaceOnUse">
<stop stop-color="#18A886"/>
<stop offset="1" stop-color="#2BAAB9"/>
</linearGradient>
</defs>
</svg>
