<svg width="24" height="24" viewBox="0 0 24 24" fill="none" xmlns="http://www.w3.org/2000/svg">
<path fill-rule="evenodd" clip-rule="evenodd" d="M11.5841 2.37596C11.836 2.20801 12.1642 2.20801 12.4161 2.37596L21.4161 8.37596C21.7608 8.60573 21.8539 9.07138 21.6241 9.41603C21.3944 9.76067 20.9287 9.8538 20.5841 9.62404L12.0001 3.90139L3.4161 9.62404C3.07146 9.8538 2.60581 9.76067 2.37604 9.41603C2.14628 9.07138 2.23941 8.60573 2.58405 8.37596L11.5841 2.37596ZM11.2501 6.75C11.2501 6.33579 11.5859 6 12.0001 6H12.0076C12.4218 6 12.7576 6.33579 12.7576 6.75V6.7575C12.7576 7.17171 12.4218 7.5075 12.0076 7.5075H12.0001C11.5859 7.5075 11.2501 7.17171 11.2501 6.7575V6.75ZM5.25008 10.9784V20.25H7.50008V12.75C7.50008 12.3358 7.83587 12 8.25008 12C8.66429 12 9.00008 12.3358 9.00008 12.75V20.25H11.2501V12.75C11.2501 12.3358 11.5859 12 12.0001 12C12.4143 12 12.7501 12.3358 12.7501 12.75V20.25H15.0001V12.75C15.0001 12.3358 15.3359 12 15.7501 12C16.1643 12 16.5001 12.3358 16.5001 12.75V20.25H18.7501V10.9784C16.5459 10.6632 14.2922 10.5 12.0001 10.5C9.70792 10.5 7.45429 10.6632 5.25008 10.9784ZM20.2501 20.25V10.3325C20.2501 9.96317 19.9812 9.64882 19.6163 9.59157C17.1343 9.20211 14.5905 9 12.0001 9C9.40962 9 6.86586 9.20211 4.38382 9.59157C4.01896 9.64882 3.75008 9.96317 3.75008 10.3325V20.25H3.00008C2.58587 20.25 2.25008 20.5858 2.25008 21C2.25008 21.4142 2.58587 21.75 3.00008 21.75H21.0001C21.4143 21.75 21.7501 21.4142 21.7501 21C21.7501 20.5858 21.4143 20.25 21.0001 20.25H20.2501Z" fill="#017F96"/>
</svg>
