<svg width="25" height="16" viewBox="0 0 25 16" fill="none" xmlns="http://www.w3.org/2000/svg">
<path d="M18.5762 0.352951C18.455 0.149344 18.2357 0.0133544 17.9855 0.0133544C17.6038 0.0133544 17.2944 0.329534 17.2944 0.719727C17.2944 0.92531 17.3804 1.11039 17.5176 1.23951L22.7269 7.69477L17.5755 14.0274H17.0138H15.3501L20.2184 8.23713C20.2215 8.23356 20.2244 8.22998 20.2274 8.22641C20.3641 8.07443 20.4244 7.8964 20.4212 7.72092C20.4244 7.54552 20.3641 7.36749 20.2284 7.21514L20.2274 7.21542C20.2244 7.21185 20.2215 7.20828 20.2184 7.2048L14.405 0.364143C14.4037 0.362544 14.4024 0.360945 14.4011 0.359346C14.2807 0.152165 14.0595 0.0133544 13.8068 0.0133544H9.7239C9.34227 0.0133544 9.03286 0.329534 9.03286 0.719727C9.03286 0.83813 9.04868 0.961235 9.11198 1.04785L14.5227 7.74715L9.91123 13.4024C9.88381 13.4304 9.48644 14.0092 8.78776 14.0092H3.28027C2.53126 14.0092 1.91013 13.4118 1.91013 12.6181V2.81496C1.91013 2.1241 2.53126 1.41453 3.29719 1.41453H6.72354C7.12744 1.41453 7.41459 1.13259 7.41459 0.719727C7.41459 0.306869 7.12744 0 6.72354 0L3.26361 0.0140127C1.62455 0.0140127 0.523438 1.39582 0.523438 2.80057V12.6181C0.523438 14.1307 1.82797 15.419 3.26361 15.419H8.76954C9.04721 15.419 9.30123 15.3774 9.52996 15.3108C9.56262 15.3013 9.59482 15.2913 9.62638 15.2808C10.3855 15.0294 10.8437 14.5127 10.9324 14.4032L16.1222 8.22067C16.3677 7.936 16.4003 7.52314 16.1262 7.21514L16.1252 7.21542C16.1222 7.21185 16.1193 7.20828 16.1163 7.2048L11.2072 1.41453H12.9117H13.4734L18.6035 7.72101L13.205 14.3774C13.2032 14.3794 13.2066 14.3851 13.2142 14.3941C13.1638 14.4922 13.1351 14.6037 13.1351 14.7222C13.1351 15.1123 13.4445 15.4286 13.826 15.4286H17.9089C18.1617 15.4286 18.3827 15.2896 18.5033 15.0825C18.5046 15.0809 18.5058 15.0793 18.5071 15.0778L24.3206 8.23713C24.3237 8.23356 24.3265 8.22998 24.3296 8.22641C24.6046 7.91869 24.572 7.50583 24.3265 7.22116L18.5762 0.352951Z" fill="#141413"/>
</svg>
