<svg width="24" height="24" viewBox="0 0 24 24" fill="none" xmlns="http://www.w3.org/2000/svg">
<path fill-rule="evenodd" clip-rule="evenodd" d="M13.2996 4.75042C12.7224 3.74986 11.2783 3.74986 10.7011 4.75042L3.34679 17.498C2.76987 18.498 3.49159 19.7475 4.64607 19.7475H19.3547C20.5092 19.7475 21.2309 18.498 20.654 17.498L13.2996 4.75042ZM9.40184 4.00083C10.5563 1.99972 13.4444 1.99972 14.5989 4.00083L21.9532 16.7484C23.1071 18.7484 21.6637 21.2475 19.3547 21.2475H4.64607C2.3371 21.2475 0.89367 18.7484 2.04752 16.7484L9.40184 4.00083ZM12.0004 9.2475C12.4146 9.2475 12.7504 9.58329 12.7504 9.9975V13.7475C12.7504 14.1618 12.4146 14.4975 12.0004 14.4975C11.5861 14.4975 11.2504 14.1618 11.2504 13.7475V9.9975C11.2504 9.58329 11.5861 9.2475 12.0004 9.2475ZM11.2504 16.7475C11.2504 16.3333 11.5861 15.9975 12.0004 15.9975H12.0079C12.4221 15.9975 12.7579 16.3333 12.7579 16.7475V16.755C12.7579 17.1693 12.4221 17.505 12.0079 17.505H12.0004C11.5861 17.505 11.2504 17.1693 11.2504 16.755V16.7475Z" fill="#0D1F7E"/>
</svg>
