<svg width="28" height="28" viewBox="0 0 28 28" fill="none" xmlns="http://www.w3.org/2000/svg">
<path fill-rule="evenodd" clip-rule="evenodd" d="M14.0016 6.125C8.97624 6.125 4.70988 9.38436 3.2055 13.9069C3.18474 13.9692 3.18476 14.0371 3.20555 14.0995C4.71181 18.6187 8.97654 21.875 13.9995 21.875C19.0249 21.875 23.2912 18.6156 24.7956 14.0932C24.8164 14.0308 24.8163 13.9629 24.7956 13.9005C23.2893 9.38132 19.0246 6.125 14.0016 6.125ZM1.54496 13.3545C3.28009 8.13833 8.20021 4.375 14.0016 4.375C19.8002 4.375 24.7185 8.13483 26.4558 13.3472C26.5962 13.7684 26.5963 14.2242 26.4561 14.6455C24.721 19.8617 19.8009 23.625 13.9995 23.625C8.20086 23.625 3.28262 19.8652 1.54534 14.6528C1.40494 14.2316 1.40481 13.7758 1.54496 13.3545ZM14.0006 11.375C12.5509 11.375 11.3756 12.5503 11.3756 14C11.3756 15.4497 12.5509 16.625 14.0006 16.625C15.4504 16.625 16.6256 15.4497 16.6256 14C16.6256 12.5503 15.4504 11.375 14.0006 11.375ZM9.62564 14C9.62564 11.5838 11.5844 9.625 14.0006 9.625C16.4169 9.625 18.3756 11.5838 18.3756 14C18.3756 16.4162 16.4169 18.375 14.0006 18.375C11.5844 18.375 9.62564 16.4162 9.62564 14Z" fill="#18a886"/>
</svg>
