<svg width="28" height="28" viewBox="0 0 28 28" fill="none" xmlns="http://www.w3.org/2000/svg">
<path fill-rule="evenodd" clip-rule="evenodd" d="M14.0011 6.125C8.97575 6.125 4.70939 9.38436 3.20501 13.9069C3.18425 13.9692 3.18427 14.0371 3.20506 14.0995C4.71132 18.6187 8.97605 21.875 13.999 21.875C19.0244 21.875 23.2907 18.6156 24.7951 14.0932C24.8159 14.0308 24.8158 13.9629 24.7951 13.9005C23.2888 9.38132 19.0241 6.125 14.0011 6.125ZM1.54447 13.3545C3.2796 8.13833 8.19972 4.375 14.0011 4.375C19.7997 4.375 24.718 8.13483 26.4553 13.3472C26.5957 13.7684 26.5958 14.2242 26.4556 14.6455C24.7205 19.8617 19.8004 23.625 13.999 23.625C8.20037 23.625 3.28213 19.8652 1.54485 14.6528C1.40445 14.2316 1.40432 13.7758 1.54447 13.3545ZM14.0001 11.375C12.5504 11.375 11.3751 12.5503 11.3751 14C11.3751 15.4497 12.5504 16.625 14.0001 16.625C15.4499 16.625 16.6251 15.4497 16.6251 14C16.6251 12.5503 15.4499 11.375 14.0001 11.375ZM9.62515 14C9.62515 11.5838 11.5839 9.625 14.0001 9.625C16.4164 9.625 18.3751 11.5838 18.3751 14C18.3751 16.4162 16.4164 18.375 14.0001 18.375C11.5839 18.375 9.62515 16.4162 9.62515 14Z" fill="#E60028"/>
</svg>
