<svg width="20" height="20" viewBox="0 0 20 20" fill="none" xmlns="http://www.w3.org/2000/svg">
<path fill-rule="evenodd" clip-rule="evenodd" d="M1.25 2.5C1.25 2.15482 1.52982 1.875 1.875 1.875H3.02974C3.73762 1.875 4.35708 2.35091 4.53948 3.0349L4.73223 3.75772C5.02921 3.75258 5.32681 3.75 5.625 3.75C9.96135 3.75 14.1712 4.29535 18.1894 5.32152C18.3578 5.36452 18.5007 5.47569 18.5837 5.62833C18.6668 5.78097 18.6826 5.96131 18.6273 6.12605C17.9319 8.19669 17.1064 10.2075 16.1604 12.1488C16.0557 12.3637 15.8376 12.5 15.5985 12.5H6.25C5.43361 12.5 4.73909 13.0218 4.48169 13.75H16.875C17.2202 13.75 17.5 14.0298 17.5 14.375C17.5 14.7202 17.2202 15 16.875 15H3.75C3.40482 15 3.125 14.7202 3.125 14.375C3.125 12.9209 4.11815 11.6988 5.46313 11.3499L3.65102 4.55445L3.65102 4.55445L3.33169 3.35698L3.33169 3.35698C3.29521 3.22018 3.17132 3.125 3.02974 3.125H1.875C1.52982 3.125 1.25 2.84518 1.25 2.5ZM5.06434 5.00312L6.73017 11.25H15.2061C15.9617 9.66781 16.6354 8.03912 17.222 6.36941C13.5032 5.47431 9.61988 5 5.625 5C5.43787 5 5.25098 5.00104 5.06434 5.00312ZM3.125 16.875C3.125 16.1846 3.68464 15.625 4.375 15.625C5.06536 15.625 5.625 16.1846 5.625 16.875C5.625 17.5654 5.06536 18.125 4.375 18.125C3.68464 18.125 3.125 17.5654 3.125 16.875ZM13.75 16.875C13.75 16.1846 14.3096 15.625 15 15.625C15.6904 15.625 16.25 16.1846 16.25 16.875C16.25 17.5654 15.6904 18.125 15 18.125C14.3096 18.125 13.75 17.5654 13.75 16.875Z" fill="white"/>
</svg>
