<svg width="24" height="24" viewBox="0 0 24 24" fill="none" xmlns="http://www.w3.org/2000/svg">
<path fill-rule="evenodd" clip-rule="evenodd" d="M12.2652 3.57663C12.1187 3.43018 11.8813 3.43019 11.7348 3.57663L5.25 10.0615V19.8758C5.25 20.0829 5.41789 20.2508 5.625 20.2508H9V16.1258C9 15.0903 9.83947 14.2508 10.875 14.2508H13.125C14.1605 14.2508 15 15.0903 15 16.1258V20.2508H18.375C18.5821 20.2508 18.75 20.0829 18.75 19.8758V10.0615L12.2652 3.57663ZM20.25 11.5615L21.2197 12.5311C21.5126 12.824 21.9874 12.824 22.2803 12.5311C22.5732 12.2382 22.5732 11.7634 22.2803 11.4705L13.3258 2.51597C12.5936 1.78374 11.4064 1.78374 10.6742 2.51597L1.71967 11.4705C1.42678 11.7634 1.42678 12.2382 1.71967 12.5311C2.01256 12.824 2.48744 12.824 2.78033 12.5311L3.75 11.5615V19.8758C3.75 20.9113 4.58947 21.7508 5.625 21.7508H18.375C19.4105 21.7508 20.25 20.9113 20.25 19.8758V11.5615ZM13.5 20.2508H10.5V16.1258C10.5 15.9187 10.6679 15.7508 10.875 15.7508H13.125C13.3321 15.7508 13.5 15.9187 13.5 16.1258V20.2508Z" fill="#18A886"/>
</svg>
