<svg width="24" height="24" viewBox="0 0 24 24" fill="none" xmlns="http://www.w3.org/2000/svg">
<path d="M19.5 10.1667V14.8333M18.3333 13.7374L18.6752 13.9937C19.1306 14.3356 19.8691 14.3356 20.3248 13.9937C20.7806 13.6519 20.7806 13.0981 20.3248 12.7563C20.0973 12.5852 19.7987 12.5 19.5 12.5C19.2181 12.5 18.9361 12.4144 18.7211 12.2437C18.2909 11.9019 18.2909 11.3481 18.7211 11.0063C19.1512 10.6644 19.8488 10.6644 20.2789 11.0063L20.4403 11.1346M23 12.5C23 12.9596 22.9095 13.4148 22.7336 13.8394C22.5577 14.264 22.2999 14.6499 21.9749 14.9749C21.6499 15.2999 21.264 15.5577 20.8394 15.7336C20.4148 15.9095 19.9596 16 19.5 16C19.0404 16 18.5852 15.9095 18.1606 15.7336C17.736 15.5577 17.3501 15.2999 17.0251 14.9749C16.7001 14.6499 16.4423 14.264 16.2664 13.8394C16.0905 13.4148 16 12.9596 16 12.5C16 11.5717 16.3687 10.6815 17.0251 10.0251C17.6815 9.36875 18.5717 9 19.5 9C20.4283 9 21.3185 9.36875 21.9749 10.0251C22.6313 10.6815 23 11.5717 23 12.5Z" stroke="#18a886" stroke-width="0.8" stroke-linecap="round" stroke-linejoin="round"/>
<mask id="mask0_1567_23554" style="mask-type:alpha" maskUnits="userSpaceOnUse" x="1" y="4" width="17" height="17">
<path fill-rule="evenodd" clip-rule="evenodd" d="M17.0739 8.63779C15.6137 9.31043 14.6 10.7868 14.6 12.5C14.6 14.2132 15.6137 15.6896 17.0739 16.3622C15.6673 19.1152 12.8037 21 9.5 21C4.80558 21 1 17.1944 1 12.5C1 7.80558 4.80558 4 9.5 4C12.8037 4 15.6673 5.88481 17.0739 8.63779Z" fill="#D9D9D9"/>
</mask>
<g mask="url(#mask0_1567_23554)">
<path d="M9.5001 20.1516C11.1959 20.1515 12.8436 19.5882 14.1845 18.5502C15.5254 17.5122 16.4837 16.0583 16.9087 14.4166M9.5001 20.1516C7.80436 20.1515 6.15666 19.5882 4.81573 18.5502C3.4748 17.5122 2.51657 16.0583 2.0915 14.4166M9.5001 20.1516C11.6124 20.1516 13.3251 16.7261 13.3251 12.5016C13.3251 8.27706 11.6124 4.85156 9.5001 4.85156M9.5001 20.1516C7.38785 20.1516 5.6751 16.7261 5.6751 12.5016C5.6751 8.27706 7.38785 4.85156 9.5001 4.85156M16.9087 14.4166C17.066 13.8046 17.1501 13.1629 17.1501 12.5016C17.1522 11.1859 16.8134 9.89205 16.1667 8.74626M16.9087 14.4166C14.6419 15.6733 12.0919 16.3307 9.5001 16.3266C6.8124 16.3266 4.28705 15.6338 2.0915 14.4166M2.0915 14.4166C1.93064 13.791 1.84953 13.1476 1.8501 12.5016C1.8501 11.1373 2.2071 9.85551 2.83355 8.74626M9.5001 4.85156C10.8569 4.85099 12.1895 5.21141 13.361 5.89584C14.5325 6.58026 15.5009 7.56405 16.1667 8.74626M9.5001 4.85156C8.1433 4.85099 6.81077 5.21141 5.63924 5.89584C4.46771 6.58026 3.49936 7.56405 2.83355 8.74626M16.1667 8.74626C14.3159 10.3493 11.9486 11.2301 9.5001 11.2266C6.9518 11.2266 4.6211 10.2916 2.83355 8.74626" stroke="#18a886" stroke-width="1.2" stroke-linecap="round" stroke-linejoin="round"/>
</g>
</svg>
