<svg width="28" height="28" viewBox="0 0 28 28" fill="none" xmlns="http://www.w3.org/2000/svg">
<path fill-rule="evenodd" clip-rule="evenodd" d="M14.875 7.875C14.875 4.49226 17.6173 1.75 21 1.75C24.3827 1.75 27.125 4.49226 27.125 7.875V12.25C27.125 12.7332 26.7332 13.125 26.25 13.125C25.7668 13.125 25.375 12.7332 25.375 12.25V7.875C25.375 5.45875 23.4162 3.5 21 3.5C18.5838 3.5 16.625 5.45875 16.625 7.875V11.375C18.558 11.375 20.125 12.942 20.125 14.875V22.75C20.125 24.683 18.558 26.25 16.625 26.25H4.375C2.442 26.25 0.875 24.683 0.875 22.75V14.875C0.875 12.942 2.442 11.375 4.375 11.375H14.875V7.875ZM4.375 13.125C3.4085 13.125 2.625 13.9085 2.625 14.875V22.75C2.625 23.7165 3.4085 24.5 4.375 24.5H16.625C17.5915 24.5 18.375 23.7165 18.375 22.75V14.875C18.375 13.9085 17.5915 13.125 16.625 13.125H4.375Z" fill="#017F96"/>
</svg>
