<svg width="28" height="20" viewBox="0 0 28 20" fill="none" xmlns="http://www.w3.org/2000/svg">
<path fill-rule="evenodd" clip-rule="evenodd" d="M10.8855 16.2895H17.8542V3.71045H10.8855V16.2895Z" fill="#FF5F00"/>
<path fill-rule="evenodd" clip-rule="evenodd" d="M10.8436 9.99997C10.8436 7.44798 12.0331 5.1751 13.8855 3.71044C12.5307 2.63911 10.8215 2 8.96359 2C4.56533 2 1 5.58176 1 9.99997C1 14.4182 4.56533 17.9999 8.96359 17.9999C10.8215 17.9999 12.5307 17.3608 13.8855 16.2895C12.0331 14.8246 10.8436 12.552 10.8436 9.99997Z" fill="#EB001B"/>
<path fill-rule="evenodd" clip-rule="evenodd" d="M27.4911 14.9573V14.6468H27.4103L27.3176 14.8604L27.2247 14.6468H27.144V14.9573H27.2008V14.723L27.288 14.925H27.3471L27.4342 14.7226V14.9573H27.4911ZM26.9798 14.9573V14.6997H27.0833V14.6473H26.8201V14.6997H26.9234V14.9573H26.9798ZM27.7398 9.99997C27.7398 14.4182 24.1742 17.9999 19.7762 17.9999C17.9183 17.9999 16.2088 17.3608 14.8542 16.2895C16.7066 14.8248 17.8962 12.552 17.8962 9.99997C17.8962 7.4482 16.7066 5.17532 14.8542 3.71044C16.2088 2.63911 17.9183 2 19.7762 2C24.1742 2 27.7398 5.58176 27.7398 9.99997Z" fill="#F79E1B"/>
</svg>
