<svg width="28" height="20" viewBox="0 0 28 20" fill="none" xmlns="http://www.w3.org/2000/svg">
<path fill-rule="evenodd" clip-rule="evenodd" d="M10.8857 16.29H17.8544V3.71094H10.8857V16.29Z" fill="#FF5F00"/>
<path fill-rule="evenodd" clip-rule="evenodd" d="M10.8436 9.99997C10.8436 7.44798 12.0331 5.1751 13.8855 3.71044C12.5307 2.63911 10.8215 2 8.96359 2C4.56533 2 1 5.58176 1 9.99997C1 14.4182 4.56533 17.9999 8.96359 17.9999C10.8215 17.9999 12.5307 17.3608 13.8855 16.2895C12.0331 14.8246 10.8436 12.552 10.8436 9.99997Z" fill="#EB001B"/>
<path fill-rule="evenodd" clip-rule="evenodd" d="M27.4909 14.9573V14.6468H27.4101L27.3174 14.8604L27.2245 14.6468H27.1438V14.9573H27.2006V14.723L27.2878 14.925H27.3469L27.434 14.7226V14.9573H27.4909ZM26.9796 14.9573V14.6997H27.0831V14.6473H26.8199V14.6997H26.9232V14.9573H26.9796ZM27.7396 9.99997C27.7396 14.4182 24.174 17.9999 19.776 17.9999C17.9181 17.9999 16.2086 17.3608 14.854 16.2895C16.7064 14.8248 17.896 12.552 17.896 9.99997C17.896 7.4482 16.7064 5.17532 14.854 3.71044C16.2086 2.63911 17.9181 2 19.776 2C24.174 2 27.7396 5.58176 27.7396 9.99997Z" fill="#F79E1B"/>
</svg>
