<svg width="80" height="49" viewBox="0 0 80 49" fill="none" xmlns="http://www.w3.org/2000/svg">
<rect x="27.6349" y="5.15625" width="23.6204" height="37.9018" fill="#FF5F00"/>
<path fill-rule="evenodd" clip-rule="evenodd" d="M30.1318 24.1071C30.1318 16.4062 33.7882 9.57589 39.4083 5.15625C35.2779 1.94196 30.0641 0 24.3763 0C10.9016 0 0 10.7813 0 24.1071C0 37.433 10.9016 48.2143 24.3763 48.2143C30.0641 48.2143 35.2779 46.2723 39.4083 43.058C33.7882 38.6384 30.1318 31.808 30.1318 24.1071Z" fill="#EB001B"/>
<path fill-rule="evenodd" clip-rule="evenodd" d="M78.8839 24.1071C78.8839 37.433 67.9823 48.2143 54.5076 48.2143C48.8198 48.2143 43.606 46.2723 39.4756 43.058C45.1634 38.6384 48.7521 31.808 48.7521 24.1071C48.7521 16.4062 45.0957 9.57589 39.4756 5.15625C43.606 1.94196 48.8198 0 54.5076 0C67.9823 0 78.8839 10.7813 78.8839 24.1071ZM76.5814 39.04V38.2365H76.92V38.1025H76.1074V38.2365H76.446V39.04H76.5814ZM78.1391 39.0402V38.1027H77.8682L77.5974 38.7723L77.3265 38.1027H77.0557V39.0402H77.2588V38.3036L77.5297 38.9062H77.7328L78.0036 38.3036V39.0402H78.1391Z" fill="#F79E1B"/>
</svg>
