<svg width="24" height="24" viewBox="0 0 24 24" fill="none" xmlns="http://www.w3.org/2000/svg">
<path fill-rule="evenodd" clip-rule="evenodd" d="M23.7392 16.6763V17.2917H23.6868V16.8264L23.6064 17.2279H23.552L23.4718 16.8273V17.2917H23.4192V16.6763H23.4937L23.5793 17.0994L23.6649 16.6763H23.7392ZM23.2679 16.7809V17.2917H23.216V16.7809H23.1206V16.6767H23.3633V16.7809H23.2679Z" fill="#F89E1B"/>
<path d="M8.73779 18.2302H15.2332V6.63135H8.73779V18.2302Z" fill="#F16522"/>
<path d="M9.15614 12.3846C9.15614 10.0289 10.2626 7.93097 11.9855 6.57884C10.7256 5.58999 9.13547 5 7.40753 5C3.31642 5 0 8.30619 0 12.3846C0 16.463 3.31642 19.7692 7.40753 19.7692C9.13547 19.7692 10.7256 19.1792 11.9855 18.1904C10.2626 16.8383 9.15614 14.7403 9.15614 12.3846Z" fill="#E52523"/>
<path d="M23.9709 12.3846C23.9709 16.463 20.6544 19.7692 16.5633 19.7692C14.8352 19.7692 13.2453 19.1792 11.9854 18.1904C13.7082 16.8383 14.8147 14.7403 14.8147 12.3846C14.8147 10.0289 13.7082 7.93097 11.9854 6.57884C13.2453 5.58999 14.8352 5 16.5633 5C20.6544 5 23.9709 8.30619 23.9709 12.3846Z" fill="#F89E1B"/>
</svg>
