<svg width="24" height="24" viewBox="0 0 24 24" fill="none" xmlns="http://www.w3.org/2000/svg">
<g clip-path="url(#clip0_1567_23546)">
<mask id="mask0_1567_23546" style="mask-type:luminance" maskUnits="userSpaceOnUse" x="0" y="0" width="24" height="24">
<path d="M24 0H0V24H24V0Z" fill="white"/>
</mask>
<g mask="url(#mask0_1567_23546)">
<path fill-rule="evenodd" clip-rule="evenodd" d="M10.0078 6.12951C10.0078 5.85951 10.2246 5.64062 10.4921 5.64062H11.387C11.9356 5.64062 12.4157 6.01289 12.5571 6.54792L12.7065 7.11333C12.9366 7.10931 13.1672 7.1073 13.3983 7.1073C16.7589 7.1073 20.0216 7.53389 23.1356 8.33658C23.2661 8.37022 23.3768 8.45717 23.4412 8.57657C23.5056 8.69597 23.5178 8.83703 23.4749 8.9659C22.936 10.5856 22.2962 12.1585 21.5631 13.677C21.482 13.8451 21.3129 13.9518 21.1277 13.9518H13.8827C13.25 13.9518 12.7118 14.3599 12.5123 14.9295H22.1169C22.3844 14.9295 22.6013 15.1484 22.6013 15.4184C22.6013 15.6884 22.3844 15.9073 22.1169 15.9073H11.9452C11.6777 15.9073 11.4609 15.6884 11.4609 15.4184C11.4609 14.281 12.2305 13.325 13.2729 13.0521L11.6211 6.79986C11.5928 6.69286 11.4968 6.6184 11.387 6.6184H10.4921C10.2246 6.6184 10.0078 6.39952 10.0078 6.12951ZM12.9638 8.08751L14.2548 12.974H20.8236C21.4091 11.7364 21.9313 10.4624 22.3858 9.15626C19.5038 8.45608 16.4943 8.08507 13.3983 8.08507C13.2533 8.08507 13.1085 8.08588 12.9638 8.08751ZM11.4609 17.374C11.4609 16.834 11.8946 16.3962 12.4296 16.3962C12.9646 16.3962 13.3983 16.834 13.3983 17.374C13.3983 17.914 12.9646 18.3518 12.4296 18.3518C11.8946 18.3518 11.4609 17.914 11.4609 17.374ZM19.6951 17.374C19.6951 16.834 20.1288 16.3962 20.6638 16.3962C21.1988 16.3962 21.6326 16.834 21.6326 17.374C21.6326 17.914 21.1988 18.3518 20.6638 18.3518C20.1288 18.3518 19.6951 17.914 19.6951 17.374Z" fill="#017F96"/>
<path d="M5.4062 1C4.63543 1 3.89622 1.30905 3.35121 1.85915C2.80619 2.40926 2.5 3.15536 2.5 3.93333V20.0667C2.5 20.8446 2.80619 21.5907 3.35121 22.1408C3.89622 22.691 4.63543 23 5.4062 23H12.6717C13.4425 23 14.1817 22.691 14.7267 22.1408C15.2717 21.5907 15.5779 20.8446 15.5779 20.0667V18.8444H14.1248V20.0667C14.1248 20.4557 13.9717 20.8287 13.6992 21.1038C13.4267 21.3788 13.0571 21.5333 12.6717 21.5333H5.4062C5.02081 21.5333 4.65121 21.3788 4.3787 21.1038C4.10619 20.8287 3.9531 20.4557 3.9531 20.0667V3.93333C3.9531 3.54435 4.10619 3.1713 4.3787 2.89624C4.65121 2.62119 5.02081 2.46667 5.4062 2.46667H6.85929V3.2C6.85929 3.60501 7.18458 3.93333 7.58584 3.93333H10.492C10.8933 3.93333 11.2186 3.60501 11.2186 3.2V2.46667H12.6717C13.0571 2.46667 13.4267 2.62119 13.6992 2.89624C13.9717 3.1713 14.1248 3.54435 14.1248 3.93333V5.15556H15.5779V3.93333C15.5779 3.15536 15.2717 2.40926 14.7267 1.85915C14.1817 1.30905 13.4425 1 12.6717 1H5.4062Z" fill="#017F96"/>
<path d="M7.58593 19.3359C7.18467 19.3359 6.85938 19.6643 6.85938 20.0693C6.85938 20.4743 7.18467 20.8026 7.58593 20.8026H10.4921C10.8934 20.8026 11.2187 20.4743 11.2187 20.0693C11.2187 19.6643 10.8934 19.3359 10.4921 19.3359H7.58593Z" fill="#017F96"/>
</g>
</g>
<defs>
<clipPath id="clip0_1567_23546">
<rect width="24" height="24" fill="white"/>
</clipPath>
</defs>
</svg>
