<svg width="24" height="24" viewBox="0 0 24 24" fill="none" xmlns="http://www.w3.org/2000/svg">
<g clip-path="url(#clip0_1567_23536)">
<mask id="mask0_1567_23536" style="mask-type:luminance" maskUnits="userSpaceOnUse" x="0" y="0" width="24" height="24">
<path d="M24 0H0V24H24V0Z" fill="white"/>
</mask>
<g mask="url(#mask0_1567_23536)">
<path d="M4.25 2.5C4.25 2.69891 4.17098 2.88968 4.03033 3.03033C3.88968 3.17098 3.69891 3.25 3.5 3.25C3.30109 3.25 3.11032 3.17098 2.96967 3.03033C2.82902 2.88968 2.75 2.69891 2.75 2.5C2.75 2.30109 2.82902 2.11032 2.96967 1.96967C3.11032 1.82902 3.30109 1.75 3.5 1.75C3.69891 1.75 3.88968 1.82902 4.03033 1.96967C4.17098 2.11032 4.25 2.30109 4.25 2.5ZM10.25 2.5C10.25 2.69891 10.171 2.88968 10.0303 3.03033C9.88968 3.17098 9.69891 3.25 9.5 3.25C9.30109 3.25 9.11032 3.17098 8.96967 3.03033C8.82902 2.88968 8.75 2.69891 8.75 2.5C8.75 2.30109 8.82902 2.11032 8.96967 1.96967C9.11032 1.82902 9.30109 1.75 9.5 1.75C9.69891 1.75 9.88968 1.82902 10.0303 1.96967C10.171 2.11032 10.25 2.30109 10.25 2.5ZM16.25 2.5C16.25 2.69891 16.171 2.88968 16.0303 3.03033C15.8897 3.17098 15.6989 3.25 15.5 3.25C15.3011 3.25 15.1103 3.17098 14.9697 3.03033C14.829 2.88968 14.75 2.69891 14.75 2.5C14.75 2.30109 14.829 2.11032 14.9697 1.96967C15.1103 1.82902 15.3011 1.75 15.5 1.75C15.6989 1.75 15.8897 1.82902 16.0303 1.96967C16.171 2.11032 16.25 2.30109 16.25 2.5Z" stroke="#0D1F7E" stroke-width="1.5" stroke-linecap="round" stroke-linejoin="round"/>
<path fill-rule="evenodd" clip-rule="evenodd" d="M3.5 13C3.10217 13 2.72064 13.158 2.43934 13.4393C2.15804 13.7206 2 14.1022 2 14.5C2 14.8978 2.15804 15.2794 2.43934 15.5607C2.72064 15.842 3.10217 16 3.5 16C3.89783 16 4.27936 15.842 4.56066 15.5607C4.84196 15.2794 5 14.8978 5 14.5C5 14.1022 4.84196 13.7206 4.56066 13.4393C4.27936 13.158 3.89783 13 3.5 13Z" fill="#0D1F7E"/>
<path fill-rule="evenodd" clip-rule="evenodd" d="M3.5 7C3.10217 7 2.72064 7.15804 2.43934 7.43934C2.15804 7.72064 2 8.10218 2 8.5C2 8.89782 2.15804 9.27936 2.43934 9.56066C2.72064 9.84196 3.10217 10 3.5 10C3.89783 10 4.27936 9.84196 4.56066 9.56066C4.84196 9.27936 5 8.89782 5 8.5C5 8.10218 4.84196 7.72064 4.56066 7.43934C4.27936 7.15804 3.89783 7 3.5 7ZM15.5 7C15.1022 7 14.7206 7.15804 14.4393 7.43934C14.158 7.72065 14 8.10218 14 8.5C14 8.89782 14.158 9.27935 14.4393 9.56066C14.7206 9.84196 15.1022 10 15.5 10C15.8978 10 16.2794 9.84196 16.5607 9.56066C16.842 9.27935 17 8.89782 17 8.5C17 8.10218 16.842 7.72065 16.5607 7.43934C16.2794 7.15804 15.8978 7 15.5 7Z" fill="#0D1F7E"/>
<path fill-rule="evenodd" clip-rule="evenodd" d="M22.1283 21.1037L22.118 13.0979V12.6983C22.118 12.1486 21.9044 11.6319 21.516 11.2446C20.7394 10.468 19.3864 10.469 18.6108 11.2446C18.2225 11.6319 18.0088 12.1486 18.0088 12.6983V14.2741L10.983 7.24941C10.1817 6.44811 8.87808 6.44811 8.07678 7.24941C7.27548 8.05071 7.2765 9.35436 8.07678 10.1546L9.74307 11.8209C9.39379 11.9062 9.06505 12.0716 8.80411 12.3346C8.41579 12.7219 8.20211 13.2376 8.20211 13.7872C8.20211 14.1016 8.28017 14.4015 8.4127 14.6769C8.02335 14.7518 7.65146 14.9388 7.35046 15.2398C6.71353 15.8768 6.59232 16.8301 6.96934 17.5975C6.57074 17.6684 6.19268 17.8502 5.89784 18.145C5.51055 18.5344 5.29688 19.0501 5.29688 19.5987C5.29688 20.1483 5.51056 20.664 5.89888 21.0513L7.35149 22.5039L8.07779 21.7776L6.62416 20.325C6.43103 20.1319 6.32418 19.874 6.32418 19.5987C6.32418 19.3244 6.43103 19.0665 6.62519 18.8724C7.01351 18.4851 7.68947 18.4851 8.07779 18.8724L8.44043 19.2361L9.53042 20.326L10.2567 19.5997L8.07678 17.4208C7.67613 17.0201 7.67613 16.3688 8.07678 15.9682C8.4651 15.5799 9.1421 15.5819 9.53042 15.9682L9.89409 16.3318L11.7104 18.1481L12.4367 17.4218L10.6204 15.6055L10.2567 15.2419L9.53042 14.5156C9.33626 14.3214 9.22942 14.0635 9.22942 13.7893C9.22942 13.5139 9.33626 13.2561 9.53042 13.063C9.91874 12.6757 10.5947 12.6757 10.983 13.063L11.3467 13.4266L13.8893 15.9692L14.6156 15.2429L8.80411 9.43141C8.40346 9.03076 8.40346 8.37945 8.80411 7.9788C9.20476 7.57815 9.85709 7.57815 10.2578 7.9788L17.94 15.661C18.1228 15.847 18.3992 15.9014 18.6396 15.8018C18.881 15.7021 19.0371 15.4699 19.0371 15.209V12.7024C19.0371 12.427 19.144 12.1692 19.3381 11.9761C19.7265 11.5867 20.4024 11.5867 20.7918 11.9761C20.9849 12.1692 21.0918 12.427 21.0918 12.7024V12.7034V13.104V13.216L21.101 21.1058L22.1283 21.1037Z" fill="#0D1F7E"/>
<path d="M22.1283 21.1037L22.1288 21.3537L22.3786 21.3532L22.3783 21.1034L22.1283 21.1037ZM18.0088 14.2741L17.832 14.4509L18.2588 14.8776V14.2741H18.0088ZM9.74307 11.8209L9.80236 12.0638L10.2341 11.9584L9.91985 11.6442L9.74307 11.8209ZM8.80411 12.3346L8.98066 12.5116L8.98158 12.5107L8.80411 12.3346ZM8.4127 14.6769L8.45999 14.9223L8.77877 14.8609L8.63796 14.5684L8.4127 14.6769ZM6.96934 17.5975L7.0131 17.8436L7.34023 17.7855L7.19372 17.4873L6.96934 17.5975ZM7.35149 22.5039L7.17472 22.6807L7.35149 22.8575L7.52826 22.6807L7.35149 22.5039ZM8.07779 21.7776L8.25458 21.9544L8.43142 21.7776L8.25452 21.6008L8.07779 21.7776ZM9.53042 20.326L9.35364 20.5028L9.53042 20.6796L9.70719 20.5028L9.53042 20.326ZM10.2567 19.5997L10.4335 19.7765L10.6103 19.5997L10.4335 19.4229L10.2567 19.5997ZM11.7104 18.1481L11.5336 18.3249L11.7104 18.5017L11.8871 18.3249L11.7104 18.1481ZM12.4367 17.4218L12.6135 17.5986L12.7902 17.4218L12.6135 17.245L12.4367 17.4218ZM13.8893 15.9692L13.7125 16.146L13.8893 16.3228L14.0661 16.146L13.8893 15.9692ZM14.6156 15.2429L14.7924 15.4197L14.9692 15.2429L14.7924 15.0661L14.6156 15.2429ZM17.94 15.661L18.1182 15.4857L18.1168 15.4842L17.94 15.661ZM21.101 21.1058L20.851 21.106L20.8513 21.3563L21.1015 21.3558L21.101 21.1058ZM22.3783 21.1034L22.368 13.0976L21.868 13.0979L21.8783 21.104L22.3783 21.1034ZM22.368 13.0976V12.6983H21.868V13.0979L22.368 13.0976ZM22.368 12.6983C22.368 12.0825 22.1282 11.502 21.6926 11.0676L21.3393 11.4214C21.6804 11.7616 21.868 12.2148 21.868 12.6983H22.368ZM21.6926 11.0676C20.8183 10.1933 19.3072 10.1947 18.434 11.0678L18.7873 11.4216C19.4654 10.7435 20.6603 10.7425 21.3393 11.4214L21.6926 11.0676ZM18.434 11.0678C17.9984 11.5022 17.7588 12.0825 17.7588 12.6983H18.2588C18.2588 12.2148 18.4463 11.7618 18.7873 11.4216L18.434 11.0678ZM17.7588 12.6983V14.2741H18.2588V12.6983H17.7588ZM18.1856 14.0974L11.1598 7.07262L10.8063 7.42619L17.832 14.4509L18.1856 14.0974ZM11.1598 7.07262C10.2609 6.17369 8.79892 6.1737 7.89999 7.07263L8.25355 7.42619C8.95722 6.72251 10.1026 6.72251 10.8063 7.42619L11.1598 7.07262ZM7.89999 7.07263C7.00098 7.97164 7.00217 9.4336 7.89999 10.3314L8.25355 9.97786C7.55083 9.27514 7.54997 8.12977 8.25355 7.42619L7.89999 7.07263ZM7.89999 10.3314L9.5663 11.9977L9.91985 11.6442L8.25355 9.97786L7.89999 10.3314ZM9.68378 11.5781C9.29761 11.6723 8.92535 11.8574 8.62664 12.1585L8.98158 12.5107C9.20474 12.2858 9.48996 12.1401 9.80236 12.0638L9.68378 11.5781ZM8.62756 12.1576C8.19208 12.5919 7.95211 13.1714 7.95211 13.7872H8.45211C8.45211 13.3038 8.6395 12.8519 8.98066 12.5116L8.62756 12.1576ZM7.95211 13.7872C7.95211 14.1437 8.04074 14.4805 8.18745 14.7853L8.63796 14.5684C8.51962 14.3226 8.45211 14.0595 8.45211 13.7872H7.95211ZM8.36542 14.4314C7.9291 14.5154 7.51149 14.7252 7.17369 15.063L7.52725 15.4166C7.79145 15.1524 8.11762 14.9883 8.45999 14.9223L8.36542 14.4314ZM7.17369 15.063C6.45717 15.7796 6.32328 16.8495 6.74496 17.7077L7.19372 17.4873C6.86135 16.8107 6.96991 15.9739 7.52725 15.4166L7.17369 15.063ZM6.92557 17.3514C6.48168 17.4303 6.05561 17.6337 5.72108 17.9683L6.07463 18.3218C6.32978 18.0667 6.65979 17.9065 7.0131 17.8436L6.92557 17.3514ZM5.72108 17.9683C5.2874 18.4043 5.04688 18.9837 5.04688 19.5987H5.54688C5.54688 19.1165 5.73371 18.6645 6.07463 18.3218L5.72108 17.9683ZM5.04688 19.5987C5.04688 20.2145 5.28685 20.794 5.72233 21.2283L6.07565 20.8745C5.73449 20.5342 5.54688 20.0821 5.54688 19.5987H5.04688ZM5.72233 21.2283L7.17472 22.6807L7.52826 22.3271L6.07565 20.8745L5.72233 21.2283ZM7.52826 22.6807L8.25458 21.9544L7.90102 21.6008L7.17472 22.3271L7.52826 22.6807ZM8.25452 21.6008L6.80088 20.1482L6.44738 20.5018L7.90108 21.9545L8.25452 21.6008ZM6.80088 20.1482C6.65481 20.0022 6.57418 19.808 6.57418 19.5987H6.07418C6.07418 19.9401 6.20717 20.2616 6.44738 20.5018L6.80088 20.1482ZM6.57418 19.5987C6.57418 19.3908 6.65465 19.1965 6.80197 19.0492L6.44865 18.6954C6.20765 18.9364 6.07418 19.258 6.07418 19.5987H6.57418ZM6.80197 19.0492C7.09272 18.7592 7.61052 18.7594 7.90126 19.0494L8.25483 18.6959C7.76893 18.2113 6.93455 18.2108 6.44865 18.6954L6.80197 19.0492ZM7.90126 19.0494L8.26341 19.4126L8.61747 19.0595L8.25483 18.6959L7.90126 19.0494ZM8.26341 19.4126L9.35364 20.5028L9.70719 20.1493L8.61747 19.0595L8.26341 19.4126ZM9.70719 20.5028L10.4335 19.7765L10.08 19.4229L9.35364 20.1493L9.70719 20.5028ZM10.4335 19.4229L8.25351 17.244L7.89999 17.5976L10.08 19.7765L10.4335 19.4229ZM8.25351 17.244C7.95049 16.941 7.95053 16.448 8.25355 16.145L7.89999 15.7914C7.40171 16.2897 7.40171 17.0993 7.89999 17.5976L8.25351 17.244ZM8.25355 16.145C8.54367 15.8548 9.06273 15.8556 9.35411 16.1454L9.70719 15.7914C9.22192 15.3087 8.38652 15.3049 7.89999 15.7914L8.25355 16.145ZM9.35411 16.1454L9.7173 16.5086L10.0709 16.1551L9.70719 15.7914L9.35411 16.1454ZM9.7173 16.5086L11.5336 18.3249L11.8871 17.9714L10.0709 16.1551L9.7173 16.5086ZM11.8871 18.3249L12.6135 17.5986L12.2599 17.245L11.5336 17.9714L11.8871 18.3249ZM12.6135 17.245L10.7972 15.4288L10.4436 15.7823L12.2599 17.5986L12.6135 17.245ZM10.7972 15.4288L10.4335 15.0651L10.08 15.4187L10.4436 15.7823L10.7972 15.4288ZM10.4335 15.0651L9.70719 14.3388L9.35364 14.6923L10.08 15.4187L10.4335 15.0651ZM9.70719 14.3388C9.55987 14.1915 9.47942 13.9972 9.47942 13.7893H8.97942C8.97942 14.1299 9.11264 14.4513 9.35364 14.6923L9.70719 14.3388ZM9.47942 13.7893C9.47942 13.5801 9.56002 13.3861 9.70672 13.2402L9.35411 12.8857C9.11248 13.1261 8.97942 13.4478 8.97942 13.7893H9.47942ZM9.70672 13.2402C9.99747 12.9502 10.5157 12.95 10.8065 13.24L11.1598 12.8862C10.6739 12.4016 9.84001 12.4011 9.35411 12.8857L9.70672 13.2402ZM10.8065 13.24L11.1699 13.6034L11.5235 13.2498L11.1598 12.8862L10.8065 13.24ZM11.1699 13.6034L13.7125 16.146L14.0661 15.7924L11.5235 13.2498L11.1699 13.6034ZM14.0661 16.146L14.7924 15.4197L14.4388 15.0661L13.7125 15.7924L14.0661 16.146ZM14.7924 15.0661L8.98089 9.25465L8.62734 9.6082L14.4388 15.4197L14.7924 15.0661ZM8.98089 9.25465C8.67787 8.95163 8.67787 8.4586 8.98089 8.15558L8.62734 7.80203C8.12905 8.30031 8.12905 9.10992 8.62734 9.6082L8.98089 9.25465ZM8.98089 8.15558C9.28391 7.85256 9.77796 7.85256 10.081 8.15558L10.4345 7.80203C9.93625 7.30375 9.12562 7.30375 8.62734 7.80203L8.98089 8.15558ZM10.081 8.15558L17.7632 15.8378L18.1168 15.4842L10.4345 7.80203L10.081 8.15558ZM17.7617 15.8363C18.0169 16.0958 18.4019 16.1709 18.7353 16.0327L18.5442 15.5707C18.3969 15.6318 18.2288 15.5982 18.1182 15.4857L17.7617 15.8363ZM18.7353 16.0327C19.0697 15.8947 19.2871 15.5718 19.2871 15.209H18.7871C18.7871 15.3681 18.6926 15.5094 18.5442 15.5707L18.7353 16.0327ZM19.2871 15.209V12.7024H18.7871V15.209H19.2871ZM19.2871 12.7024C19.2871 12.4932 19.3679 12.2992 19.5145 12.1533L19.1618 11.7988C18.9202 12.0392 18.7871 12.3609 18.7871 12.7024H19.2871ZM19.5145 12.1533C19.805 11.862 20.3232 11.861 20.615 12.1528L20.9686 11.7993C20.4817 11.3124 19.648 11.3114 19.1618 11.7988L19.5145 12.1533ZM20.615 12.1528C20.7611 12.2989 20.8418 12.4931 20.8418 12.7024H21.3418C21.3418 12.361 21.2088 12.0395 20.9686 11.7993L20.615 12.1528ZM20.8418 12.7024V12.7034H21.3418V12.7024H20.8418ZM20.8418 12.7034V13.104H21.3418V12.7034H20.8418ZM20.8418 13.104V13.216H21.3418V13.104H20.8418ZM20.8418 13.216L20.851 21.106L21.351 21.1055L21.3418 13.216H20.8418ZM21.1015 21.3558L22.1288 21.3537L22.1278 20.8537L21.1005 20.8558L21.1015 21.3558Z" fill="#0D1F7E"/>
</g>
</g>
<defs>
<clipPath id="clip0_1567_23536">
<rect width="24" height="24" fill="white"/>
</clipPath>
</defs>
</svg>
