<svg width="20" height="20" viewBox="0 0 20 20" fill="none" xmlns="http://www.w3.org/2000/svg">
<path fill-rule="evenodd" clip-rule="evenodd" d="M9.99982 2.5C8.61911 2.5 7.49982 3.61929 7.49982 5V5.625H12.4998V5C12.4998 3.61929 11.3805 2.5 9.99982 2.5ZM13.7498 5.625V5C13.7498 2.92893 12.0709 1.25 9.99982 1.25C7.92875 1.25 6.24982 2.92893 6.24982 5V5.625H4.59381C3.79419 5.625 3.12361 6.2287 3.0399 7.02393L1.98727 17.0239C1.89016 17.9465 2.61352 18.75 3.54118 18.75H16.4585C17.3861 18.75 18.1095 17.9465 18.0124 17.0239L16.9597 7.02393C16.876 6.2287 16.2054 5.625 15.4058 5.625H13.7498ZM12.4998 6.875H7.49982V8.05122C7.69162 8.22288 7.81232 8.47234 7.81232 8.75C7.81232 9.26777 7.39259 9.6875 6.87482 9.6875C6.35705 9.6875 5.93732 9.26777 5.93732 8.75C5.93732 8.47234 6.05802 8.22288 6.24982 8.05122V6.875H4.59381C4.43389 6.875 4.29977 6.99574 4.28303 7.15479L3.2304 17.1548C3.21098 17.3393 3.35565 17.5 3.54118 17.5H16.4585C16.644 17.5 16.7887 17.3393 16.7692 17.1548L15.7166 7.15479C15.6999 6.99574 15.5657 6.875 15.4058 6.875H13.7498V8.05122C13.9416 8.22288 14.0623 8.47234 14.0623 8.75C14.0623 9.26777 13.6426 9.6875 13.1248 9.6875C12.6071 9.6875 12.1873 9.26777 12.1873 8.75C12.1873 8.47234 12.308 8.22288 12.4998 8.05122V6.875Z" fill="white"/>
</svg>
