<svg width="38" height="24" viewBox="0 0 38 24" fill="none" xmlns="http://www.w3.org/2000/svg">
<g clip-path="url(#clip0_1567_23524)">
<path d="M15.0557 15.1137L13.3629 14.1172L13.0387 14.2012L13.2308 14.9696L11.502 17.6109L12.4504 18.3073L11.574 19.6399C14.4794 19.5679 16.9527 17.719 17.9612 15.1497L17.0487 14.5974L15.0677 15.1017L15.0557 15.1137Z" fill="#18a886"/>
<path d="M7.83876 13.7206L7.75473 12.1598L9.07538 11.0072L10.288 11.7516L10.4921 11.7036L10.6962 9.00219L7.62266 6.625C5.64167 7.87362 4.33301 10.0828 4.33301 12.592C4.33301 12.9282 4.35702 13.2523 4.40504 13.5765L6.66218 13.1083L7.85078 13.7206H7.83876Z" fill="#18a886"/>
<path d="M14.9346 8.39355L14.8266 10.0504L16.2193 9.8703L17.2758 10.8308L18.1883 10.7707C17.636 8.70571 16.1592 7.01287 14.2383 6.14844L14.3463 7.82927L14.9346 8.38155V8.39355Z" fill="#18a886"/>
<path d="M37.0018 12.6069C37.0018 9.61738 35.8612 6.90402 33.9882 4.875L32.8837 5.18716C34.8046 7.08411 36.0053 9.71343 36.0053 12.6069C36.0053 16.3768 34.0003 19.6664 30.9988 21.5033L31.2989 19.0301L30.3024 18.9101L29.7861 23.2082L34.0483 23.7245L34.1683 22.728L31.491 22.4038C34.8047 20.3988 37.0258 16.773 37.0258 12.6189L37.0018 12.6069Z" fill="#18a886"/>
<path d="M19.2816 20.9024C21.4787 18.8134 22.8594 15.8719 22.8594 12.5943C22.8594 9.31666 21.4787 6.37519 19.2816 4.28614C21.0345 2.95348 23.2076 2.16108 25.5728 2.16108C27.5178 2.16108 29.3307 2.70135 30.8794 3.62581L28.3342 4.34618L28.6103 5.31866L32.7764 4.14207L31.6118 0L30.6393 0.276138L31.3237 2.70135C29.6308 1.71686 27.6738 1.14057 25.5728 1.14057C22.8955 1.14057 20.4462 2.06503 18.5013 3.58979C16.5563 2.05302 14.0951 1.14057 11.4297 1.14057C5.11456 1.14057 0 6.25513 0 12.5703C0 18.8854 5.11456 24 11.4297 24C14.1071 24 16.5563 23.0755 18.5013 21.5508C20.4462 23.0875 22.9075 24 25.5728 24C26.6533 24 27.7099 23.8439 28.7064 23.5678L28.8384 22.4752C27.8059 22.8114 26.7134 23.0035 25.5728 23.0035C23.2076 23.0035 21.0345 22.2111 19.2816 20.8784V20.9024ZM11.3817 20.6503C6.92748 20.6503 3.32567 17.0365 3.32567 12.5943C3.32567 8.15207 6.93948 4.53827 11.3817 4.53827C15.8239 4.53827 19.4377 8.15207 19.4377 12.5943C19.4377 17.0365 15.8239 20.6503 11.3817 20.6503Z" fill="#18a886"/>
<path d="M18.3796 11.766L16.9148 11.862L15.8823 10.9256L13.7332 11.2017L13.8893 8.78849L13.3611 8.29624L13.193 5.78698C12.6167 5.63091 12.0044 5.54688 11.3681 5.54688C10.3836 5.54688 9.44711 5.75097 8.59468 6.12316L11.7282 8.54838L11.4281 12.5584L10.0834 12.8345L9.15896 12.2703L8.77476 12.6184L8.85881 14.1912L8.0184 14.9836L6.49363 14.1912L4.59668 14.5874C5.36506 17.2167 7.6222 19.2097 10.3836 19.5939L11.0559 18.5614L10.1074 17.865L12.1124 14.7915L11.8003 13.4949L13.4811 13.0386L15.186 14.0471L17.179 13.5429L18.2355 14.1792C18.3556 13.675 18.4156 13.1467 18.4156 12.6184C18.4156 12.3423 18.3916 12.0662 18.3676 11.79L18.3796 11.766Z" fill="#18a886"/>
</g>
<defs>
<clipPath id="clip0_1567_23524">
<rect width="38" height="24" fill="white"/>
</clipPath>
</defs>
</svg>
