<svg width="28" height="28" viewBox="0 0 28 28" fill="none" xmlns="http://www.w3.org/2000/svg">
<path fill-rule="evenodd" clip-rule="evenodd" d="M13.9999 3.5C13.361 3.5 12.7245 3.51022 12.0905 3.5305C11.2101 3.55866 10.4999 4.29792 10.4999 5.22455V5.35596C11.6577 5.28566 12.8247 5.25 13.9999 5.25C15.1751 5.25 16.3421 5.28566 17.4999 5.35596V5.22455C17.4999 4.29792 16.7897 3.55866 15.9093 3.5305C15.2753 3.51022 14.6388 3.5 13.9999 3.5ZM19.2499 5.48914V5.22455C19.2499 3.39933 17.8353 1.84121 15.9652 1.78139C15.3126 1.76052 14.6575 1.75 13.9999 1.75C13.3423 1.75 12.6872 1.76052 12.0346 1.78139C10.1645 1.84121 8.7499 3.39933 8.7499 5.22455V5.48914C7.63605 5.5911 6.53143 5.72519 5.43698 5.89047C5.03176 5.95167 4.62793 6.01714 4.22555 6.08685C3.74939 6.16933 3.43026 6.62219 3.51274 7.09835C3.59522 7.57451 4.04809 7.89365 4.52425 7.81117C4.60545 7.7971 4.68672 7.78321 4.76804 7.7695L5.94104 23.0184C6.08131 24.8419 7.60185 26.25 9.43073 26.25H18.5691C20.3979 26.25 21.9185 24.8419 22.0588 23.0184L23.2318 7.7695C23.3131 7.78321 23.3943 7.7971 23.4756 7.81117C23.9517 7.89365 24.4046 7.57451 24.4871 7.09835C24.5695 6.62219 24.2504 6.16933 23.7742 6.08685C23.3719 6.01714 22.968 5.95167 22.5628 5.89047C21.4684 5.72519 20.3637 5.5911 19.2499 5.48914ZM21.4969 7.50541C20.443 7.36213 19.3796 7.24862 18.3075 7.16578C16.8862 7.05595 15.4497 7 13.9999 7C12.5501 7 11.1136 7.05595 9.69231 7.16578C8.62023 7.24862 7.5568 7.36213 6.5029 7.50541L7.68588 22.8842C7.75602 23.796 8.51629 24.5 9.43073 24.5H18.5691C19.4835 24.5 20.2438 23.796 20.3139 22.8842L21.4969 7.50541ZM10.7692 9.62565C11.252 9.60707 11.6586 9.98348 11.6771 10.4664L12.081 20.9664C12.0996 21.4493 11.7232 21.8558 11.2403 21.8744C10.7574 21.8929 10.3508 21.5165 10.3323 21.0336L9.92843 10.5336C9.90986 10.0507 10.2863 9.64422 10.7692 9.62565ZM17.2306 9.62565C17.7135 9.64422 18.0899 10.0507 18.0714 10.5336L17.6675 21.0336C17.6489 21.5165 17.2424 21.8929 16.7595 21.8744C16.2766 21.8558 15.9002 21.4493 15.9188 20.9664L16.3227 10.4664C16.3412 9.98348 16.7478 9.60707 17.2306 9.62565Z" fill="url(#paint0_linear_1325_19460)"/>
<defs>
<linearGradient id="paint0_linear_1325_19460" x1="13.9999" y1="1.75" x2="13.9999" y2="26.25" gradientUnits="userSpaceOnUse">
<stop stop-color="#18A886"/>
<stop offset="1" stop-color="#2BAAB9"/>
</linearGradient>
</defs>
</svg>
