<svg width="28" height="28" viewBox="0 0 28 28" fill="none" xmlns="http://www.w3.org/2000/svg">
<path fill-rule="evenodd" clip-rule="evenodd" d="M14.0001 3.5C13.3612 3.5 12.7247 3.51022 12.0907 3.5305C11.2103 3.55866 10.5001 4.29792 10.5001 5.22455V5.35596C11.6579 5.28566 12.8249 5.25 14.0001 5.25C15.1753 5.25 16.3423 5.28566 17.5001 5.35596V5.22455C17.5001 4.29792 16.7899 3.55866 15.9095 3.5305C15.2755 3.51022 14.639 3.5 14.0001 3.5ZM19.2501 5.48914V5.22455C19.2501 3.39933 17.8355 1.84121 15.9654 1.78139C15.3128 1.76052 14.6577 1.75 14.0001 1.75C13.3425 1.75 12.6874 1.76052 12.0348 1.78139C10.1647 1.84121 8.75014 3.39933 8.75014 5.22455V5.48914C7.63629 5.5911 6.53167 5.72519 5.43722 5.89047C5.032 5.95167 4.62817 6.01714 4.22579 6.08685C3.74963 6.16933 3.4305 6.62219 3.51298 7.09835C3.59546 7.57451 4.04833 7.89365 4.52449 7.81117C4.60569 7.7971 4.68696 7.78321 4.76828 7.7695L5.94128 23.0184C6.08155 24.8419 7.60209 26.25 9.43097 26.25H18.5693C20.3981 26.25 21.9187 24.8419 22.059 23.0184L23.232 7.7695C23.3133 7.78321 23.3945 7.7971 23.4758 7.81117C23.9519 7.89365 24.4048 7.57451 24.4873 7.09835C24.5697 6.62219 24.2506 6.16933 23.7744 6.08685C23.3721 6.01714 22.9682 5.95167 22.563 5.89047C21.4686 5.72519 20.3639 5.5911 19.2501 5.48914ZM21.4971 7.50541C20.4432 7.36213 19.3798 7.24862 18.3077 7.16578C16.8864 7.05595 15.4499 7 14.0001 7C12.5503 7 11.1138 7.05595 9.69255 7.16578C8.62047 7.24862 7.55704 7.36213 6.50314 7.50541L7.68612 22.8842C7.75626 23.796 8.51653 24.5 9.43097 24.5H18.5693C19.4837 24.5 20.244 23.796 20.3141 22.8842L21.4971 7.50541ZM10.7694 9.62565C11.2522 9.60707 11.6588 9.98348 11.6773 10.4664L12.0812 20.9664C12.0998 21.4493 11.7234 21.8558 11.2405 21.8744C10.7576 21.8929 10.351 21.5165 10.3325 21.0336L9.92867 10.5336C9.9101 10.0507 10.2865 9.64422 10.7694 9.62565ZM17.2308 9.62565C17.7137 9.64422 18.0901 10.0507 18.0716 10.5336L17.6677 21.0336C17.6491 21.5165 17.2426 21.8929 16.7597 21.8744C16.2768 21.8558 15.9004 21.4493 15.919 20.9664L16.3229 10.4664C16.3414 9.98348 16.748 9.60707 17.2308 9.62565Z" fill="#0D1F7E"/>
</svg>
