<svg width="28" height="28" viewBox="0 0 28 28" fill="none" xmlns="http://www.w3.org/2000/svg">
<path fill-rule="evenodd" clip-rule="evenodd" d="M14.0018 6.125C8.97642 6.125 4.71006 9.38436 3.20568 13.9069C3.18492 13.9692 3.18494 14.0371 3.20573 14.0995C4.71199 18.6187 8.97672 21.875 13.9997 21.875C19.0251 21.875 23.2914 18.6156 24.7958 14.0932C24.8166 14.0308 24.8165 13.9629 24.7958 13.9005C23.2895 9.38132 19.0248 6.125 14.0018 6.125ZM1.54514 13.3545C3.28027 8.13833 8.20039 4.375 14.0018 4.375C19.8004 4.375 24.7187 8.13483 26.456 13.3472C26.5964 13.7684 26.5965 14.2242 26.4563 14.6455C24.7212 19.8617 19.8011 23.625 13.9997 23.625C8.20104 23.625 3.2828 19.8652 1.54552 14.6528C1.40512 14.2316 1.40499 13.7758 1.54514 13.3545ZM14.0008 11.375C12.5511 11.375 11.3758 12.5503 11.3758 14C11.3758 15.4497 12.5511 16.625 14.0008 16.625C15.4506 16.625 16.6258 15.4497 16.6258 14C16.6258 12.5503 15.4506 11.375 14.0008 11.375ZM9.62582 14C9.62582 11.5838 11.5846 9.625 14.0008 9.625C16.4171 9.625 18.3758 11.5838 18.3758 14C18.3758 16.4162 16.4171 18.375 14.0008 18.375C11.5846 18.375 9.62582 16.4162 9.62582 14Z" fill="#18a886"/>
</svg>
