<svg width="28" height="28" viewBox="0 0 28 28" fill="none" xmlns="http://www.w3.org/2000/svg">
<path fill-rule="evenodd" clip-rule="evenodd" d="M7.875 7.875C7.875 4.49226 10.6173 1.75 14 1.75C17.3827 1.75 20.125 4.49226 20.125 7.875V11.375C22.058 11.375 23.625 12.942 23.625 14.875V22.75C23.625 24.683 22.058 26.25 20.125 26.25H7.875C5.942 26.25 4.375 24.683 4.375 22.75V14.875C4.375 12.942 5.942 11.375 7.875 11.375V7.875ZM7.875 13.125C6.9085 13.125 6.125 13.9085 6.125 14.875V22.75C6.125 23.7165 6.9085 24.5 7.875 24.5H20.125C21.0915 24.5 21.875 23.7165 21.875 22.75V14.875C21.875 13.9085 21.0915 13.125 20.125 13.125H7.875ZM18.375 11.375H9.625V7.875C9.625 5.45875 11.5838 3.5 14 3.5C16.4162 3.5 18.375 5.45875 18.375 7.875V11.375Z" fill="#0D1F7E"/>
</svg>
