<svg width="24" height="24" viewBox="0 0 24 24" fill="none" xmlns="http://www.w3.org/2000/svg">
<g clip-path="url(#clip0_1100_19088)">
<path d="M4.25 2.5C4.25 2.69891 4.17098 2.88968 4.03033 3.03033C3.88968 3.17098 3.69891 3.25 3.5 3.25C3.30109 3.25 3.11032 3.17098 2.96967 3.03033C2.82902 2.88968 2.75 2.69891 2.75 2.5C2.75 2.30109 2.82902 2.11032 2.96967 1.96967C3.11032 1.82902 3.30109 1.75 3.5 1.75C3.69891 1.75 3.88968 1.82902 4.03033 1.96967C4.17098 2.11032 4.25 2.30109 4.25 2.5ZM10.25 2.5C10.25 2.69891 10.171 2.88968 10.0303 3.03033C9.88968 3.17098 9.69891 3.25 9.5 3.25C9.30109 3.25 9.11032 3.17098 8.96967 3.03033C8.82902 2.88968 8.75 2.69891 8.75 2.5C8.75 2.30109 8.82902 2.11032 8.96967 1.96967C9.11032 1.82902 9.30109 1.75 9.5 1.75C9.69891 1.75 9.88968 1.82902 10.0303 1.96967C10.171 2.11032 10.25 2.30109 10.25 2.5ZM16.25 2.5C16.25 2.69891 16.171 2.88968 16.0303 3.03033C15.8897 3.17098 15.6989 3.25 15.5 3.25C15.3011 3.25 15.1103 3.17098 14.9697 3.03033C14.829 2.88968 14.75 2.69891 14.75 2.5C14.75 2.30109 14.829 2.11032 14.9697 1.96967C15.1103 1.82902 15.3011 1.75 15.5 1.75C15.6989 1.75 15.8897 1.82902 16.0303 1.96967C16.171 2.11032 16.25 2.30109 16.25 2.5Z" stroke="#18A886" stroke-width="1.5" stroke-linecap="round" stroke-linejoin="round"/>
<path fill-rule="evenodd" clip-rule="evenodd" d="M3.5 13C3.10217 13 2.72064 13.158 2.43934 13.4393C2.15804 13.7206 2 14.1022 2 14.5C2 14.8978 2.15804 15.2794 2.43934 15.5607C2.72064 15.842 3.10217 16 3.5 16C3.89783 16 4.27936 15.842 4.56066 15.5607C4.84196 15.2794 5 14.8978 5 14.5C5 14.1022 4.84196 13.7206 4.56066 13.4393C4.27936 13.158 3.89783 13 3.5 13Z" fill="#18A886"/>
<path fill-rule="evenodd" clip-rule="evenodd" d="M3.5 7C3.10217 7 2.72064 7.15804 2.43934 7.43934C2.15804 7.72064 2 8.10218 2 8.5C2 8.89782 2.15804 9.27936 2.43934 9.56066C2.72064 9.84196 3.10217 10 3.5 10C3.89783 10 4.27936 9.84196 4.56066 9.56066C4.84196 9.27936 5 8.89782 5 8.5C5 8.10218 4.84196 7.72064 4.56066 7.43934C4.27936 7.15804 3.89783 7 3.5 7ZM15.5 7C15.1022 7 14.7206 7.15804 14.4393 7.43934C14.158 7.72065 14 8.10218 14 8.5C14 8.89782 14.158 9.27935 14.4393 9.56066C14.7206 9.84196 15.1022 10 15.5 10C15.8978 10 16.2794 9.84196 16.5607 9.56066C16.842 9.27935 17 8.89782 17 8.5C17 8.10218 16.842 7.72065 16.5607 7.43934C16.2794 7.15804 15.8978 7 15.5 7Z" fill="#18A886"/>
<path fill-rule="evenodd" clip-rule="evenodd" d="M22.1281 21.0998L22.1178 13.094V12.6944C22.1178 12.1447 21.9042 11.628 21.5158 11.2407C20.7392 10.4641 19.3862 10.4651 18.6106 11.2407C18.2223 11.628 18.0086 12.1447 18.0086 12.6944V14.2702L10.9828 7.24551C10.1815 6.44421 8.87788 6.44421 8.07658 7.24551C7.27528 8.04681 7.2763 9.35046 8.07658 10.1507L9.74287 11.817C9.39359 11.9023 9.06485 12.0677 8.80391 12.3307C8.41559 12.718 8.20191 13.2337 8.20191 13.7833C8.20191 14.0977 8.27998 14.3976 8.41251 14.673C8.02316 14.7479 7.65127 14.9349 7.35027 15.2359C6.71334 15.8729 6.59212 16.8262 6.96914 17.5936C6.57054 17.6645 6.19249 17.8463 5.89765 18.1411C5.51036 18.5305 5.29668 19.0462 5.29668 19.5948C5.29668 20.1444 5.51036 20.6601 5.89868 21.0474L7.3513 22.5L8.0776 21.7737L6.62396 20.3211C6.43083 20.128 6.32399 19.8701 6.32399 19.5948C6.32399 19.3205 6.43083 19.0626 6.62499 18.8685C7.01331 18.4812 7.68928 18.4812 8.0776 18.8685L8.44024 19.2322V19.2322L9.53022 20.3221L10.2565 19.5958L8.07658 17.4169C7.67593 17.0162 7.67593 16.3649 8.07658 15.9643C8.4649 15.576 9.1419 15.578 9.53022 15.9643L9.89389 16.3279L11.7102 18.1442L12.4365 17.4179L10.6202 15.6016L10.2565 15.238L9.53022 14.5117C9.33606 14.3175 9.22922 14.0597 9.22922 13.7854C9.22922 13.51 9.33606 13.2522 9.53022 13.0591C9.91854 12.6718 10.5945 12.6718 10.9828 13.0591L11.3465 13.4227V13.4227L13.8891 15.9653L14.6154 15.239L8.80391 9.42751C8.40326 9.02686 8.40326 8.37555 8.80391 7.9749C9.20456 7.57425 9.8569 7.57425 10.2576 7.9749L17.9398 15.6571C18.1226 15.8431 18.399 15.8975 18.6394 15.7979C18.8808 15.6982 19.0369 15.466 19.0369 15.2051V12.6985C19.0369 12.4231 19.1438 12.1653 19.3379 11.9722C19.7263 11.5828 20.4022 11.5828 20.7916 11.9722C20.9847 12.1653 21.0916 12.4231 21.0916 12.6985V12.6995V12.6995V13.1001V13.2121V13.2121L21.1008 21.1019L22.1281 21.0998Z" fill="#18A886"/>
<path d="M22.1281 21.0998L22.1286 21.3498L22.3784 21.3493L22.3781 21.0995L22.1281 21.0998ZM22.1178 13.094L21.8678 13.094L21.8678 13.0943L22.1178 13.094ZM21.5158 11.2407L21.3391 11.4175L21.3393 11.4177L21.5158 11.2407ZM18.6106 11.2407L18.7871 11.4177L18.7874 11.4175L18.6106 11.2407ZM18.0086 14.2702L17.8318 14.447L18.2586 14.8737V14.2702H18.0086ZM10.9828 7.24551L10.8061 7.42228L10.8061 7.4223L10.9828 7.24551ZM9.74287 11.817L9.80216 12.0599L10.2339 11.9545L9.91965 11.6403L9.74287 11.817ZM8.80391 12.3307L8.98046 12.5077L8.98138 12.5068L8.80391 12.3307ZM8.41251 14.673L8.45979 14.9184L8.77857 14.857L8.63777 14.5645L8.41251 14.673ZM6.96914 17.5936L7.01291 17.8397L7.34003 17.7816L7.19352 17.4834L6.96914 17.5936ZM5.89765 18.1411L5.72088 17.9644L5.72041 17.9648L5.89765 18.1411ZM5.89868 21.0474L6.07546 20.8706L6.07522 20.8704L5.89868 21.0474ZM7.3513 22.5L7.17452 22.6768L7.3513 22.8536L7.52807 22.6768L7.3513 22.5ZM8.0776 21.7737L8.25438 21.9505L8.43122 21.7737L8.25432 21.5969L8.0776 21.7737ZM6.62396 20.3211L6.44719 20.4979L6.44725 20.4979L6.62396 20.3211ZM6.62499 18.8685L6.44845 18.6915L6.44821 18.6917L6.62499 18.8685ZM8.0776 18.8685L8.25463 18.692L8.25415 18.6915L8.0776 18.8685ZM9.53022 20.3221L9.35344 20.4989L9.53022 20.6757L9.707 20.4989L9.53022 20.3221ZM10.2565 19.5958L10.4333 19.7726L10.6101 19.5958L10.4333 19.419L10.2565 19.5958ZM8.07658 17.4169L7.8998 17.5937L7.89984 17.5937L8.07658 17.4169ZM9.53022 15.9643L9.707 15.7875L9.70653 15.787L9.53022 15.9643ZM11.7102 18.1442L11.5334 18.321L11.7102 18.4978L11.8869 18.321L11.7102 18.1442ZM12.4365 17.4179L12.6133 17.5947L12.79 17.4179L12.6133 17.2411L12.4365 17.4179ZM10.6202 15.6016L10.797 15.4249L10.797 15.4249L10.6202 15.6016ZM10.2565 15.238L10.4333 15.0612L10.4333 15.0612L10.2565 15.238ZM9.53022 14.5117L9.35344 14.6884L9.35344 14.6884L9.53022 14.5117ZM9.53022 13.0591L9.70653 13.2363L9.70676 13.2361L9.53022 13.0591ZM10.9828 13.0591L11.1596 12.8823L11.1594 12.882L10.9828 13.0591ZM13.8891 15.9653L13.7123 16.1421L13.8891 16.3189L14.0659 16.1421L13.8891 15.9653ZM14.6154 15.239L14.7922 15.4158L14.969 15.239L14.7922 15.0622L14.6154 15.239ZM8.80391 9.42751L8.98069 9.25074L8.98069 9.25074L8.80391 9.42751ZM10.2576 7.9749L10.0808 8.15167L10.0808 8.15167L10.2576 7.9749ZM17.9398 15.6571L18.118 15.4818L18.1166 15.4803L17.9398 15.6571ZM18.6394 15.7979L18.544 15.5668L18.5436 15.5669L18.6394 15.7979ZM19.3379 11.9722L19.5143 12.1494L19.515 12.1487L19.3379 11.9722ZM21.1008 21.1019L20.8508 21.1021L20.8511 21.3524L21.1013 21.3519L21.1008 21.1019ZM22.3781 21.0995L22.3678 13.0937L21.8678 13.0943L21.8781 21.1001L22.3781 21.0995ZM22.3678 13.094V12.6944H21.8678V13.094H22.3678ZM22.3678 12.6944C22.3678 12.0786 22.128 11.4981 21.6924 11.0637L21.3393 11.4177C21.6804 11.7579 21.8678 12.2109 21.8678 12.6944H22.3678ZM21.6926 11.0639C20.8183 10.1896 19.307 10.1908 18.4338 11.0639L18.7874 11.4175C19.4655 10.7394 20.6601 10.7386 21.3391 11.4175L21.6926 11.0639ZM18.4341 11.0637C17.9985 11.4981 17.7586 12.0786 17.7586 12.6944H18.2586C18.2586 12.2109 18.4461 11.7579 18.7871 11.4177L18.4341 11.0637ZM17.7586 12.6944V14.2702H18.2586V12.6944H17.7586ZM18.1854 14.0935L11.1596 7.06872L10.8061 7.4223L17.8318 14.447L18.1854 14.0935ZM11.1596 7.06873C10.2607 6.1698 8.79873 6.1698 7.8998 7.06873L8.25335 7.42228C8.95702 6.71861 10.1024 6.71861 10.8061 7.42228L11.1596 7.06873ZM7.8998 7.06873C7.00079 7.96774 7.00198 9.42969 7.8998 10.3275L8.25335 9.97396C7.55063 9.27124 7.54977 8.12587 8.25335 7.42228L7.8998 7.06873ZM7.8998 10.3275L9.5661 11.9938L9.91965 11.6403L8.25335 9.97396L7.8998 10.3275ZM9.68358 11.5742C9.29741 11.6684 8.92515 11.8535 8.62644 12.1546L8.98138 12.5068C9.20454 12.2819 9.48976 12.1362 9.80216 12.0599L9.68358 11.5742ZM8.62737 12.1537C8.19189 12.588 7.95191 13.1675 7.95191 13.7833H8.45191C8.45191 13.2999 8.63929 12.848 8.98045 12.5077L8.62737 12.1537ZM7.95191 13.7833C7.95191 14.1398 8.04054 14.4766 8.18725 14.7814L8.63777 14.5645C8.51943 14.3187 8.45191 14.0556 8.45191 13.7833H7.95191ZM8.36522 14.4275C7.9289 14.5115 7.51129 14.7213 7.17349 15.0591L7.52705 15.4127C7.79125 15.1485 8.11742 14.9844 8.45979 14.9184L8.36522 14.4275ZM7.17349 15.0591C6.45697 15.7757 6.32308 16.8456 6.74476 17.7038L7.19352 17.4834C6.86115 16.8068 6.96971 15.97 7.52705 15.4127L7.17349 15.0591ZM6.92537 17.3475C6.48148 17.4264 6.05541 17.6298 5.72088 17.9644L6.07443 18.3179C6.32958 18.0628 6.6596 17.9026 7.01291 17.8397L6.92537 17.3475ZM5.72041 17.9648C5.28673 18.4008 5.04668 18.9798 5.04668 19.5948H5.54668C5.54668 19.1126 5.73398 18.6602 6.0749 18.3175L5.72041 17.9648ZM5.04668 19.5948C5.04668 20.2106 5.28666 20.7901 5.72214 21.2244L6.07522 20.8704C5.73406 20.5301 5.54668 20.0782 5.54668 19.5948H5.04668ZM5.72191 21.2242L7.17452 22.6768L7.52807 22.3232L6.07546 20.8706L5.72191 21.2242ZM7.52807 22.6768L8.25438 21.9505L7.90083 21.5969L7.17452 22.3232L7.52807 22.6768ZM8.25432 21.5969L6.80068 20.1443L6.44725 20.4979L7.90089 21.9506L8.25432 21.5969ZM6.80074 20.1443C6.65467 19.9983 6.57399 19.8041 6.57399 19.5948H6.07399C6.07399 19.9362 6.20698 20.2577 6.44719 20.4979L6.80074 20.1443ZM6.57399 19.5948C6.57399 19.3869 6.65445 19.1926 6.80177 19.0453L6.44821 18.6917C6.20721 18.9327 6.07399 19.2541 6.07399 19.5948H6.57399ZM6.80153 19.0455C7.09228 18.7555 7.61032 18.7555 7.90106 19.0455L8.25415 18.6915C7.76825 18.2069 6.93435 18.2069 6.44845 18.6915L6.80153 19.0455ZM7.90058 19.045L8.26322 19.4087L8.61727 19.0556L8.25463 18.692L7.90058 19.045ZM8.26347 19.4089L9.35344 20.4989L9.707 20.1454L8.61702 19.0554L8.26347 19.4089ZM9.707 20.4989L10.4333 19.7726L10.0798 19.419L9.35344 20.1454L9.707 20.4989ZM10.4333 19.419L8.25331 17.2401L7.89984 17.5937L10.0798 19.7726L10.4333 19.419ZM8.25335 17.2401C7.95033 16.9371 7.95033 16.4441 8.25335 16.1411L7.8998 15.7875C7.40152 16.2858 7.40152 17.0954 7.8998 17.5937L8.25335 17.2401ZM8.25335 16.1411C8.54347 15.8509 9.06253 15.8517 9.35391 16.1415L9.70653 15.787C9.22126 15.3043 8.38633 15.301 7.8998 15.7875L8.25335 16.1411ZM9.35344 16.1411L9.71711 16.5047L10.0707 16.1512L9.707 15.7875L9.35344 16.1411ZM9.71711 16.5047L11.5334 18.321L11.8869 17.9675L10.0707 16.1512L9.71711 16.5047ZM11.8869 18.321L12.6133 17.5947L12.2597 17.2411L11.5334 17.9675L11.8869 18.321ZM12.6133 17.2411L10.797 15.4249L10.4434 15.7784L12.2597 17.5947L12.6133 17.2411ZM10.797 15.4249L10.4333 15.0612L10.0798 15.4147L10.4434 15.7784L10.797 15.4249ZM10.4333 15.0612L9.707 14.3349L9.35344 14.6884L10.0798 15.4147L10.4333 15.0612ZM9.707 14.3349C9.55968 14.1876 9.47922 13.9933 9.47922 13.7854H8.97922C8.97922 14.126 9.11244 14.4474 9.35344 14.6884L9.707 14.3349ZM9.47922 13.7854C9.47922 13.5762 9.55983 13.3822 9.70653 13.2363L9.35391 12.8818C9.11228 13.1222 8.97922 13.4439 8.97922 13.7854H9.47922ZM9.70676 13.2361C9.99751 12.9461 10.5155 12.9461 10.8063 13.2361L11.1594 12.882C10.6735 12.3974 9.83958 12.3974 9.35368 12.882L9.70676 13.2361ZM10.8061 13.2358L11.1697 13.5995L11.5233 13.2459L11.1596 12.8823L10.8061 13.2358ZM11.1697 13.5995L13.7123 16.1421L14.0659 15.7885L11.5233 13.2459L11.1697 13.5995ZM14.0659 16.1421L14.7922 15.4158L14.4386 15.0622L13.7123 15.7885L14.0659 16.1421ZM14.7922 15.0622L8.98069 9.25074L8.62714 9.60429L14.4386 15.4158L14.7922 15.0622ZM8.98069 9.25074C8.67767 8.94772 8.67767 8.45469 8.98069 8.15167L8.62714 7.79812C8.12885 8.2964 8.12885 9.10601 8.62714 9.60429L8.98069 9.25074ZM8.98069 8.15167C9.28371 7.84865 9.77776 7.84865 10.0808 8.15167L10.4343 7.79812C9.93605 7.29984 9.12542 7.29984 8.62714 7.79812L8.98069 8.15167ZM10.0808 8.15167L17.763 15.8339L18.1166 15.4803L10.4343 7.79812L10.0808 8.15167ZM17.7615 15.8324C18.0167 16.0919 18.4017 16.167 18.7351 16.0288L18.5436 15.5669C18.3963 15.628 18.2286 15.5943 18.118 15.4818L17.7615 15.8324ZM18.7348 16.0289C19.0692 15.8909 19.2869 15.5679 19.2869 15.2051H18.7869C18.7869 15.3642 18.6924 15.5055 18.544 15.5668L18.7348 16.0289ZM19.2869 15.2051V12.6985H18.7869V15.2051H19.2869ZM19.2869 12.6985C19.2869 12.4893 19.3676 12.2953 19.5142 12.1494L19.1616 11.7949C18.92 12.0353 18.7869 12.357 18.7869 12.6985H19.2869ZM19.515 12.1487C19.8055 11.8574 20.323 11.8571 20.6148 12.1489L20.9684 11.7954C20.4815 11.3085 19.6471 11.3082 19.1609 11.7956L19.515 12.1487ZM20.6148 12.1489C20.7609 12.295 20.8416 12.4892 20.8416 12.6985H21.3416C21.3416 12.3571 21.2086 12.0356 20.9684 11.7954L20.6148 12.1489ZM20.8416 12.6985V12.6995H21.3416V12.6985H20.8416ZM20.8416 12.6995V13.1001H21.3416V12.6995H20.8416ZM20.8416 13.1001V13.2121H21.3416V13.1001H20.8416ZM20.8416 13.2124L20.8508 21.1021L21.3508 21.1016L21.3416 13.2118L20.8416 13.2124ZM21.1013 21.3519L22.1286 21.3498L22.1276 20.8498L21.1003 20.8519L21.1013 21.3519Z" fill="#18A886"/>
</g>
<defs>
<clipPath id="clip0_1100_19088">
<rect width="24" height="24" fill="white"/>
</clipPath>
</defs>
</svg>
