<svg width="375" height="241" viewBox="0 0 375 241" fill="none" xmlns="http://www.w3.org/2000/svg">
<path fill-rule="evenodd" clip-rule="evenodd" d="M201.067 1.46804C109.537 -10.276 101.876 52.107 58.8836 58.634C42.8626 61.067 25.86 44.2412 0 53.0182L0 154.422C24.49 155.591 39.1186 158.672 55.8116 169.701C96.7136 196.723 168.521 266.807 252.967 229.425C302.459 207.517 342.077 176.332 375 147.009V10.5555C361.98 15.4515 355.055 30.784 315.4 30.784C256.768 30.784 270.095 10.325 201.067 1.46804Z" fill="#F0F0F0"/>
<path fill-rule="evenodd" clip-rule="evenodd" d="M215.182 180.66L177.8 180.508C166.608 180.463 157.573 171.354 157.618 160.162L158.126 34.6997C158.171 23.5077 167.281 14.4727 178.472 14.5177L215.855 14.6687C227.046 14.7147 236.082 23.8237 236.037 35.0147L235.529 160.478C235.483 171.67 226.374 180.705 215.182 180.66" fill="#686868"/>
<path fill-rule="evenodd" clip-rule="evenodd" d="M215.593 180.559H165.394C157.741 180.559 151.537 174.356 151.537 166.703V28.4229C151.537 20.7699 157.741 13.7529 165.394 13.7529H215.593C223.245 13.7529 229.449 20.7699 229.449 28.4229V166.703C229.449 174.356 223.245 180.559 215.593 180.559" fill="white"/>
<path fill-rule="evenodd" clip-rule="evenodd" d="M177.129 21.5361C177.249 22.3301 176.703 23.0721 175.909 23.1921C175.115 23.3131 174.373 22.7661 174.253 21.9731C174.132 21.1781 174.679 20.4371 175.473 20.3161C176.267 20.1961 177.008 20.7421 177.129 21.5361ZM202.832 21.6515C202.952 22.4455 202.406 23.1875 201.612 23.3075C200.818 23.4285 200.077 22.8825 199.956 22.0885C199.836 21.2935 200.382 20.5525 201.176 20.4315C201.97 20.3115 202.712 20.8575 202.832 21.6515ZM181.105 22.4351L196.555 22.6501C196.89 22.6551 197.165 22.3871 197.17 22.0531C197.174 21.7181 196.907 21.4431 196.573 21.4381L181.121 21.2231C180.786 21.2191 180.512 21.4861 180.507 21.8211C180.502 22.1561 180.77 22.4311 181.105 22.4351Z" fill="#BCBCBC"/>
<path fill-rule="evenodd" clip-rule="evenodd" d="M152.466 98.1414L152.184 130.118C152.184 130.118 154.908 136.129 155.876 137.671C158.419 141.722 159.549 147.561 152.343 149.39V154.446C152.343 154.446 154.281 157.091 153.222 159.55L152.163 162.01L152.343 165.749C152.343 165.749 146.391 163.027 146.006 162.988C145.622 162.948 145.629 163.024 143.985 163.333C142.34 163.642 140.207 163.617 136.378 158.58C132.55 153.543 127.701 147.386 127.701 147.386C127.701 147.386 125.09 143.145 127.025 140.297C128.959 137.45 131.781 135.126 134.012 135.37L128.796 126.965C128.796 126.965 126.414 121.942 129.807 118.422C133.199 114.902 135.067 113.735 138.133 113.975C138.133 113.975 138.747 111.634 139.83 108.639C140.914 105.644 144.77 96.6024 148.697 94.7054C152.625 92.8084 152.299 96.5684 152.299 96.5684L152.466 98.1414Z" fill="#F9D8C9"/>
<mask id="mask0_862_19636" style="mask-type:luminance" maskUnits="userSpaceOnUse" x="0" y="0" width="375" height="241">
<path fill-rule="evenodd" clip-rule="evenodd" d="M179.301 0C107.956 0.005 98.191 52.667 58.884 58.635C52.068 59.67 43.085 57.431 33.021 55.19C19.426 52.166 14.859 46.9248 0 51.9678L0 154.422C24.491 155.592 39.118 158.672 55.812 169.701C96.714 196.723 168.52 266.807 252.967 229.425C302.458 207.517 342.076 176.332 375 147.009V10.5554C361.98 15.4514 355.055 30.784 315.399 30.784C256.768 30.784 270.095 10.324 201.067 1.468C193.235 0.463 186.012 0.001 179.333 0" fill="white"/>
</mask>
<g mask="url(#mask0_862_19636)">
<path fill-rule="evenodd" clip-rule="evenodd" d="M259.727 226.251L252.153 213.829C252.153 213.829 260.03 162.623 259.727 157.17C259.424 151.716 254.273 104.449 253.667 95.3596C253.061 86.2696 254.273 80.5126 254.273 80.5126C254.273 80.5126 256.394 72.3326 248.213 73.5446C240.033 74.7566 231.852 93.2386 232.458 107.782C233.064 122.326 236.94 135.96 232.426 142.323C227.914 148.686 214.303 163.172 211.879 179.534L160.931 179.814C160.931 179.814 170.714 190.543 173.981 202.012C178.05 216.297 196.828 242.286 196.828 242.286C196.828 242.286 246.092 242.007 259.727 226.251" fill="#F9D8C9"/>
</g>
<rect x="160.771" y="79.7715" width="58.4571" height="35.4286" rx="3" fill="#F2F2F2"/>
<rect x="184.39" y="84.4952" width="25.981" height="1.18095" rx="0.590476" fill="#D9D9D9"/>
<rect x="184.39" y="88.6285" width="25.981" height="1.18095" rx="0.590476" fill="#D9D9D9"/>
<rect x="165.495" y="99.8477" width="29.5238" height="1.18095" rx="0.590476" fill="#D9D9D9"/>
<rect x="165.495" y="103.981" width="44.8762" height="1.18095" rx="0.590476" fill="#D9D9D9"/>
<mask id="mask1_862_19636" style="mask-type:alpha" maskUnits="userSpaceOnUse" x="165" y="84" width="14" height="15">
<rect x="165.495" y="84.4952" width="12.9905" height="13.581" rx="2" fill="#D8D8D8"/>
</mask>
<g mask="url(#mask1_862_19636)">
<rect x="165.495" y="84.4952" width="12.9905" height="13.581" rx="2" fill="#D8D8D8"/>
<path d="M171.961 99.657H171.344C169.658 99.657 168.838 97.5998 170.059 96.438C170.406 96.1078 170.867 95.9237 171.346 95.9237H172.623C173.075 95.9237 173.511 96.0873 173.851 96.3842C175.15 97.5185 174.348 99.657 172.623 99.657H171.961Z" fill="#265954"/>
<path d="M170.6 94.438C170.6 94.0278 170.932 93.6952 171.342 93.6952H172.581C172.991 93.6952 173.323 94.0278 173.323 94.438C173.323 94.8483 172.991 95.1809 172.581 95.1809H171.342C170.932 95.1809 170.6 94.8483 170.6 94.438Z" fill="#F3D6C0"/>
<path d="M170.6 95.5523C170.6 95.3472 170.766 95.1809 170.971 95.1809H172.952C173.157 95.1809 173.323 95.3472 173.323 95.5523C173.323 95.7575 173.157 95.9238 172.952 95.9238H170.971C170.766 95.9238 170.6 95.7575 170.6 95.5523Z" fill="#265954"/>
<ellipse cx="171.961" cy="90.3523" rx="3.59048" ry="4.08571" fill="#F3D6C0"/>
<path d="M168.79 90.9926C168.657 91.4895 168.649 91.9521 168.742 92.2095C167.776 90.2771 168.224 88.1091 170.2 86.7398C170.3 86.6707 170.41 86.6128 170.524 86.5701C173.998 85.2636 175.674 88.6469 175.552 90.3523C175.532 89.7731 174.763 89.448 174.332 89.0598C174.292 89.0238 174.252 88.99 174.211 88.9581C173.681 88.5441 173.039 89.0333 172.493 89.4262C171.964 89.8062 171.238 89.9461 170.567 89.9655C169.803 89.9876 168.987 90.2537 168.79 90.9926Z" fill="black"/>
<path d="M175.255 92.0362C175.332 91.8038 175.428 91.4138 175.428 91.3428C175.421 91.3913 175.318 91.5876 175.212 91.718C175.15 91.795 175.089 91.9351 175.12 92.0292C175.151 92.12 175.225 92.1272 175.255 92.0362Z" fill="black"/>
</g>
<path d="M159 85.6762V80.843C159.098 79.8954 159.886 78 162.248 78C164.61 78 166.184 78 166.676 78" stroke="#18A886" stroke-linecap="round"/>
<path d="M221 85.6762V80.843C220.901 79.8954 220.114 78 217.752 78C215.39 78 213.816 78 213.324 78" stroke="#18A886" stroke-linecap="round"/>
<path d="M166.676 116.971L161.843 116.971C160.895 116.873 159 116.086 159 113.724C159 111.362 159 109.787 159 109.295" stroke="#18A886" stroke-linecap="round"/>
<path d="M213.324 116.971L218.157 116.971C219.104 116.873 221 116.086 221 113.724C221 111.362 221 109.787 221 109.295" stroke="#18A886" stroke-linecap="round"/>
</svg>
