<svg width="107" height="68" viewBox="0 0 107 68" fill="none" xmlns="http://www.w3.org/2000/svg">
<rect x="4" y="4" width="99" height="60" rx="5" fill="#F2F2F2"/>
<rect x="44" y="12" width="44" height="2" rx="1" fill="#D9D9D9"/>
<rect x="44" y="19" width="44" height="2" rx="1" fill="#D9D9D9"/>
<rect x="12" y="38" width="50" height="2" rx="1" fill="#D9D9D9"/>
<rect x="12" y="45" width="76" height="2" rx="1" fill="#D9D9D9"/>
<mask id="mask0_23_11466" style="mask-type:alpha" maskUnits="userSpaceOnUse" x="12" y="12" width="22" height="23">
<rect x="12" y="12" width="22" height="23" rx="2" fill="#D8D8D8"/>
</mask>
<g mask="url(#mask0_23_11466)">
<rect x="12" y="12" width="22" height="23" rx="2" fill="#D8D8D8"/>
<path d="M17.6249 34.2285L20.066 31.9059C20.4378 31.5522 20.9314 31.3549 21.4446 31.3549H24.5079C24.9915 31.3549 25.4588 31.5301 25.8232 31.8483L28.4835 34.1708C29.8755 35.3861 29.0147 37.6774 27.1669 37.6774H22.9516H19.0033C17.1974 37.6774 16.3166 35.4733 17.6249 34.2285Z" fill="#265954"/>
<path d="M20.645 28.8388C20.645 28.1439 21.2083 27.5807 21.9031 27.5807H23.9999C24.6947 27.5807 25.2579 28.1439 25.2579 28.8388C25.2579 29.5336 24.6947 30.0968 23.9999 30.0968H21.9031C21.2083 30.0968 20.645 29.5336 20.645 28.8388Z" fill="#F3D6C0"/>
<path d="M20.645 30.7258C20.645 30.3784 20.9266 30.0968 21.2741 30.0968H24.6289C24.9763 30.0968 25.2579 30.3784 25.2579 30.7258C25.2579 31.0732 24.9763 31.3549 24.6289 31.3549H21.2741C20.9266 31.3549 20.645 31.0732 20.645 30.7258Z" fill="#265954"/>
<ellipse cx="22.9515" cy="21.9194" rx="6.08065" ry="6.91935" fill="#F3D6C0"/>
<path d="M17.8637 22.1849C17.3819 23.3062 17.2905 24.4888 17.4999 25.0645C15.8466 21.7583 16.6374 18.0447 20.0725 15.7302C20.1731 15.6623 20.2852 15.6038 20.3983 15.5595C26.3618 13.2243 29.2398 19.0118 29.0321 21.9194C29.0314 21.899 29.0305 21.8792 29.0293 21.8597C28.973 20.9143 27.7034 20.4158 27.0104 19.7702C26.8437 19.615 26.6697 19.4816 26.4949 19.3678C25.6995 18.8501 24.8201 19.5195 24.1081 20.1469C22.986 21.1357 21.1656 21.3335 19.7234 21.2517C18.9598 21.2083 18.1656 21.4822 17.8637 22.1849Z" fill="black"/>
<path d="M28.5295 24.7712C28.6587 24.3775 28.8221 23.717 28.8221 23.5968C28.8109 23.6791 28.6356 24.0114 28.4569 24.2322C28.3513 24.3627 28.2479 24.6 28.301 24.7593C28.3523 24.9131 28.479 24.9253 28.5295 24.7712Z" fill="black"/>
</g>
<path opacity="0.25" d="M1 14V5.81481C1.16667 4.20988 2.5 1 6.5 1C10.5 1 13.1667 1 14 1" stroke="#18A886" stroke-width="2" stroke-linecap="round"/>
<path opacity="0.25" d="M106 14V5.81481C105.833 4.20988 104.5 1 100.5 1C96.5 1 93.8333 1 93 1" stroke="#18A886" stroke-width="2" stroke-linecap="round"/>
<path opacity="0.25" d="M14 67L5.81482 67C4.20988 66.8333 1 65.5 1 61.5C1 57.5 0.999999 54.8333 0.999999 54" stroke="#18A886" stroke-width="2" stroke-linecap="round"/>
<path opacity="0.25" d="M93 67L101.185 67C102.79 66.8333 106 65.5 106 61.5C106 57.5 106 54.8333 106 54" stroke="#18A886" stroke-width="2" stroke-linecap="round"/>
</svg>
