<svg width="80" height="80" viewBox="0 0 80 80" fill="none" xmlns="http://www.w3.org/2000/svg">
<mask id="mask0_33_15316" style="mask-type:alpha" maskUnits="userSpaceOnUse" x="0" y="0" width="80" height="80">
<path fill-rule="evenodd" clip-rule="evenodd" d="M0 40C0 62.0917 17.9083 80 40 80C62.0906 80 80 62.0917 80 40C80 17.9083 62.0906 0 40 0C17.9083 0 0 17.9083 0 40Z" fill="#E6E6E6"/>
</mask>
<g mask="url(#mask0_33_15316)">
<path fill-rule="evenodd" clip-rule="evenodd" d="M0 40C0 62.0917 17.9083 80 40 80C62.0906 80 80 62.0917 80 40C80 17.9083 62.0906 0 40 0C17.9083 0 0 17.9083 0 40Z" fill="#F7F7F7"/>
<path fill-rule="evenodd" clip-rule="evenodd" d="M47.0003 26.4518C47.0003 31.4957 51.0891 35.5844 56.133 35.5844C61.1766 35.5844 65.2656 31.4957 65.2656 26.4518C65.2656 21.4079 61.1766 17.3192 56.133 17.3192C51.0891 17.3192 47.0003 21.4079 47.0003 26.4518Z" fill="white"/>
<path fill-rule="evenodd" clip-rule="evenodd" d="M54.3237 23.7501C53.7281 23.7501 53.135 23.9775 52.6809 24.434C51.7724 25.347 51.7736 26.8253 52.6809 27.7391L56.3493 31.4336C56.3885 31.4733 56.4421 31.4957 56.4981 31.4957C56.5538 31.4957 56.6074 31.4733 56.647 31.4336C57.8717 30.2027 59.094 28.9731 60.3186 27.7423C61.2271 26.8293 61.2271 25.3535 60.3186 24.4405C59.4101 23.5275 57.9384 23.5275 57.0299 24.4405L56.503 24.9673L55.9696 24.4339C55.5156 23.9774 54.9192 23.75 54.3236 23.75L54.3237 23.7501Z" fill="#F1C3B2"/>
<rect width="0.243161" height="15.3191" transform="matrix(-1 0 0 1 56.2676 2)" fill="#282828"/>
<path fill-rule="evenodd" clip-rule="evenodd" d="M34.4905 66.0573C36.801 68.4921 42.3339 75.1165 43.246 76.515C44.1578 77.9134 44.5226 78.7647 44.5226 78.7647C44.5226 78.7647 45.0089 76.0286 46.7723 71.1037C48.5355 66.1789 52.0012 57.9102 52.5484 56.5116C53.0955 55.1134 56.0139 51.4652 56.622 50.8571C56.622 50.8571 58.0812 49.4587 59.0539 49.0331C60.0268 48.6076 61.7899 48.3645 61.7899 48.3645C61.7899 48.3645 61.7598 48.942 61.2428 49.4587C60.7261 49.9756 58.7499 51.1003 58.7499 51.4045C58.7499 51.7084 58.811 52.6813 58.811 52.6813C58.811 52.6813 62.0941 51.1613 62.4589 50.0668C62.8236 48.9724 65.9852 45.8108 66.411 45.385C66.8363 44.9595 67.0797 46.1755 66.411 46.8442C65.742 47.5131 65.742 49.8237 64.7084 50.8571C63.6749 51.8908 61.6988 54.4141 60.2091 55.9037C58.7198 57.3933 57.6861 58.8525 56.8652 59.6731C56.0445 60.4941 55.8315 62.5918 55.3452 64.1118C54.8589 65.6318 50.7244 81.5007 50.3597 83.5071C49.9947 85.5134 47.9884 86.3647 45.6778 86.3647C43.3673 86.3647 34.1257 77.5486 34.1257 77.5486L34.4905 66.0573Z" fill="#F1C3B2"/>
<path fill-rule="evenodd" clip-rule="evenodd" d="M57.1624 54.7237L57.399 54.9491C57.6429 55.1811 58.0288 55.1716 58.2612 54.9278L71.1541 41.3839C71.3863 41.1398 71.3769 40.7539 71.133 40.5217L70.8964 40.2965C70.6525 40.0643 70.2663 40.0738 70.0341 40.3177L57.1412 53.8617C56.909 54.1056 56.9185 54.4915 57.1624 54.7237Z" fill="#686868"/>
<path fill-rule="evenodd" clip-rule="evenodd" d="M21.0788 36.5865C17.9755 34.417 15.9458 30.8172 15.9458 26.7435C15.9458 20.1151 21.3192 14.7418 27.9475 14.7418C34.5761 14.7418 39.9492 20.1151 39.9492 26.7435C39.9492 33.3718 34.5761 38.7452 27.9475 38.7452C27.656 38.7452 27.367 38.7348 27.0807 38.7143L25.8577 49.5803L18.9264 48.6683C18.9264 48.6683 20.7531 41.6109 21.0788 36.5865Z" fill="#F9D8C9"/>
<path fill-rule="evenodd" clip-rule="evenodd" d="M12.0558 51.6476L14.5183 56.39C14.5183 56.39 15.6125 54.1101 17.9838 52.0123C20.3551 49.9148 20.4463 47.0876 20.811 43.4397C20.9625 41.9238 21.0043 39.3393 21.0007 36.833C20.9954 33.3072 20.9022 29.9418 20.9022 29.9418C19.8078 29.7594 18.8045 29.1209 18.4397 27.4793C18.075 25.8377 19.8989 24.2873 21.6317 24.6521C23.3647 25.0168 23.9118 24.8345 25.5534 24.1962C27.1952 23.5576 27.56 22.4634 27.56 22.4634L39.7937 28.6231C39.8428 28.3732 39.8848 28.1215 39.9157 27.8662C39.987 27.3317 40.0234 26.7863 40.0234 26.2336C40.0234 19.3497 34.4439 13.7684 27.56 13.7684C22.9377 13.7684 18.9032 16.2854 16.751 20.0228C13.6062 23.0944 15.5123 34.5419 15.1566 40.1563C14.7444 46.6407 12.0558 51.6476 12.0558 51.6476Z" fill="#FB853C"/>
<path fill-rule="evenodd" clip-rule="evenodd" d="M28.5323 67.5165L40.6926 79.0686L44.5839 63.8684C44.5839 63.8684 45.4349 58.8828 45.4349 57.7884C45.4349 56.6941 47.1981 54.3228 47.8668 53.6541C48.5357 52.9852 50.907 51.9515 50.907 51.9515L53.5823 50.8573C53.5823 50.8573 53.7722 51.26 52.9287 52.1035C52.0849 52.947 50.6714 53.2663 50.3293 53.6084C49.9874 53.9503 49.235 54.4291 49.0981 54.566C48.9612 54.7029 48.8701 55.1588 48.8701 55.1588C48.8701 55.1588 50.0102 55.3412 50.2838 55.9797C50.5574 56.618 51.6973 57.8492 51.4237 59.0805C51.1502 60.3116 49.8279 63.5493 49.4174 64.9631C49.007 66.3766 47.5478 74.174 47.5478 75.5423C47.5478 76.9103 46.9095 80.923 46.6814 82.5645C46.4533 84.2064 44.2189 86.0303 40.6164 86.0303C37.014 86.0303 35.2355 83.9783 32.9099 82.0631C30.5843 80.1478 22.7412 73.9916 22.7412 73.9916L28.5323 67.5165Z" fill="#F9D8C9"/>
<path fill-rule="evenodd" clip-rule="evenodd" d="M24.7637 82.3519L11.3684 38.7755C10.6209 36.3438 8.37437 34.6843 5.83042 34.6843H0.656681C-0.468426 34.6843 -1.38052 35.5964 -1.38052 36.7215V82.8382L24.7637 82.3519Z" fill="#E60028"/>
<path fill-rule="evenodd" clip-rule="evenodd" d="M25.8586 49.5803L18.9275 48.6685C18.9275 48.6685 16.0697 51.8908 15.9481 54.1403C15.8267 56.39 25.6152 89.5258 25.6152 89.5258H41.7275C41.7275 89.5258 37.1067 68.915 36.5596 67.8206C36.0123 66.7261 35.1916 64.0815 33.185 62.0749C31.1787 60.0683 28.777 55.8429 27.7433 53.8364C26.7097 51.83 25.8586 49.5803 25.8586 49.5803Z" fill="#686868"/>
</g>
</svg>
