<svg width="50" height="32" viewBox="0 0 50 32" fill="none" xmlns="http://www.w3.org/2000/svg">
<path d="M20.0743 20.1543L17.8172 18.8257L17.385 18.9377L17.6411 19.9623L15.3359 23.484L16.6006 24.4125L15.432 26.1894C19.3059 26.0933 22.6036 23.6281 23.9483 20.2024L22.7316 19.466L20.0903 20.1383L20.0743 20.1543Z" fill="#017F96"/>
<path d="M10.4517 18.2972L10.3396 16.2161L12.1005 14.6794L13.7173 15.6719L13.9895 15.6078L14.2616 12.006L10.1635 8.83643C7.52223 10.5013 5.77734 13.4467 5.77734 16.7924C5.77734 17.2406 5.80936 17.6728 5.87339 18.1051L8.8829 17.4808L10.4677 18.2972H10.4517Z" fill="#017F96"/>
<path d="M19.9128 11.1898L19.7688 13.3989L21.6257 13.1588L23.0344 14.4394L24.251 14.3594C23.5147 11.606 21.5457 9.34887 18.9844 8.19629L19.1284 10.4374L19.9128 11.1738V11.1898Z" fill="#017F96"/>
<path d="M49.3357 16.8087C49.3357 12.8227 47.8149 9.20486 45.3176 6.49951L43.8449 6.91572C46.4062 9.44499 48.007 12.9507 48.007 16.8087C48.007 21.8352 45.3337 26.2214 41.3317 28.6706L41.7319 25.373L40.4032 25.2129L39.7148 30.9437L45.3977 31.6321L45.5578 30.3034L41.988 29.8712C46.4062 27.1979 49.3677 22.3635 49.3677 16.8247L49.3357 16.8087Z" fill="#017F96"/>
<path d="M25.7089 27.8699C28.6383 25.0845 30.4793 21.1626 30.4793 16.7924C30.4793 12.4222 28.6383 8.50025 25.7089 5.71486C28.046 3.93797 30.9435 2.88144 34.0971 2.88144C36.6904 2.88144 39.1076 3.6018 41.1726 4.83441L37.7789 5.7949L38.1471 7.09155L43.7019 5.52276L42.1491 0L40.8524 0.368183L41.7649 3.6018C39.5078 2.28914 36.8985 1.52076 34.0971 1.52076C30.5273 1.52076 27.2616 2.75337 24.6683 4.78639C22.075 2.73737 18.7934 1.52076 15.2396 1.52076C6.81942 1.52076 0 8.34017 0 16.7604C0 25.1806 6.81942 32 15.2396 32C18.8094 32 22.075 30.7674 24.6683 28.7344C27.2616 30.7834 30.5433 32 34.0971 32C35.5378 32 36.9465 31.7919 38.2751 31.4237L38.4512 29.967C37.0745 30.4152 35.6178 30.6713 34.0971 30.6713C30.9435 30.6713 28.046 29.6148 25.7089 27.8379V27.8699ZM15.1756 27.5338C9.23664 27.5338 4.43422 22.7154 4.43422 16.7924C4.43422 10.8694 9.25264 6.05102 15.1756 6.05102C21.0986 6.05102 25.917 10.8694 25.917 16.7924C25.917 22.7154 21.0986 27.5338 15.1756 27.5338Z" fill="#017F96"/>
<path d="M24.5061 15.6881L22.5531 15.8162L21.1764 14.5676L18.311 14.9358L18.5191 11.7182L17.8148 11.0618L17.5906 7.71615C16.8223 7.50805 16.0058 7.396 15.1574 7.396C13.8448 7.396 12.5961 7.66813 11.4596 8.16437L15.6377 11.398L15.2375 16.7447L13.4446 17.1129L12.212 16.3605L11.6997 16.8247L11.8118 18.9218L10.6912 19.9783L8.65817 18.9218L6.12891 19.45C7.15342 22.9558 10.1629 25.6131 13.8448 26.1254L14.7412 24.7487L13.4766 23.8202L16.1499 19.7222L15.7337 17.9933L17.9748 17.385L20.248 18.7297L22.9053 18.0573L24.314 18.9057C24.4741 18.2334 24.5541 17.5291 24.5541 16.8247C24.5541 16.4565 24.5221 16.0883 24.4901 15.7202L24.5061 15.6881Z" fill="#017F96"/>
</svg>
