<svg width="57" height="83" viewBox="0 0 57 83" fill="none" xmlns="http://www.w3.org/2000/svg">
<path d="M56 41.5C56 52.7839 52.8573 62.9557 47.8282 70.2788C42.796 77.6064 35.9454 82 28.5 82C21.0546 82 14.204 77.6064 9.17179 70.2788C4.14268 62.9557 1 52.7839 1 41.5C1 30.2161 4.14268 20.0443 9.17179 12.7212C14.204 5.39358 21.0546 1 28.5 1C35.9454 1 42.796 5.39358 47.8282 12.7212C52.8573 20.0443 56 30.2161 56 41.5Z" fill="white" stroke="#C5E9E1" stroke-width="2"/>
<path d="M10 72.5L23 67H34L47 72.5C41.4 80.9 32 82.6667 28 82.5C17.6 82.1 11.6667 75.6667 10 72.5Z" fill="#265954"/>
<path d="M23 58H34V64H23V58Z" fill="#F3D6C0"/>
<path d="M23 64H34V67H23V64Z" fill="#265954"/>
<ellipse cx="28.5" cy="44.5" rx="14.5" ry="16.5" fill="#F3D6C0"/>
<path d="M17.8457 42.5523C15.4457 45.7523 14.8334 50.1666 15.5001 51.9999C11.4998 43.9999 13.5 34.9999 21.9999 29.4999C36.4999 23.4999 43.5 37.4999 43 44.4999C42.6 42.8999 41.1792 42.5523 40.3459 42.5523C38.7459 38.5523 35.0125 37.2189 33.3459 37.0523C31.3459 43.4523 22.1791 43.3856 17.8457 42.5523Z" fill="black"/>
<path d="M41.5 52C42.3 50.4 42.5 49 42.5 48.5C42.1 49.7 41.5 50.5 41 50.5L41.5 52Z" fill="black"/>
</svg>
