<svg width="24" height="24" viewBox="0 0 24 24" fill="none" xmlns="http://www.w3.org/2000/svg">
<path fill-rule="evenodd" clip-rule="evenodd" d="M18.1905 6.08229C19.2192 6.96533 19.991 8.04833 20.4406 9.2381H22.7622L22.2194 14.6667H20.2497C19.7901 15.6664 19.0844 16.5893 18.1905 17.361V21H14.7442L13.9499 19.4121C12.7972 19.66 11.7603 19.7053 10.5941 19.5605L9.87481 21H6.42857V18.0532C4.21281 16.5947 2.88643 14.3247 2.82219 11.908C1.78443 11.7027 1 10.787 1 9.69048V6.52381H1.90476V9.69048C1.90476 10.2958 2.30557 10.8033 2.85295 10.978C3.28543 6.96262 7.1569 3.80952 11.8571 3.80952C12.8352 3.80952 13.7988 3.94795 14.728 4.22119C15.1342 2.92376 16.3475 2 17.7381 2H18.1905V6.08229ZM19.651 13.7615H21.4026L21.7645 10.1425H19.7948L19.6935 9.83035C19.299 8.61887 18.5246 7.51687 17.4551 6.64378L17.2887 6.50806V2.95144C16.3721 3.14235 15.642 3.90144 15.5117 4.86411L15.4375 5.4124L14.9137 5.22963C13.9338 4.88763 12.9069 4.71392 11.8601 4.71392C7.37066 4.71392 3.71723 7.85978 3.71723 11.7258C3.71723 13.9714 4.99023 16.1013 7.12185 17.4204L7.33628 17.5525V20.0949H9.31861L10.0813 18.5694L10.4079 18.6201C11.7162 18.8228 12.8083 18.7676 14.0903 18.4527L14.4414 18.3659L15.3063 20.0949H17.2887V16.9363L17.4533 16.8006C18.3961 16.0271 19.1163 15.0743 19.5361 14.0438L19.651 13.7615ZM15.477 9.23842C15.477 8.73899 15.8832 8.33366 16.3818 8.33366C16.8803 8.33366 17.2865 8.73899 17.2865 9.23842C17.2865 9.73785 16.8803 10.1432 16.3818 10.1432C15.8832 10.1432 15.477 9.73785 15.477 9.23842ZM10.0464 7.72236V6.78231C11.238 6.44574 12.5047 6.45117 13.6655 6.77869V7.72869C12.5635 7.36227 11.3276 7.32969 10.1785 7.68165L10.0464 7.72236Z" fill="#18a886"/>
<path d="M20.4406 9.2381L20.2068 9.32648L20.2678 9.4881H20.4406V9.2381ZM18.1905 6.08229H17.9405V6.19716L18.0276 6.27198L18.1905 6.08229ZM22.7622 9.2381L23.011 9.26297L23.0385 8.9881H22.7622V9.2381ZM22.2194 14.6667V14.9167H22.4456L22.4681 14.6915L22.2194 14.6667ZM20.2497 14.6667V14.4167H20.0895L20.0226 14.5622L20.2497 14.6667ZM18.1905 17.361L18.0271 17.1718L17.9405 17.2466V17.361H18.1905ZM18.1905 21V21.25H18.4405V21H18.1905ZM14.7442 21L14.5207 21.1119L14.5898 21.25H14.7442V21ZM13.9499 19.4121L14.1734 19.3003L14.0867 19.127L13.8973 19.1677L13.9499 19.4121ZM10.5941 19.5605L10.6249 19.3124L10.4495 19.2907L10.3705 19.4488L10.5941 19.5605ZM9.87481 21V21.25H10.0294L10.0984 21.1117L9.87481 21ZM6.42857 21H6.17857V21.25H6.42857V21ZM6.42857 18.0532H6.67857V17.9184L6.56602 17.8444L6.42857 18.0532ZM2.82219 11.908L3.0721 11.9014L3.06679 11.7016L2.87073 11.6628L2.82219 11.908ZM1 6.52381V6.27381H0.75V6.52381H1ZM1.90476 6.52381H2.15476V6.27381H1.90476V6.52381ZM2.85295 10.978L2.77697 11.2161L3.06872 11.3092L3.10151 11.0047L2.85295 10.978ZM14.728 4.22119L14.6574 4.46104L14.8931 4.53034L14.9665 4.29589L14.728 4.22119ZM18.1905 2H18.4405V1.75H18.1905V2ZM21.4026 13.7615V14.0115H21.6289L21.6514 13.7864L21.4026 13.7615ZM19.651 13.7615V13.5115H19.4828L19.4194 13.6673L19.651 13.7615ZM21.7645 10.1425L22.0133 10.1674L22.0408 9.89249H21.7645V10.1425ZM19.7948 10.1425L19.5571 10.2197L19.6132 10.3925H19.7948V10.1425ZM17.2887 6.50806H17.0387V6.6268L17.1307 6.70183L17.2887 6.50806ZM17.2887 2.95144H17.5387V2.644L17.2377 2.7067L17.2887 2.95144ZM15.4375 5.4124L15.3552 5.64844L15.6442 5.74928L15.6853 5.44592L15.4375 5.4124ZM7.33628 17.5525H7.58628V17.4129L7.4674 17.3396L7.33628 17.5525ZM7.33628 20.0949H7.08628V20.3449H7.33628V20.0949ZM9.31861 20.0949V20.3449H9.47312L9.54222 20.2067L9.31861 20.0949ZM10.0813 18.5694L10.1196 18.3224L9.93933 18.2944L9.85772 18.4576L10.0813 18.5694ZM14.4414 18.3659L14.665 18.254L14.5755 18.0752L14.3813 18.1232L14.4414 18.3659ZM15.3063 20.0949L15.0827 20.2067L15.1519 20.3449H15.3063V20.0949ZM17.2887 20.0949V20.3449H17.5387V20.0949H17.2887ZM17.2887 16.9363L17.1297 16.7434L17.0387 16.8184V16.9363H17.2887ZM15.93 9.23812V8.98812L15.9295 9.48812L15.93 9.23812ZM16.3823 9.23812H16.6323V8.98812H16.3823V9.23812ZM16.3823 9.23812L16.3818 9.48902L16.6323 9.48952V9.23812H16.3823ZM10.0464 6.78231L9.97848 6.54173L9.79644 6.59315V6.78231H10.0464ZM10.0464 7.72236H9.79644V8.06102L10.1201 7.96127L10.0464 7.72236ZM13.6655 6.77869H13.9155V6.58947L13.7334 6.53809L13.6655 6.77869ZM13.6655 7.72869L13.5866 7.96592L13.9155 8.07528V7.72869H13.6655ZM20.6745 9.14971C20.209 7.91824 19.4117 6.80112 18.3533 5.89259L18.0276 6.27198C19.0267 7.12955 19.7729 8.17842 20.2068 9.32648L20.6745 9.14971ZM22.7622 8.9881H20.4406V9.4881H22.7622V8.9881ZM22.4681 14.6915L23.011 9.26297L22.5135 9.21322L21.9706 14.6418L22.4681 14.6915ZM20.2497 14.9167H22.2194V14.4167H20.2497V14.9167ZM18.3539 17.5503C19.2728 16.7569 20.0012 15.8058 20.4769 14.7711L20.0226 14.5622C19.579 15.5271 18.896 16.4216 18.0271 17.1718L18.3539 17.5503ZM18.4405 21V17.361H17.9405V21H18.4405ZM14.7442 21.25H18.1905V20.75H14.7442V21.25ZM13.7263 19.524L14.5207 21.1119L14.9678 20.8881L14.1734 19.3003L13.7263 19.524ZM10.5633 19.8086C11.7573 19.9568 12.8223 19.9104 14.0024 19.6566L13.8973 19.1677C12.7721 19.4097 11.7634 19.4537 10.6249 19.3124L10.5633 19.8086ZM10.0984 21.1117L10.8177 19.6723L10.3705 19.4488L9.65117 20.8883L10.0984 21.1117ZM6.42857 21.25H9.87481V20.75H6.42857V21.25ZM6.17857 18.0532V21H6.67857V18.0532H6.17857ZM2.57228 11.9147C2.63891 14.4213 4.01431 16.7634 6.29112 18.262L6.56602 17.8444C4.41131 16.4261 3.13395 14.228 3.0721 11.9014L2.57228 11.9147ZM0.75 9.69048C0.75 10.9091 1.62144 11.9253 2.77366 12.1533L2.87073 11.6628C1.94742 11.4801 1.25 10.665 1.25 9.69048H0.75ZM0.75 6.52381V9.69048H1.25V6.52381H0.75ZM1.90476 6.27381H1V6.77381H1.90476V6.27381ZM2.15476 9.69048V6.52381H1.65476V9.69048H2.15476ZM2.92893 10.7398C2.47986 10.5965 2.15476 10.1815 2.15476 9.69048H1.65476C1.65476 10.4101 2.13129 11.0101 2.77697 11.2161L2.92893 10.7398ZM11.8571 3.55952C7.05506 3.55952 3.05314 6.78471 2.60439 10.9512L3.10151 11.0047C3.51771 7.14053 7.25875 4.05952 11.8571 4.05952V3.55952ZM14.7985 3.98135C13.8462 3.70132 12.8589 3.55952 11.8571 3.55952V4.05952C12.8115 4.05952 13.7513 4.19458 14.6574 4.46104L14.7985 3.98135ZM17.7381 1.75C16.2356 1.75 14.9275 2.74729 14.4894 4.14649L14.9665 4.29589C15.3409 3.10023 16.4594 2.25 17.7381 2.25V1.75ZM18.1905 1.75H17.7381V2.25H18.1905V1.75ZM18.4405 6.08229V2H17.9405V6.08229H18.4405ZM21.4026 13.5115H19.651V14.0115H21.4026V13.5115ZM21.5158 10.1176L21.1539 13.7367L21.6514 13.7864L22.0133 10.1674L21.5158 10.1176ZM19.7948 10.3925H21.7645V9.89249H19.7948V10.3925ZM19.4557 9.90754L19.5571 10.2197L20.0326 10.0653L19.9313 9.75315L19.4557 9.90754ZM17.297 6.83743C18.3326 7.68289 19.0773 8.74552 19.4557 9.90754L19.9313 9.75315C19.5208 8.49222 18.7165 7.35085 17.6132 6.45012L17.297 6.83743ZM17.1307 6.70183L17.297 6.83743L17.6132 6.45012L17.4466 6.31429L17.1307 6.70183ZM17.0387 2.95144V6.50806H17.5387V2.95144H17.0387ZM15.7594 4.89764C15.8753 4.04142 16.5254 3.36579 17.3396 3.19619L17.2377 2.7067C16.2189 2.9189 15.4087 3.76146 15.264 4.83058L15.7594 4.89764ZM15.6853 5.44592L15.7594 4.89764L15.264 4.83058L15.1898 5.37887L15.6853 5.44592ZM14.8313 5.46567L15.3552 5.64844L15.5199 5.17635L14.996 4.99359L14.8313 5.46567ZM11.8601 4.96392C12.879 4.96392 13.8781 5.13297 14.8313 5.46567L14.996 4.99359C13.9895 4.64229 12.9348 4.46392 11.8601 4.46392V4.96392ZM3.96723 11.7258C3.96723 8.03163 7.47234 4.96392 11.8601 4.96392V4.46392C7.26898 4.46392 3.46723 7.68793 3.46723 11.7258H3.96723ZM7.25341 17.2078C5.18525 15.9279 3.96723 13.8735 3.96723 11.7258H3.46723C3.46723 14.0694 4.79521 16.2746 6.99029 17.633L7.25341 17.2078ZM7.4674 17.3396L7.25341 17.2078L6.99029 17.633L7.20515 17.7653L7.4674 17.3396ZM7.58628 20.0949V17.5525H7.08628V20.0949H7.58628ZM9.31861 19.8449H7.33628V20.3449H9.31861V19.8449ZM9.85772 18.4576L9.095 19.9831L9.54222 20.2067L10.3049 18.6812L9.85772 18.4576ZM10.4463 18.3731L10.1196 18.3224L10.043 18.8165L10.3696 18.8672L10.4463 18.3731ZM14.0307 18.2099C12.7797 18.5172 11.721 18.5705 10.4463 18.3731L10.3696 18.8672C11.7115 19.075 12.8369 19.018 14.15 18.6955L14.0307 18.2099ZM14.3813 18.1232L14.0307 18.2099L14.15 18.6955L14.5014 18.6086L14.3813 18.1232ZM15.5299 19.983L14.665 18.254L14.2178 18.4777L15.0827 20.2067L15.5299 19.983ZM17.2887 19.8449H15.3063V20.3449H17.2887V19.8449ZM17.0387 16.9363V20.0949H17.5387V16.9363H17.0387ZM17.2947 16.6074L17.1297 16.7434L17.4477 17.1293L17.6123 16.9936L17.2947 16.6074ZM19.3046 13.9495C18.902 14.9378 18.2086 15.8576 17.2947 16.6074L17.6123 16.9936C18.584 16.1963 19.3306 15.2109 19.7676 14.1381L19.3046 13.9495ZM19.4194 13.6673L19.3046 13.9495L19.7676 14.1381L19.8825 13.8558L19.4194 13.6673ZM16.3818 8.08366C15.7453 8.08366 15.227 8.60076 15.227 9.23842H15.727C15.727 8.87723 16.0211 8.58366 16.3818 8.58366V8.08366ZM17.5365 9.23842C17.5365 8.60076 17.0182 8.08366 16.3818 8.08366V8.58366C16.7424 8.58366 17.0365 8.87723 17.0365 9.23842H17.5365ZM16.3818 10.3932C17.0182 10.3932 17.5365 9.87608 17.5365 9.23842H17.0365C17.0365 9.59962 16.7424 9.89318 16.3818 9.89318V10.3932ZM15.227 9.23842C15.227 9.87608 15.7453 10.3932 16.3818 10.3932V9.89318C16.0211 9.89318 15.727 9.59962 15.727 9.23842H15.227ZM15.9295 9.48812H16.3823V8.98812H15.93L15.9295 9.48812ZM16.3828 8.98902L15.93 8.98812L15.9295 9.48812L16.3818 9.48902L16.3828 8.98902ZM9.79644 6.78231V7.72236H10.2964V6.78231H9.79644ZM13.7334 6.53809C12.5283 6.19808 11.2146 6.19256 9.97848 6.54173L10.1144 7.0229C11.2614 6.69892 12.481 6.70426 13.5976 7.0193L13.7334 6.53809ZM13.9155 7.72869V6.77869H13.4155V7.72869H13.9155ZM10.2518 7.92068C11.3495 7.58445 12.5322 7.61533 13.5866 7.96592L13.7444 7.49146C12.5947 7.1092 11.3057 7.07494 10.1053 7.44261L10.2518 7.92068ZM10.1201 7.96127L10.2518 7.92068L10.1053 7.44261L9.9728 7.48345L10.1201 7.96127Z" fill="#18a886"/>
</svg>
