<svg width="24" height="24" viewBox="0 0 24 24" fill="none" xmlns="http://www.w3.org/2000/svg">
<g id="paper-airplane">
<path id="Vector" fill-rule="evenodd" clip-rule="evenodd" d="M2.73407 2.5984C2.92747 2.40193 3.21306 2.3274 3.47779 2.4043C10.1764 4.35021 16.3971 7.41817 21.923 11.3908C22.119 11.5317 22.2352 11.7583 22.2352 11.9998C22.2352 12.2412 22.119 12.4678 21.923 12.6087C16.3972 16.5814 10.1765 19.6494 3.47789 21.5954C3.21315 21.6723 2.92756 21.5978 2.73417 21.4013C2.54077 21.2049 2.47076 20.9181 2.55183 20.6546L5.21479 12L2.55174 3.3451C2.47066 3.0816 2.54068 2.79487 2.73407 2.5984ZM6.55342 12.75L4.40017 19.7481C10.0792 17.9504 15.3884 15.32 20.1843 11.9998C15.3884 8.67962 10.0792 6.04922 4.40007 4.25162L6.55342 11.25L13.4998 11.25C13.914 11.25 14.2498 11.5858 14.2498 12C14.2498 12.4142 13.914 12.75 13.4998 12.75L6.55342 12.75Z" fill="#141413"/>
</g>
</svg>
