<svg width="24" height="24" viewBox="0 0 24 24" fill="none" xmlns="http://www.w3.org/2000/svg">
<path fill-rule="evenodd" clip-rule="evenodd" d="M2.73407 2.59889C2.92747 2.40242 3.21306 2.32788 3.47779 2.40479C10.1764 4.35069 16.3971 7.41865 21.923 11.3913C22.119 11.5322 22.2352 11.7589 22.2352 12.0003C22.2352 12.2417 22.119 12.4683 21.923 12.6092C16.3972 16.5819 10.1765 19.65 3.47789 21.5959C3.21315 21.6728 2.92756 21.5983 2.73417 21.4018C2.54077 21.2054 2.47076 20.9186 2.55183 20.6552L5.21479 12.0005L2.55174 3.34558C2.47066 3.08209 2.54068 2.79535 2.73407 2.59889ZM6.55342 12.7505L4.40017 19.7486C10.0792 17.9509 15.3884 15.3205 20.1843 12.0003C15.3884 8.6801 10.0792 6.0497 4.40007 4.2521L6.55342 11.2505H13.4998C13.914 11.2505 14.2498 11.5863 14.2498 12.0005C14.2498 12.4147 13.914 12.7505 13.4998 12.7505H6.55342Z" fill="#919191"/>
</svg>
