<svg width="24" height="24" viewBox="0 0 24 24" fill="none" xmlns="http://www.w3.org/2000/svg">
<path fill-rule="evenodd" clip-rule="evenodd" d="M11.9996 3C10.3427 3 8.99959 4.34315 8.99959 6V6.75H14.9996V6C14.9996 4.34315 13.6564 3 11.9996 3ZM16.4996 6.75V6C16.4996 3.51472 14.4849 1.5 11.9996 1.5C9.51431 1.5 7.49959 3.51472 7.49959 6V6.75H5.51238C4.55283 6.75 3.74813 7.47444 3.64768 8.42872L2.38453 20.4287C2.26799 21.5358 3.13603 22.5 4.24922 22.5H19.75C20.8631 22.5 21.7312 21.5358 21.6147 20.4287L20.3515 8.42872C20.251 7.47444 19.4463 6.75 18.4868 6.75H16.4996ZM14.9996 8.25H8.99959V9.66146C9.22974 9.86746 9.37459 10.1668 9.37459 10.5C9.37459 11.1213 8.87091 11.625 8.24959 11.625C7.62827 11.625 7.12459 11.1213 7.12459 10.5C7.12459 10.1668 7.26943 9.86746 7.49959 9.66146V8.25H5.51238C5.32047 8.25 5.15953 8.39489 5.13944 8.58574L3.87628 20.5857C3.85298 20.8072 4.02659 21 4.24922 21H19.75C19.9726 21 20.1462 20.8072 20.1229 20.5857L18.8597 8.58574C18.8396 8.39489 18.6787 8.25 18.4868 8.25H16.4996V9.66146C16.7297 9.86746 16.8746 10.1668 16.8746 10.5C16.8746 11.1213 16.3709 11.625 15.7496 11.625C15.1283 11.625 14.6246 11.1213 14.6246 10.5C14.6246 10.1668 14.7694 9.86746 14.9996 9.66146V8.25Z" fill="white"/>
</svg>
